<?xml version="1.0" encoding="UTF-8"?>
<!--Generator: Apple Native CoreSVG 149-->
<!DOCTYPE svg
PUBLIC "-//W3C//DTD SVG 1.1//EN"
       "http://www.w3.org/Graphics/SVG/1.1/DTD/svg11.dtd">
<svg version="1.1" xmlns="http://www.w3.org/2000/svg" xmlns:xlink="http://www.w3.org/1999/xlink" width="3300" height="2200">
 <!--glyph: "uni10014C.medium", point size: 100.000000, font version: "Version 16.0d12e3", template writer version: "8"-->
 <g id="Notes">
  <rect height="2200" id="artboard" style="fill:white;opacity:1" width="3300" x="0" y="0"/>
  <line id="" style="fill:none;stroke:black;opacity:1;stroke-width:0.5;" x1="263" x2="3036" y1="292" y2="292"/>
  <text style="stroke:none;fill:black;font-family:-apple-system,&quot;SF Pro Display&quot;,&quot;SF Pro Text&quot;,Helvetica,sans-serif;font-weight:bold;" transform="matrix(1 0 0 1 263 322)">Weight/Scale Variations</text>
  <text style="stroke:none;fill:black;font-family:-apple-system,&quot;SF Pro Display&quot;,&quot;SF Pro Text&quot;,Helvetica,sans-serif;text-anchor:middle;" transform="matrix(1 0 0 1 559.711 322)">Ultralight</text>
  <text style="stroke:none;fill:black;font-family:-apple-system,&quot;SF Pro Display&quot;,&quot;SF Pro Text&quot;,Helvetica,sans-serif;text-anchor:middle;" transform="matrix(1 0 0 1 856.422 322)">Thin</text>
  <text style="stroke:none;fill:black;font-family:-apple-system,&quot;SF Pro Display&quot;,&quot;SF Pro Text&quot;,Helvetica,sans-serif;text-anchor:middle;" transform="matrix(1 0 0 1 1153.13 322)">Light</text>
  <text style="stroke:none;fill:black;font-family:-apple-system,&quot;SF Pro Display&quot;,&quot;SF Pro Text&quot;,Helvetica,sans-serif;text-anchor:middle;" transform="matrix(1 0 0 1 1449.84 322)">Regular</text>
  <text style="stroke:none;fill:black;font-family:-apple-system,&quot;SF Pro Display&quot;,&quot;SF Pro Text&quot;,Helvetica,sans-serif;text-anchor:middle;" transform="matrix(1 0 0 1 1746.56 322)">Medium</text>
  <text style="stroke:none;fill:black;font-family:-apple-system,&quot;SF Pro Display&quot;,&quot;SF Pro Text&quot;,Helvetica,sans-serif;text-anchor:middle;" transform="matrix(1 0 0 1 2043.27 322)">Semibold</text>
  <text style="stroke:none;fill:black;font-family:-apple-system,&quot;SF Pro Display&quot;,&quot;SF Pro Text&quot;,Helvetica,sans-serif;text-anchor:middle;" transform="matrix(1 0 0 1 2339.98 322)">Bold</text>
  <text style="stroke:none;fill:black;font-family:-apple-system,&quot;SF Pro Display&quot;,&quot;SF Pro Text&quot;,Helvetica,sans-serif;text-anchor:middle;" transform="matrix(1 0 0 1 2636.69 322)">Heavy</text>
  <text style="stroke:none;fill:black;font-family:-apple-system,&quot;SF Pro Display&quot;,&quot;SF Pro Text&quot;,Helvetica,sans-serif;text-anchor:middle;" transform="matrix(1 0 0 1 2933.4 322)">Black</text>
  <line id="" style="fill:none;stroke:black;opacity:1;stroke-width:0.5;" x1="263" x2="3036" y1="1903" y2="1903"/>
  <g id="" transform="matrix(1 0 0 1 263 1933)">
   <path d="M9.24805 0.830078C13.5547 0.830078 17.1387-2.74414 17.1387-7.05078C17.1387-11.3574 13.5449-14.9316 9.23828-14.9316C4.94141-14.9316 1.36719-11.3574 1.36719-7.05078C1.36719-2.74414 4.95117 0.830078 9.24805 0.830078ZM9.24805-0.654297C5.70312-0.654297 2.87109-3.49609 2.87109-7.05078C2.87109-10.6055 5.69336-13.4473 9.23828-13.4473C12.793-13.4473 15.6348-10.6055 15.6445-7.05078C15.6543-3.49609 12.8027-0.654297 9.24805-0.654297ZM9.22852-3.62305C9.69727-3.62305 9.9707-3.93555 9.9707-4.45312L9.9707-6.31836L12.002-6.31836C12.5-6.31836 12.832-6.57227 12.832-7.04102C12.832-7.51953 12.5195-7.7832 12.002-7.7832L9.9707-7.7832L9.9707-9.81445C9.9707-10.332 9.69727-10.6543 9.22852-10.6543C8.75977-10.6543 8.50586-10.3125 8.50586-9.81445L8.50586-7.7832L6.49414-7.7832C5.97656-7.7832 5.64453-7.51953 5.64453-7.04102C5.64453-6.57227 5.99609-6.31836 6.49414-6.31836L8.50586-6.31836L8.50586-4.45312C8.50586-3.95508 8.75977-3.62305 9.22852-3.62305Z"/>
  </g>
  <g id="" transform="matrix(1 0 0 1 281.506 1933)">
   <path d="M11.709 2.91016C17.1582 2.91016 21.6699-1.61133 21.6699-7.05078C21.6699-12.5 17.1484-17.0117 11.6992-17.0117C6.25977-17.0117 1.74805-12.5 1.74805-7.05078C1.74805-1.61133 6.26953 2.91016 11.709 2.91016ZM11.709 1.25C7.09961 1.25 3.41797-2.44141 3.41797-7.05078C3.41797-11.6602 7.08984-15.3516 11.6992-15.3516C16.3086-15.3516 20-11.6602 20.0098-7.05078C20.0195-2.44141 16.3184 1.25 11.709 1.25ZM11.6797-2.66602C12.207-2.66602 12.5098-3.01758 12.5098-3.59375L12.5098-6.23047L15.3223-6.23047C15.8691-6.23047 16.25-6.51367 16.25-7.03125C16.25-7.55859 15.8887-7.86133 15.3223-7.86133L12.5098-7.86133L12.5098-10.6836C12.5098-11.25 12.207-11.6113 11.6797-11.6113C11.1621-11.6113 10.8789-11.2305 10.8789-10.6836L10.8789-7.86133L8.07617-7.86133C7.50977-7.86133 7.13867-7.55859 7.13867-7.03125C7.13867-6.51367 7.5293-6.23047 8.07617-6.23047L10.8789-6.23047L10.8789-3.59375C10.8789-3.03711 11.1621-2.66602 11.6797-2.66602Z"/>
  </g>
  <g id="" transform="matrix(1 0 0 1 304.924 1933)">
   <path d="M14.9707 5.66406C21.9336 5.66406 27.6953-0.0976562 27.6953-7.05078C27.6953-14.0137 21.9238-19.7754 14.9609-19.7754C8.00781-19.7754 2.25586-14.0137 2.25586-7.05078C2.25586-0.0976562 8.01758 5.66406 14.9707 5.66406ZM14.9707 3.84766C8.93555 3.84766 4.08203-1.01562 4.08203-7.05078C4.08203-13.0957 8.92578-17.9492 14.9609-17.9492C21.0059-17.9492 25.8594-13.0957 25.8691-7.05078C25.8789-1.01562 21.0156 3.84766 14.9707 3.84766ZM14.9414-1.38672C15.5176-1.38672 15.8594-1.77734 15.8594-2.38281L15.8594-6.13281L19.7754-6.13281C20.3711-6.13281 20.7812-6.46484 20.7812-7.02148C20.7812-7.59766 20.3906-7.93945 19.7754-7.93945L15.8594-7.93945L15.8594-11.8652C15.8594-12.4805 15.5176-12.8711 14.9414-12.8711C14.375-12.8711 14.0527-12.4609 14.0527-11.8652L14.0527-7.93945L10.1465-7.93945C9.53125-7.93945 9.13086-7.59766 9.13086-7.02148C9.13086-6.46484 9.55078-6.13281 10.1465-6.13281L14.0527-6.13281L14.0527-2.38281C14.0527-1.79688 14.375-1.38672 14.9414-1.38672Z"/>
  </g>
  <text style="stroke:none;fill:black;font-family:-apple-system,&quot;SF Pro Display&quot;,&quot;SF Pro Text&quot;,Helvetica,sans-serif;font-weight:bold;" transform="matrix(1 0 0 1 263 1953)">Design Variations</text>
  <text style="stroke:none;fill:black;font-family:-apple-system,&quot;SF Pro Display&quot;,&quot;SF Pro Text&quot;,Helvetica,sans-serif;" transform="matrix(1 0 0 1 263 1971)">Symbols are supported in up to nine weights and three scales.</text>
  <text style="stroke:none;fill:black;font-family:-apple-system,&quot;SF Pro Display&quot;,&quot;SF Pro Text&quot;,Helvetica,sans-serif;" transform="matrix(1 0 0 1 263 1989)">For optimal layout with text and other symbols, vertically align</text>
  <text style="stroke:none;fill:black;font-family:-apple-system,&quot;SF Pro Display&quot;,&quot;SF Pro Text&quot;,Helvetica,sans-serif;" transform="matrix(1 0 0 1 263 2007)">symbols with the adjacent text.</text>
  <line id="" style="fill:none;stroke:#00AEEF;stroke-width:0.5;opacity:1.0;" x1="776" x2="776" y1="1919" y2="1933"/>
  <g id="" transform="matrix(1 0 0 1 776 1933)">
   <path d="M3.31055 0.126953C3.82812 0.126953 4.08203-0.0683594 4.26758-0.605469L5.52734-4.0625L11.2891-4.0625L12.5488-0.605469C12.7344-0.0683594 12.9883 0.126953 13.4961 0.126953C14.0137 0.126953 14.3457-0.185547 14.3457-0.673828C14.3457-0.839844 14.3164-0.986328 14.2383-1.20117L9.6582-13.3887C9.43359-13.9941 9.0332-14.2871 8.4082-14.2871C7.80273-14.2871 7.39258-13.9941 7.17773-13.3984L2.59766-1.19141C2.51953-0.976562 2.49023-0.830078 2.49023-0.664062C2.49023-0.175781 2.80273 0.126953 3.31055 0.126953ZM6.00586-5.53711L8.37891-12.1094L8.42773-12.1094L10.8008-5.53711Z"/>
  </g>
  <line id="" style="fill:none;stroke:#00AEEF;stroke-width:0.5;opacity:1.0;" x1="792.836" x2="792.836" y1="1919" y2="1933"/>
  <text style="stroke:none;fill:black;font-family:-apple-system,&quot;SF Pro Display&quot;,&quot;SF Pro Text&quot;,Helvetica,sans-serif;font-weight:bold;" transform="matrix(1 0 0 1 776 1953)">Margins</text>
  <text style="stroke:none;fill:black;font-family:-apple-system,&quot;SF Pro Display&quot;,&quot;SF Pro Text&quot;,Helvetica,sans-serif;" transform="matrix(1 0 0 1 776 1971)">Leading and trailing margins on the left and right side of each symbol</text>
  <text style="stroke:none;fill:black;font-family:-apple-system,&quot;SF Pro Display&quot;,&quot;SF Pro Text&quot;,Helvetica,sans-serif;" transform="matrix(1 0 0 1 776 1989)">can be adjusted by modifying the x-location of the margin guidelines.</text>
  <text style="stroke:none;fill:black;font-family:-apple-system,&quot;SF Pro Display&quot;,&quot;SF Pro Text&quot;,Helvetica,sans-serif;" transform="matrix(1 0 0 1 776 2007)">Modifications are automatically applied proportionally to all</text>
  <text style="stroke:none;fill:black;font-family:-apple-system,&quot;SF Pro Display&quot;,&quot;SF Pro Text&quot;,Helvetica,sans-serif;" transform="matrix(1 0 0 1 776 2025)">scales and weights.</text>
  <g id="" transform="matrix(1 0 0 1 1289 1933)">
   <path d="M2.8418 1.86523L4.54102 3.57422C5.40039 4.44336 6.38672 4.38477 7.31445 3.35938L17.4902-7.85156C17.7539-7.76367 18.0273-7.7832 18.3398-7.8418L19.4043-8.03711L20.0684-7.36328L20.0293-6.80664C19.9902-6.30859 20.1172-5.92773 20.6055-5.44922L21.3672-4.70703C21.8457-4.22852 22.4609-4.19922 22.9297-4.66797L25.8398-7.58789C26.3086-8.05664 26.2891-8.65234 25.8105-9.13086L25.0391-9.89258C24.5605-10.3711 24.1895-10.5273 23.7109-10.4883L23.1348-10.4395L22.4902-11.0742L22.7344-12.1973C22.8613-12.7637 22.7051-13.2031 22.1191-13.7891L19.9219-15.9766C16.582-19.2969 12.1484-19.2188 9.25781-16.3281C8.83789-15.918 8.80859-15.3418 9.04297-14.9512C9.27734-14.5898 9.73633-14.3555 10.3809-14.5215C11.8457-14.8633 13.3691-14.9219 14.7949-13.9844L14.209-12.5293C14.0137-12.0508 13.9844-11.6504 14.1113-11.2891L3.04688-0.898438C2.06055 0.0195312 1.98242 0.996094 2.8418 1.86523ZM10.752-15.957C13.1836-17.7344 16.4746-17.4316 18.7012-15.2051L21.1328-12.793C21.3672-12.5586 21.4062-12.373 21.3379-12.0312L21.0156-10.5469L22.5195-9.0625L23.5059-9.12109C23.7598-9.13086 23.8379-9.11133 24.0332-8.91602L24.6094-8.33984L22.168-5.89844L21.5918-6.47461C21.3965-6.66992 21.3672-6.74805 21.377-7.01172L21.4453-7.98828L19.9512-9.47266L18.4277-9.21875C18.1055-9.15039 17.959-9.17969 17.7148-9.41406L15.7129-11.416C15.459-11.6504 15.4297-11.8164 15.5859-12.1875L16.4648-14.2773C14.9023-15.7324 12.8711-16.3574 10.8398-15.7617C10.6836-15.7227 10.625-15.8496 10.752-15.957ZM5.27344 2.30469L4.10156 1.14258C3.63281 0.683594 3.74023 0.341797 4.14062-0.0195312L14.9512-10.1953L16.416-8.71094L6.42578 2.27539C6.07422 2.67578 5.74219 2.77344 5.27344 2.30469Z"/>
  </g>
  <text style="stroke:none;fill:black;font-family:-apple-system,&quot;SF Pro Display&quot;,&quot;SF Pro Text&quot;,Helvetica,sans-serif;font-weight:bold;" transform="matrix(1 0 0 1 1289 1953)">Exporting</text>
  <text style="stroke:none;fill:black;font-family:-apple-system,&quot;SF Pro Display&quot;,&quot;SF Pro Text&quot;,Helvetica,sans-serif;" transform="matrix(1 0 0 1 1289 1971)">Symbols should be outlined when exporting to ensure the</text>
  <text style="stroke:none;fill:black;font-family:-apple-system,&quot;SF Pro Display&quot;,&quot;SF Pro Text&quot;,Helvetica,sans-serif;" transform="matrix(1 0 0 1 1289 1989)">design is preserved when submitting to Xcode.</text>
  <text id="template-version" style="stroke:none;fill:black;font-family:-apple-system,&quot;SF Pro Display&quot;,&quot;SF Pro Text&quot;,Helvetica,sans-serif;text-anchor:end;" transform="matrix(1 0 0 1 3036 1933)">Template v.2.0</text>
  <text style="stroke:none;fill:black;font-family:-apple-system,&quot;SF Pro Display&quot;,&quot;SF Pro Text&quot;,Helvetica,sans-serif;text-anchor:end;" transform="matrix(1 0 0 1 3036 1951)">Requires Xcode 12 or greater</text>
  <text style="stroke:none;fill:black;font-family:-apple-system,&quot;SF Pro Display&quot;,&quot;SF Pro Text&quot;,Helvetica,sans-serif;text-anchor:end;" transform="matrix(1 0 0 1 3036 1969)">Generated from arrow.2.squarepath</text>
  <text style="stroke:none;fill:black;font-family:-apple-system,&quot;SF Pro Display&quot;,&quot;SF Pro Text&quot;,Helvetica,sans-serif;text-anchor:end;" transform="matrix(1 0 0 1 3036 1987)">Typeset at 100 points</text>
  <text style="stroke:none;fill:black;font-family:-apple-system,&quot;SF Pro Display&quot;,&quot;SF Pro Text&quot;,Helvetica,sans-serif;" transform="matrix(1 0 0 1 263 726)">Small</text>
  <text style="stroke:none;fill:black;font-family:-apple-system,&quot;SF Pro Display&quot;,&quot;SF Pro Text&quot;,Helvetica,sans-serif;" transform="matrix(1 0 0 1 263 1156)">Medium</text>
  <text style="stroke:none;fill:black;font-family:-apple-system,&quot;SF Pro Display&quot;,&quot;SF Pro Text&quot;,Helvetica,sans-serif;" transform="matrix(1 0 0 1 263 1586)">Large</text>
 </g>
 <g id="Guides">
  <g id="H-reference" style="fill:#27AAE1;stroke:none;" transform="matrix(1 0 0 1 339 696)">
   <path d="M0.976562 0L3.66211 0L12.9883-24.4629L45.752-24.4629L55.127 0L57.7637 0L30.6152-70.459L28.125-70.459ZM29.3457-67.1387L29.4434-67.1387L44.873-26.709L13.8672-26.709Z"/>
  </g>
  <line id="Baseline-S" style="fill:none;stroke:#27AAE1;opacity:1;stroke-width:0.5;" x1="263" x2="3036" y1="696" y2="696"/>
  <line id="Capline-S" style="fill:none;stroke:#27AAE1;opacity:1;stroke-width:0.5;" x1="263" x2="3036" y1="625.541" y2="625.541"/>
  <g id="H-reference" style="fill:#27AAE1;stroke:none;" transform="matrix(1 0 0 1 339 1126)">
   <path d="M0.976562 0L3.66211 0L12.9883-24.4629L45.752-24.4629L55.127 0L57.7637 0L30.6152-70.459L28.125-70.459ZM29.3457-67.1387L29.4434-67.1387L44.873-26.709L13.8672-26.709Z"/>
  </g>
  <line id="Baseline-M" style="fill:none;stroke:#27AAE1;opacity:1;stroke-width:0.5;" x1="263" x2="3036" y1="1126" y2="1126"/>
  <line id="Capline-M" style="fill:none;stroke:#27AAE1;opacity:1;stroke-width:0.5;" x1="263" x2="3036" y1="1055.54" y2="1055.54"/>
  <g id="H-reference" style="fill:#27AAE1;stroke:none;" transform="matrix(1 0 0 1 339 1556)">
   <path d="M0.976562 0L3.66211 0L12.9883-24.4629L45.752-24.4629L55.127 0L57.7637 0L30.6152-70.459L28.125-70.459ZM29.3457-67.1387L29.4434-67.1387L44.873-26.709L13.8672-26.709Z"/>
  </g>
  <line id="Baseline-L" style="fill:none;stroke:#27AAE1;opacity:1;stroke-width:0.5;" x1="263" x2="3036" y1="1556" y2="1556"/>
  <line id="Capline-L" style="fill:none;stroke:#27AAE1;opacity:1;stroke-width:0.5;" x1="263" x2="3036" y1="1485.54" y2="1485.54"/>
  <line id="left-margin" style="fill:none;stroke:#00AEEF;stroke-width:0.5;opacity:1.0;" x1="1376.9" x2="1376.9" y1="1030.79" y2="1150.12"/>
  <line id="right-margin" style="fill:none;stroke:#00AEEF;stroke-width:0.5;opacity:1.0;" x1="1522.79" x2="1522.79" y1="1030.79" y2="1150.12"/>
 </g>
 <g id="Symbols">
  <g id="Black-L" transform="matrix(1 0 0 1 2832.74 1556)">
   <path d="M135.01-96.875L93.3105-96.875C87.1582-96.875 82.8613-92.7246 82.8613-86.7676C82.8613-80.8105 87.1582-76.6602 93.3105-76.6602L132.275-76.6602C136.475-76.6602 138.672-74.7559 138.672-70.2148L138.672-13.7207L131.689-22.1191L129.785-23.9746C125.537-28.2227 119.58-28.2715 115.43-24.0234C111.279-19.873 111.23-13.916 115.479-9.66797L137.695 12.5C144.678 19.4824 152.881 19.4336 159.863 12.5L182.031-9.66797C186.328-13.916 186.23-19.873 182.08-24.0234C177.93-28.2715 172.021-28.2227 167.725-23.9746L165.869-22.1191L158.887-13.7695L158.887-73.0957C158.887-88.2812 150.244-96.875 135.01-96.875ZM19.2383-46.3379C23.3887-42.1387 29.3457-42.1387 33.5938-46.3867L35.498-48.2422L42.4316-56.5918L42.4316 2.68555C42.4316 17.8711 51.123 26.5137 66.3574 26.5137L108.057 26.5137C114.209 26.5137 118.506 22.3633 118.457 16.4062C118.457 10.4492 114.209 6.29883 108.057 6.29883L69.0918 6.29883C64.8438 6.29883 62.6953 4.39453 62.6953-0.146484L62.6953-56.6406L69.6777-48.2422L71.5332-46.3867C75.8301-42.1387 81.7383-42.1387 85.8887-46.3379C90.0391-50.5371 90.1367-56.4453 85.8398-60.6934L63.6719-82.8613C56.6406-89.8438 48.4375-89.7949 41.5039-82.8613L19.2871-60.6934C15.0391-56.4453 15.0879-50.5371 19.2383-46.3379Z"/>
  </g>
  <g id="Heavy-L" transform="matrix(1 0 0 1 2537.64 1556)">
   <path d="M133.35-95.8496L88.8672-95.8496C83.4473-95.8496 79.7363-92.334 79.7363-87.1094C79.7852-81.9336 83.4473-78.3691 88.8672-78.3691L131.201-78.3691C136.035-78.3691 138.574-76.0742 138.574-70.9473L138.574-11.4258L130.811-20.3613L127.783-23.3887C124.072-27.002 118.945-27.0996 115.332-23.4375C111.768-19.8242 111.719-14.6484 115.43-10.9863L137.549 11.1328C143.75 17.2852 150.928 17.2363 157.08 11.1328L179.199-10.9863C182.91-14.6484 182.861-19.8242 179.248-23.4375C175.684-27.0996 170.508-27.0508 166.846-23.3887L163.818-20.3613L156.055-11.4258L156.055-73.2422C156.055-87.793 147.949-95.8496 133.35-95.8496ZM18.7988-46.9238C22.4121-43.2617 27.5391-43.3105 31.25-46.9727L34.2773-50L41.9922-58.9355L41.9922 2.88086C41.9922 17.4316 50.1465 25.4883 64.7461 25.4883L109.229 25.4883C114.648 25.4883 118.359 21.9727 118.311 16.748C118.311 11.5723 114.648 8.00781 109.229 8.00781L66.8945 8.00781C62.0605 8.00781 59.5215 5.71289 59.5215 0.585938L59.5215-58.9355L67.2852-50L70.3125-46.9727C73.9746-43.3594 79.1504-43.2617 82.7148-46.9238C86.3281-50.5371 86.377-55.7129 82.666-59.375L60.5469-81.4941C54.3457-87.6465 47.168-87.5977 41.0156-81.4941L18.8965-59.375C15.1855-55.7129 15.2344-50.5371 18.7988-46.9238Z"/>
  </g>
  <g id="Bold-L" transform="matrix(1 0 0 1 2242.76 1556)">
   <path d="M131.445-94.7266L83.8867-94.7266C79.2969-94.7266 76.2207-91.8457 76.2695-87.5C76.3184-83.1543 79.2969-80.2734 83.8867-80.2734L130.029-80.2734C135.547-80.2734 138.477-77.5391 138.477-71.7285L138.477-8.78906L129.834-18.457L125.537-22.6562C122.51-25.6836 118.262-25.7812 115.234-22.7539C112.256-19.7754 112.256-15.4785 115.332-12.4512L137.402 9.57031C142.627 14.7949 148.73 14.7461 153.955 9.57031L176.025-12.4512C179.053-15.4785 179.102-19.7754 176.074-22.7539C173.096-25.7812 168.848-25.6836 165.82-22.6562L161.523-18.457L152.93-8.83789L152.93-73.3887C152.93-87.2559 145.361-94.7266 131.445-94.7266ZM18.3594-47.5586C21.3379-44.5801 25.5859-44.6289 28.6133-47.6562L32.9102-51.9043L41.5039-61.5234L41.5039 3.07617C41.5039 16.8945 49.0723 24.3652 62.9883 24.3652L110.547 24.3652C115.137 24.3652 118.213 21.4844 118.164 17.1387C118.115 12.793 115.137 9.91211 110.547 9.91211L64.4043 9.91211C58.8867 9.91211 55.957 7.17773 55.957 1.41602L55.957-61.5723L64.5996-51.9043L68.8965-47.6562C71.9238-44.6777 76.1719-44.5312 79.1992-47.5586C82.1777-50.5859 82.1777-54.8828 79.1016-57.9102L57.0312-79.8828C51.8066-85.1074 45.7031-85.1074 40.4785-79.8828L18.4082-57.9102C15.3809-54.8828 15.332-50.5859 18.3594-47.5586Z"/>
  </g>
  <g id="Semibold-L" transform="matrix(1 0 0 1 1947.3 1556)">
   <path d="M130.176-93.9453L80.4199-93.9453C76.416-93.9453 73.8281-91.5039 73.877-87.7441C73.9258-84.0332 76.416-81.5918 80.4199-81.5918L129.199-81.5918C135.205-81.5918 138.428-78.5156 138.428-72.3145L138.428-6.98242L129.15-17.0898L123.975-22.168C121.387-24.707 117.773-24.9023 115.186-22.3145C112.598-19.7266 112.646-16.0645 115.283-13.4766L137.305 8.49609C141.895 13.0859 147.217 13.0371 151.807 8.49609L173.828-13.4766C176.416-16.0645 176.465-19.7266 173.926-22.3145C171.338-24.9023 167.725-24.7559 165.088-22.168L159.961-17.0898L150.732-7.03125L150.732-73.5352C150.732-86.8652 143.604-93.9453 130.176-93.9453ZM18.0176-48.0469C20.5566-45.459 24.2188-45.5566 26.8066-48.1445L31.9824-53.2227L41.1621-63.2812L41.1621 3.17383C41.1621 16.5527 48.291 23.584 61.7676 23.584L111.475 23.584C115.479 23.584 118.115 21.1914 118.066 17.4316C118.018 13.6719 115.479 11.2793 111.475 11.2793L62.7441 11.2793C56.7383 11.2793 53.5156 8.20312 53.5156 1.95312L53.5156-63.3301L62.793-53.2227L67.9199-48.1445C70.5566-45.6055 74.1699-45.4102 76.7578-48.0469C79.2969-50.6348 79.248-54.2969 76.6602-56.8848L54.6387-78.8086C50-83.3984 44.7266-83.3984 40.0879-78.8086L18.1152-56.8848C15.4785-54.2969 15.4297-50.6348 18.0176-48.0469Z"/>
  </g>
  <g id="Medium-L" transform="matrix(1 0 0 1 1651.54 1556)">
   <path d="M129.199-93.3105L77.832-93.3105C74.2676-93.3105 71.9727-91.2598 72.0215-87.9395C72.0703-84.668 74.2676-82.6172 77.832-82.6172L128.564-82.6172C134.912-82.6172 138.379-79.2969 138.379-72.7051L138.379-5.61523L128.613-16.0645L122.803-21.8262C120.557-24.0234 117.383-24.2188 115.137-21.9727C112.891-19.6777 112.939-16.5039 115.234-14.2578L137.207 7.66602C141.357 11.7676 146.045 11.7676 150.195 7.66602L172.168-14.2578C174.414-16.5039 174.512-19.6777 172.266-21.9727C170.02-24.2188 166.846-24.0723 164.551-21.8262L158.74-16.0645L149.121-5.66406L149.121-73.6328C149.121-86.5723 142.285-93.3105 129.199-93.3105ZM17.7734-48.3887C20.0195-46.0938 23.1445-46.2402 25.4395-48.5352L31.25-54.248L40.918-64.6484L40.918 3.27148C40.918 16.2598 47.7539 22.998 60.791 22.998L112.207 22.998C115.771 22.998 118.018 20.9473 117.969 17.627C117.92 14.3555 115.771 12.2559 112.207 12.2559L61.4258 12.2559C55.0781 12.2559 51.6602 8.98438 51.6602 2.39258L51.6602-64.6973L61.377-54.248L67.1875-48.5352C69.4824-46.3379 72.6074-46.0938 74.9023-48.3887C77.1484-50.6348 77.0508-53.8574 74.7559-56.1035L52.832-78.0273C48.6816-82.0801 43.9453-82.0801 39.8438-78.0273L17.8711-56.1035C15.5762-53.8574 15.5273-50.6348 17.7734-48.3887Z"/>
  </g>
  <g id="Regular-L" transform="matrix(1 0 0 1 1356.07 1556)">
   <path d="M127.93-92.5293L74.4141-92.5293C71.4355-92.5293 69.6289-90.918 69.6777-88.2324C69.7266-85.498 71.4355-83.8867 74.4141-83.8867L127.783-83.8867C134.57-83.8867 138.281-80.2734 138.281-73.291L138.281-3.85742L127.93-14.7461L121.289-21.3379C119.482-23.0957 116.943-23.3398 115.039-21.4844C113.232-19.6777 113.33-17.041 115.186-15.2344L137.109 6.64062C140.576 10.0586 144.58 10.0586 148.047 6.64062L169.971-15.2344C171.826-17.041 171.924-19.6777 170.117-21.4844C168.262-23.3398 165.723-23.1445 163.867-21.3379L157.227-14.7461L146.924-3.90625L146.924-73.7305C146.924-86.2305 140.527-92.5293 127.93-92.5293ZM17.4316-48.8281C19.2871-46.9727 21.8262-47.168 23.6816-48.9746L30.3223-55.5664L40.5762-66.4062L40.5762 3.41797C40.5762 15.918 47.0215 22.2168 59.6191 22.2168L113.086 22.2168C116.113 22.2168 117.92 20.6055 117.871 17.9199C117.822 15.1855 116.113 13.5742 113.086 13.5742L59.7656 13.5742C52.9297 13.5742 49.2188 9.96094 49.2188 2.97852L49.2188-66.5039L59.5703-55.5664L66.2598-48.9746C68.0664-47.2168 70.6055-46.9727 72.4609-48.8281C74.3164-50.6836 74.2188-53.2715 72.3633-55.0781L50.4395-76.9531C46.9238-80.3711 42.9688-80.3711 39.4531-76.9531L17.5781-55.0781C15.7227-53.2715 15.5762-50.6836 17.4316-48.8281Z"/>
  </g>
  <g id="Light-L" transform="matrix(1 0 0 1 1059.85 1556)">
   <path d="M127.637-91.6992L71.0938-91.6992C68.8965-91.6992 67.4805-90.4297 67.5293-88.3789C67.5293-86.377 68.8965-85.0586 71.0938-85.0586L127.49-85.0586C135.01-85.0586 139.014-81.1523 139.014-73.4863L139.014-2.63672L127.393-14.7461L119.873-22.168C118.506-23.4863 116.553-23.7793 115.088-22.3633C113.672-20.8984 113.77-18.9453 115.234-17.5293L138.037 5.27344C140.723 7.91016 143.799 7.91016 146.484 5.27344L169.336-17.5293C170.752-18.9453 170.898-20.8984 169.434-22.3633C168.066-23.7305 166.113-23.584 164.648-22.168L157.178-14.7461L145.605-2.63672L145.605-73.8281C145.605-85.6445 139.502-91.6992 127.637-91.6992ZM17.1387-47.9492C18.5059-46.5332 20.459-46.6797 21.9238-48.0957L29.4434-55.5176L40.9668-67.627L40.9668 3.56445C40.9668 15.3809 47.0703 21.4355 58.9355 21.4355L115.479 21.4355C117.676 21.4355 119.092 20.1172 119.043 18.1152C119.043 16.0645 117.676 14.7949 115.479 14.7949L59.082 14.7949C51.6113 14.7949 47.5586 10.8398 47.5586 3.22266L47.5586-67.6758L59.1797-55.5176L66.6992-48.0957C68.0664-46.7773 70.0195-46.4844 71.4844-47.9492C72.9492-49.3652 72.8027-51.3672 71.3867-52.7344L48.5352-75.5371C45.8496-78.1738 42.7734-78.1738 40.0879-75.5371L17.2363-52.7344C15.8203-51.3672 15.6738-49.3652 17.1387-47.9492Z"/>
  </g>
  <g id="Thin-L" transform="matrix(1 0 0 1 763.771 1556)">
   <path d="M127.246-90.5762L66.6992-90.5762C65.5273-90.5762 64.6973-89.7461 64.6973-88.623C64.6973-87.5 65.5273-86.6699 66.6992-86.6699L127.1-86.6699C135.547-86.6699 139.941-82.2754 139.941-73.7793L139.941-1.02539L126.611-14.7461L118.018-23.291C117.188-24.0234 116.016-24.3652 115.137-23.4863C114.209-22.5098 114.355-21.4355 115.234-20.5566L139.258 3.4668C140.869 5.07812 142.871 5.07812 144.434 3.4668L168.457-20.5566C169.336-21.4355 169.482-22.5098 168.555-23.4863C167.773-24.2676 166.602-24.1699 165.723-23.291L157.08-14.7461L143.848-1.02539L143.848-73.9746C143.848-84.8633 138.135-90.5762 127.246-90.5762ZM16.748-46.7773C17.5293-45.9473 18.7012-46.0449 19.5801-46.9238L28.2227-55.4688L41.4551-69.1895L41.4551 3.75977C41.4551 14.6484 47.168 20.3613 58.0566 20.3613L118.604 20.3613C119.775 20.3613 120.605 19.4824 120.605 18.3594C120.605 17.2363 119.775 16.4062 118.604 16.4062L58.2031 16.4062C49.7559 16.4062 45.3613 12.0117 45.3613 3.56445L45.3613-69.1895L58.6914-55.4688L67.334-46.9238C68.1152-46.1914 69.2871-45.8984 70.166-46.7773C71.0938-47.7051 70.9473-48.8281 70.0684-49.6582L46.0449-73.7305C44.4336-75.293 42.4805-75.293 40.8691-73.7305L16.8457-49.6582C15.9668-48.8281 15.8203-47.7051 16.748-46.7773Z"/>
  </g>
  <g id="Ultralight-L" transform="matrix(1 0 0 1 467.377 1556)">
   <path d="M127.051-89.9902L64.4531-89.9902C63.8184-89.9902 63.2324-89.4043 63.2324-88.7207C63.2324-88.0859 63.8184-87.4512 64.4531-87.4512L126.904-87.4512C135.791-87.4512 140.43-82.8125 140.43-73.9258L140.43-0.292969L142.969-0.292969L142.969-74.0723C142.969-84.4727 137.402-89.9902 127.051-89.9902ZM16.5527-46.1426C17.041-45.6543 17.8223-45.752 18.4082-46.3379L27.6367-55.4199L41.6504-69.9707L44.2871-69.9707L58.3984-55.4199L67.627-46.3379C68.1152-45.8984 68.8965-45.5566 69.4824-46.1426C70.166-46.8262 69.9707-47.5098 69.3848-48.0957L44.7266-72.7539C43.7012-73.7793 42.334-73.7793 41.3086-72.7539L16.6504-48.0957C16.0645-47.5098 15.8691-46.8262 16.5527-46.1426ZM57.6172 19.7754L120.215 19.7754C120.85 19.7754 121.436 19.1895 121.436 18.5059C121.436 17.8711 120.85 17.2363 120.215 17.2363L57.7637 17.2363C48.877 17.2363 44.2383 12.6465 44.2383 3.75977L44.2383-69.9219L41.6992-69.9219L41.6992 3.85742C41.6992 14.2578 47.2168 19.7754 57.6172 19.7754ZM168.115-24.0234C167.627-24.5605 166.846-24.4629 166.26-23.877L157.031-14.7461L143.018-0.244141L140.381-0.244141L126.221-14.7461L117.041-23.877C116.553-24.3164 115.771-24.6094 115.186-24.0234C114.502-23.3887 114.648-22.7051 115.234-22.1191L139.941 2.58789C140.918 3.61328 142.334 3.61328 143.359 2.58789L168.018-22.1191C168.604-22.7051 168.799-23.3887 168.115-24.0234Z"/>
  </g>
  <g id="Black-M" transform="matrix(1 0 0 1 2853.47 1126)">
   <path d="M106.689-83.9355L76.5137-83.9355C71.1426-83.9355 67.2363-80.0781 67.2363-74.8047C67.2363-69.5312 71.1426-65.6738 76.5137-65.6738L103.76-65.6738C106.543-65.6738 107.91-64.5508 107.91-61.4746L107.91-21.0938L102.881-27.3926L102.49-27.832C98.6328-31.6895 93.2617-31.5918 89.5508-27.832C85.8398-24.0234 85.6934-18.75 89.5508-14.8926L107.373 2.92969C113.477 9.0332 120.703 8.93555 126.758 2.92969L144.531-14.8926C148.389-18.75 148.291-24.0234 144.531-27.832C140.82-31.5918 135.449-31.6895 131.641-27.832L131.201-27.3926L126.221-21.0938L126.221-64.4043C126.221-76.6602 118.945-83.9355 106.689-83.9355ZM15.2832-42.5781C18.9941-38.7695 24.3652-38.7207 28.2227-42.5781L28.6133-42.9688L33.6426-49.3164L33.6426-5.95703C33.6426 6.29883 40.918 13.5742 53.1738 13.5742L83.3496 13.5742C88.6719 13.5742 92.627 9.7168 92.627 4.39453C92.627-0.878906 88.6719-4.73633 83.3496-4.73633L56.1035-4.73633C53.2715-4.73633 51.9531-5.81055 51.9531-8.88672L51.9531-49.3164L56.9336-42.9688L57.373-42.5781C61.1816-38.7207 66.5527-38.7695 70.2637-42.5781C74.0234-46.3379 74.1211-51.6602 70.2637-55.5176L52.4902-73.291C46.3867-79.3945 39.1113-79.3457 33.1055-73.291L15.2832-55.5176C11.4258-51.6602 11.5723-46.3379 15.2832-42.5781Z"/>
  </g>
  <g id="Heavy-M" transform="matrix(1 0 0 1 2558.42 1126)">
   <path d="M104.932-83.0566L72.5098-83.0566C67.7734-83.0566 64.4043-79.7852 64.4043-75.1465C64.4043-70.5078 67.7734-67.2363 72.5098-67.2363L102.686-67.2363C105.957-67.2363 107.666-65.7715 107.666-62.207L107.666-18.8477L102.1-25.5371L100.684-26.9043C97.3633-30.2246 92.7246-30.2246 89.4531-26.9531C86.2305-23.6816 86.1328-19.043 89.502-15.7227L106.982 1.75781C112.402 7.12891 118.75 7.08008 124.121 1.75781L141.602-15.7227C144.971-19.043 144.873-23.6816 141.65-26.9531C138.428-30.2246 133.789-30.2246 130.42-26.9043L129.004-25.5371L123.486-18.8477L123.486-64.5508C123.486-76.3184 116.699-83.0566 104.932-83.0566ZM14.8926-43.457C18.1641-40.1855 22.8027-40.1367 26.123-43.457L27.5391-44.873L33.0566-51.5625L33.0566-5.81055C33.0566 5.9082 39.8438 12.6465 51.6113 12.6465L84.0332 12.6465C88.7695 12.6465 92.1875 9.375 92.1387 4.73633C92.1387 0.0976562 88.7695-3.17383 84.0332-3.17383L53.9062-3.17383C50.5859-3.17383 48.9258-4.63867 48.9258-8.1543L48.9258-51.5625L54.4434-44.873L55.8594-43.457C59.2285-40.1367 63.8672-40.1367 67.0898-43.457C70.3125-46.7285 70.4102-51.3184 67.041-54.6387L49.5605-72.1191C44.1406-77.5391 37.793-77.4902 32.4219-72.1191L14.9414-54.6387C11.6211-51.3184 11.6699-46.7285 14.8926-43.457Z"/>
  </g>
  <g id="Bold-M" transform="matrix(1 0 0 1 2263.54 1126)">
   <path d="M102.979-82.0312L68.0664-82.0312C63.9648-82.0312 61.1816-79.3945 61.2305-75.4883C61.2305-71.6309 63.9648-68.9453 68.0664-68.9453L101.465-68.9453C105.322-68.9453 107.373-67.1387 107.373-63.0371L107.373-16.3574L101.221-23.3887L98.6328-25.8789C95.8984-28.6133 92.041-28.7109 89.3555-25.9766C86.6699-23.2422 86.6699-19.3848 89.4043-16.6504L106.543 0.439453C111.182 5.07812 116.602 5.0293 121.191 0.439453L138.33-16.6504C141.113-19.3848 141.064-23.2422 138.379-25.9766C135.693-28.7109 131.836-28.6621 129.102-25.8789L126.562-23.3887L120.41-16.3574L120.41-64.6973C120.41-75.8789 114.209-82.0312 102.979-82.0312ZM14.502-44.4336C17.1875-41.6992 21.0449-41.748 23.7793-44.4824L26.3184-46.9727L32.4707-54.0039L32.4707-5.66406C32.4707 5.51758 38.6719 11.6699 49.8535 11.6699L84.8145 11.6699C88.916 11.6699 91.6504 9.0332 91.6504 5.12695C91.6016 1.2207 88.916-1.41602 84.8145-1.41602L51.416-1.41602C47.5586-1.41602 45.5078-3.27148 45.5078-7.32422L45.5078-54.0527L51.6602-46.9727L54.1992-44.4824C56.9824-41.748 60.791-41.6992 63.5254-44.4336C66.2109-47.1191 66.2109-50.9766 63.4766-53.7109L46.3379-70.8008C41.6992-75.4395 36.2793-75.4395 31.6895-70.8008L14.5508-53.7109C11.7676-50.9766 11.8164-47.1191 14.502-44.4336Z"/>
  </g>
  <g id="Semibold-M" transform="matrix(1 0 0 1 1968.1 1126)">
   <path d="M101.66-81.3477L64.9902-81.3477C61.377-81.3477 59.0332-79.1504 59.0332-75.7812C59.082-72.3633 61.377-70.166 64.9902-70.166L100.635-70.166C104.883-70.166 107.129-68.0664 107.129-63.623L107.129-14.5996L100.586-21.9238L97.2656-25.1953C94.9219-27.5391 91.6016-27.6367 89.3066-25.293C86.9629-22.9492 87.0117-19.6289 89.3555-17.2852L106.25-0.439453C110.352 3.61328 115.088 3.61328 119.189-0.439453L136.084-17.2852C138.428-19.6289 138.428-22.9492 136.133-25.293C133.838-27.6367 130.518-27.5391 128.174-25.1953L124.854-21.9238L118.311-14.6484L118.311-64.8438C118.311-75.5859 112.5-81.3477 101.66-81.3477ZM14.209-45.0684C16.5039-42.7734 19.8242-42.8223 22.168-45.166L25.4883-48.4375L32.0312-55.7129L32.0312-5.56641C32.0312 5.22461 37.8418 10.9863 48.6816 10.9863L85.3516 10.9863C88.9648 10.9863 91.3086 8.74023 91.3086 5.37109C91.2598 2.00195 88.9648-0.195312 85.3516-0.195312L49.707-0.195312C45.459-0.195312 43.2129-2.34375 43.2129-6.78711L43.2129-55.7617L49.7559-48.4375L53.0762-45.166C55.4199-42.8711 58.7402-42.7246 61.0352-45.0684C63.3789-47.4121 63.3301-50.7324 60.9863-53.0762L44.0918-69.9219C39.9902-74.0234 35.2539-73.9746 31.1523-69.9219L14.2578-53.0762C11.9141-50.7324 11.9141-47.4121 14.209-45.0684Z"/>
  </g>
  <g id="Medium-M" transform="matrix(1 0 0 1 1672.34 1126)">
   <path d="M100.635-80.8105L62.6465-80.8105C59.375-80.8105 57.3242-78.9551 57.373-75.9766C57.4219-72.9492 59.375-71.0938 62.6465-71.0938L100-71.0938C104.541-71.0938 106.982-68.75 106.982-64.0137L106.982-13.2812L100.098-20.8008L96.1914-24.6582C94.1406-26.6602 91.2598-26.8555 89.2578-24.7559C87.207-22.7539 87.2559-19.8242 89.3066-17.7734L106.006-1.12305C109.717 2.53906 113.965 2.53906 117.676-1.12305L134.326-17.7734C136.426-19.8242 136.475-22.7539 134.424-24.7559C132.373-26.8066 129.541-26.709 127.441-24.6582L123.535-20.8008L116.748-13.3301L116.748-64.8926C116.748-75.3906 111.182-80.8105 100.635-80.8105ZM13.9648-45.6055C16.0156-43.5547 18.8965-43.6523 20.9473-45.7031L24.8535-49.5605L31.6895-57.0312L31.6895-5.46875C31.6895 4.98047 37.207 10.4492 47.7539 10.4492L85.791 10.4492C89.0137 10.4492 91.0645 8.59375 91.0156 5.56641C91.0156 2.58789 89.0137 0.732422 85.791 0.732422L48.3887 0.732422C43.8965 0.732422 41.4062-1.61133 41.4062-6.34766L41.4062-57.0801L48.291-49.5605L52.1973-45.7031C54.2969-43.7012 57.1289-43.5547 59.1797-45.6055C61.1816-47.6562 61.1816-50.5371 59.082-52.5879L42.3828-69.2383C38.6719-72.9004 34.4727-72.9004 30.7617-69.2383L14.0625-52.5879C12.0117-50.5371 11.9629-47.6562 13.9648-45.6055Z"/>
  </g>
  <g id="Regular-M" transform="matrix(1 0 0 1 1376.9 1126)">
   <path d="M99.3164-80.127L59.5703-80.127C56.7871-80.127 55.1758-78.7109 55.2246-76.2207C55.2734-73.7305 56.7871-72.2656 59.5703-72.2656L99.2188-72.2656C104.102-72.2656 106.787-69.6777 106.787-64.5996L106.787-11.5723L99.5117-19.3848L94.8242-23.9746C93.1641-25.5859 90.8691-25.7812 89.1602-24.1211C87.5-22.4609 87.5977-20.0684 89.2578-18.4082L105.713-2.05078C108.936 1.12305 112.451 1.12305 115.674-2.05078L132.08-18.4082C133.789-20.0684 133.838-22.4609 132.227-24.1211C130.566-25.7812 128.223-25.6348 126.562-23.9746L121.875-19.3848L114.648-11.6211L114.648-64.9902C114.648-75.0977 109.521-80.127 99.3164-80.127ZM46.582 9.76562L86.3281 9.76562C89.1113 9.76562 90.7227 8.34961 90.6738 5.85938C90.625 3.32031 89.1113 1.9043 86.3281 1.9043L46.7285 1.9043C41.8457 1.9043 39.1113-0.683594 39.1113-5.76172L39.1113-58.7891L46.3867-51.0254L51.0742-46.3867C52.7344-44.7754 55.0781-44.5801 56.7383-46.2891C58.3984-47.9004 58.3008-50.293 56.6406-51.9531L40.1855-68.3594C37.0117-71.4844 33.4473-71.4844 30.2734-68.3594L13.8184-51.9531C12.1094-50.293 12.0605-47.9004 13.6719-46.2891C15.3809-44.5801 17.6758-44.7754 19.3359-46.3867L24.0234-51.0254L31.25-58.7402L31.25-5.37109C31.25 4.73633 36.4258 9.76562 46.582 9.76562Z"/>
  </g>
  <g id="Light-M" transform="matrix(1 0 0 1 1080.6 1126)">
   <path d="M99.0723-79.3945L56.5918-79.3945C54.541-79.3945 53.2715-78.2227 53.3203-76.3672C53.3203-74.4629 54.541-73.3398 56.5918-73.3398L98.9258-73.3398C104.443-73.3398 107.422-70.4102 107.422-64.7949L107.422-10.498L98.9746-19.3848L93.5547-24.7559C92.2852-25.9277 90.4785-26.1719 89.209-24.8535C87.8906-23.584 87.9883-21.7285 89.3066-20.459L106.543-3.22266C109.033-0.830078 111.816-0.830078 114.258-3.22266L131.543-20.459C132.812-21.7285 132.91-23.584 131.641-24.8535C130.322-26.123 128.564-26.0254 127.246-24.7559L121.826-19.3848L113.477-10.5469L113.477-65.0879C113.477-74.5605 108.594-79.3945 99.0723-79.3945ZM45.9961 9.0332L88.4277 9.0332C90.5273 9.0332 91.7969 7.91016 91.748 6.00586C91.6992 4.15039 90.5273 2.97852 88.4277 2.97852L46.0938 2.97852C40.625 2.97852 37.6465 0.0976562 37.6465-5.56641L37.6465-59.8145L46.0449-50.9766L51.5137-45.6055C52.7832-44.3848 54.541-44.1895 55.8594-45.459C57.1289-46.7773 57.0801-48.584 55.7617-49.8535L38.4766-67.0898C36.0352-69.5312 33.252-69.5312 30.8105-67.0898L13.5254-49.8535C12.207-48.584 12.1094-46.7773 13.4277-45.459C14.6973-44.1895 16.5039-44.3359 17.7734-45.6055L23.2422-50.9766L31.5918-59.8145L31.5918-5.22461C31.5918 4.19922 36.4746 9.0332 45.9961 9.0332Z"/>
  </g>
  <g id="Thin-M" transform="matrix(1 0 0 1 784.474 1126)">
   <path d="M98.7305-78.3691L52.6855-78.3691C51.5137-78.3691 50.7324-77.6367 50.7812-76.5625C50.7812-75.4883 51.5137-74.7559 52.6855-74.7559L98.584-74.7559C104.932-74.7559 108.252-71.4355 108.252-65.0391L108.252-9.08203L98.291-19.3848L91.8457-25.7324C91.1133-26.416 90.0391-26.6602 89.2578-25.8789C88.3789-25.0488 88.5254-23.9746 89.3066-23.1934L107.666-4.83398C109.131-3.36914 110.938-3.36914 112.402-4.83398L130.762-23.1934C131.543-23.9746 131.689-25.0488 130.811-25.8789C130.078-26.6113 129.004-26.5137 128.223-25.7324L121.777-19.3848L111.865-9.08203L111.865-65.2344C111.865-73.877 107.373-78.3691 98.7305-78.3691ZM45.2148 8.05664L91.2598 8.05664C92.3828 8.05664 93.1641 7.32422 93.1641 6.25C93.1641 5.17578 92.3828 4.44336 91.2598 4.44336L45.3125 4.44336C38.9648 4.44336 35.6445 1.12305 35.6445-5.22461L35.6445-61.2305L45.6055-50.9277L52.0508-44.5312C52.7832-43.8477 53.8574-43.6035 54.6875-44.4336C55.5176-45.2637 55.3711-46.2891 54.5898-47.0703L36.2305-65.4297C34.7656-66.8945 32.959-66.8945 31.543-65.4297L13.1348-47.0703C12.3535-46.2891 12.2559-45.2637 13.0859-44.4336C13.8184-43.6523 14.8926-43.75 15.7227-44.5312L22.168-50.9277L32.0312-61.2305L32.0312-5.0293C32.0312 3.56445 36.5723 8.05664 45.2148 8.05664Z"/>
  </g>
  <g id="Ultralight-M" transform="matrix(1 0 0 1 488.056 1126)">
   <path d="M98.5352-77.832L50.6348-77.832C50-77.832 49.4629-77.2949 49.4629-76.6602C49.4629-75.9766 50-75.4395 50.6348-75.4395L98.3887-75.4395C105.176-75.4395 108.691-71.9727 108.691-65.1855L108.691-8.34961L111.084-8.34961L111.084-65.2832C111.084-73.4863 106.738-77.832 98.5352-77.832ZM12.8906-43.8965C13.3789-43.4082 14.1113-43.457 14.6484-43.9941L21.582-50.8789L32.2266-61.9141L34.668-61.9141L45.3613-50.8789L52.3438-43.9941C52.7832-43.6035 53.5156-43.3594 54.0527-43.8965C54.6875-44.4824 54.541-45.1172 54.0039-45.6543L35.0586-64.5996C34.1309-65.5762 32.8613-65.5762 31.8848-64.5996L12.9395-45.6543C12.4023-45.1172 12.3047-44.4824 12.8906-43.8965ZM44.7754 7.56836L92.6758 7.56836C93.3105 7.56836 93.8477 7.03125 93.8477 6.39648C93.8965 5.71289 93.3105 5.17578 92.6758 5.17578L44.9219 5.17578C38.1348 5.17578 34.668 1.66016 34.668-5.07812L34.668-61.9141L32.2754-61.9141L32.2754-4.98047C32.2754 3.22266 36.6211 7.56836 44.7754 7.56836ZM130.42-26.3672C129.932-26.8555 129.248-26.8066 128.711-26.2695L121.729-19.3848L111.084-8.34961L108.691-8.34961L97.9492-19.3848L91.0156-26.2695C90.5273-26.6602 89.7949-26.9531 89.2578-26.3672C88.6719-25.7812 88.7695-25.1465 89.3066-24.6094L108.252-5.66406C109.229-4.6875 110.498-4.6875 111.426-5.66406L130.371-24.6094C130.908-25.1465 131.055-25.7812 130.42-26.3672Z"/>
  </g>
  <g id="Black-S" transform="matrix(1 0 0 1 2870.9 696)">
   <path d="M83.4473-73.3398L59.668-73.3398C55.5176-73.3398 52.4902-70.3613 52.4902-66.2598C52.4902-62.1582 55.5176-59.1797 59.668-59.1797L81.2012-59.1797C83.4473-59.1797 84.5215-58.3008 84.5215-55.8594L84.5215-23.9746L80.5664-28.9551L80.1758-29.3457C77.1973-32.3242 73.0469-32.2754 70.166-29.3457C67.2852-26.416 67.1875-22.3145 70.166-19.3359L84.082-5.41992C88.8184-0.683594 94.4336-0.732422 99.1211-5.41992L113.037-19.3359C116.016-22.3145 115.918-26.416 113.037-29.3457C110.156-32.2754 106.006-32.3242 103.027-29.3457L102.637-28.9551L98.6816-23.9746L98.6816-58.1055C98.6816-67.6758 93.0176-73.3398 83.4473-73.3398ZM41.5527 2.92969L65.332 2.92969C69.4824 2.92969 72.5098-0.0488281 72.5098-4.15039C72.5098-8.25195 69.4824-11.2305 65.332-11.2305L43.7988-11.2305C41.5527-11.2305 40.4785-12.1094 40.4785-14.5508L40.4785-46.4355L44.4336-41.4551L44.8242-41.0645C47.8027-38.0859 51.9531-38.1348 54.834-41.0645C57.7148-43.9941 57.8125-48.0957 54.834-51.0742L40.918-64.9902C36.1816-69.7266 30.5664-69.6777 25.8789-64.9902L11.9629-51.0742C8.98438-48.0957 9.08203-43.9941 11.9629-41.0645C14.8438-38.1348 18.9941-38.0859 21.9727-41.0645L22.3633-41.4551L26.3184-46.4355L26.3184-12.3047C26.3184-2.73438 31.9824 2.92969 41.5527 2.92969Z"/>
  </g>
  <g id="Heavy-S" transform="matrix(1 0 0 1 2575.41 696)">
   <path d="M82.1289-72.7539L56.9336-72.7539C53.1738-72.7539 50.5371-70.166 50.5371-66.5039C50.5371-62.8418 53.1738-60.2539 56.9336-60.2539L80.4199-60.2539C82.959-60.2539 84.2285-59.1309 84.2285-56.3965L84.2285-22.4121L79.9805-27.4902L78.9062-28.5645C76.3184-31.2012 72.6562-31.2012 70.0684-28.6133C67.5293-26.0254 67.4805-22.3633 70.1172-19.7266L83.6914-6.20117C87.9883-1.9043 93.0176-1.95312 97.2656-6.20117L110.84-19.7266C113.477-22.3633 113.428-26.0254 110.889-28.6133C108.301-31.2012 104.639-31.2012 102.002-28.5645L100.928-27.4902L96.7285-22.4121L96.7285-58.2031C96.7285-67.4316 91.4062-72.7539 82.1289-72.7539ZM40.4297 2.34375L65.625 2.34375C69.3848 2.34375 72.0703-0.244141 72.0215-3.90625C72.0215-7.56836 69.3848-10.1562 65.625-10.1562L42.1387-10.1562C39.5996-10.1562 38.3301-11.2793 38.3301-14.0137L38.3301-47.998L42.5781-42.9199L43.6523-41.8457C46.2891-39.209 49.9023-39.209 52.4902-41.7969C55.0293-44.3848 55.0781-48.0469 52.4414-50.6836L38.8672-64.209C34.5703-68.5059 29.541-68.457 25.293-64.209L11.7188-50.6836C9.08203-48.0469 9.13086-44.3848 11.7188-41.7969C14.2578-39.209 17.9199-39.209 20.5566-41.8457L21.6309-42.9199L25.8301-47.998L25.8301-12.207C25.8301-2.97852 31.1523 2.34375 40.4297 2.34375Z"/>
  </g>
  <g id="Bold-S" transform="matrix(1 0 0 1 2280.07 696)">
   <path d="M80.6641-72.0703L53.9062-72.0703C50.5371-72.0703 48.291-69.9219 48.3398-66.748C48.3398-63.5742 50.5371-61.4746 53.9062-61.4746L79.4922-61.4746C82.373-61.4746 83.9355-60.0586 83.9355-56.9824L83.9355-20.6055L79.3945-25.8789L77.5391-27.6855C75.293-29.9316 72.168-29.9805 69.9707-27.7344C67.8223-25.5371 67.7734-22.4121 70.0195-20.2148L83.252-7.03125C87.0117-3.27148 91.4062-3.27148 95.2148-7.03125L108.398-20.2148C110.645-22.4121 110.596-25.5371 108.447-27.7344C106.25-29.9805 103.125-29.9316 100.879-27.6855L99.0723-25.8789L94.5312-20.6543L94.5312-58.3008C94.5312-67.1875 89.5996-72.0703 80.6641-72.0703ZM39.1602 1.66016L65.9668 1.66016C69.2871 1.66016 71.5332-0.488281 71.5332-3.66211C71.4844-6.83594 69.2871-8.93555 65.9668-8.93555L40.332-8.93555C37.4512-8.93555 35.8887-10.3516 35.8887-13.4277L35.8887-49.8047L40.4785-44.5312L42.2852-42.7246C44.5312-40.4785 47.6562-40.4297 49.8535-42.6758C52.002-44.873 52.0508-47.998 49.8047-50.1953L36.6211-63.3789C32.8125-67.1387 28.418-67.1387 24.6582-63.3789L11.4258-50.1953C9.17969-47.998 9.22852-44.873 11.377-42.6758C13.5742-40.4297 16.6992-40.4785 18.9453-42.7246L20.8008-44.5312L25.293-49.7559L25.293-12.1094C25.293-3.22266 30.2246 1.66016 39.1602 1.66016Z"/>
  </g>
  <g id="Semibold-S" transform="matrix(1 0 0 1 1984.28 696)">
   <path d="M79.6875-71.582L51.7578-71.582C48.7305-71.582 46.7773-69.7754 46.8262-66.9434C46.8262-64.1113 48.7305-62.3047 51.7578-62.3047L78.9062-62.3047C82.0312-62.3047 83.6914-60.6934 83.6914-57.4219L83.6914-19.3848L78.9551-24.7559L76.5625-27.0996C74.6094-29.0527 71.875-29.1016 69.9219-27.1484C68.0176-25.2441 68.0176-22.4609 69.9707-20.5078L82.9102-7.61719C86.377-4.19922 90.332-4.19922 93.75-7.61719L106.689-20.5078C108.691-22.4609 108.691-25.2441 106.787-27.1484C104.834-29.1016 102.1-29.0527 100.146-27.0996L97.7539-24.7559L93.0176-19.4336L93.0176-58.3984C93.0176-67.041 88.3789-71.582 79.6875-71.582ZM38.2812 1.17188L66.1621 1.17188C69.2383 1.17188 71.1914-0.634766 71.1426-3.4668C71.0938-6.29883 69.2383-8.10547 66.1621-8.10547L39.0625-8.10547C35.9375-8.10547 34.2285-9.7168 34.2285-12.9883L34.2285-51.0254L39.0137-45.6543L41.4062-43.3105C43.3594-41.3574 46.0938-41.3086 48.0469-43.2617C49.9512-45.166 49.9512-47.9492 47.9492-49.9023L35.0098-62.793C31.5918-66.2109 27.6367-66.2109 24.1699-62.793L11.2793-49.9023C9.27734-47.9492 9.27734-45.166 11.1816-43.2617C13.1348-41.3086 15.8691-41.3574 17.8223-43.3105L20.2148-45.6543L24.9512-50.9766L24.9512-12.0117C24.9512-3.36914 29.5898 1.17188 38.2812 1.17188Z"/>
  </g>
  <g id="Medium-S" transform="matrix(1 0 0 1 1688.28 696)">
   <path d="M78.9062-71.2402L50.1953-71.2402C47.3633-71.2402 45.6055-69.6777 45.6543-67.0898C45.7031-64.502 47.3633-62.9395 50.1953-62.9395L78.418-62.9395C81.7383-62.9395 83.5449-61.1816 83.5449-57.7148L83.5449-18.457L78.6133-23.9258L75.8301-26.6602C74.0723-28.3691 71.6309-28.4668 69.873-26.709C68.1641-25 68.1641-22.5098 69.9707-20.752L82.7148-8.05664C85.8887-4.88281 89.502-4.88281 92.6758-8.05664L105.42-20.752C107.178-22.5098 107.227-25 105.518-26.709C103.76-28.4668 101.318-28.3691 99.5605-26.6602L96.7773-23.9258L91.8457-18.5059L91.8457-58.4473C91.8457-66.8945 87.4512-71.2402 78.9062-71.2402ZM37.5977 0.830078L66.3574 0.830078C69.1895 0.830078 70.8984-0.732422 70.8496-3.32031C70.8496-5.9082 69.1895-7.4707 66.3574-7.4707L38.0859-7.4707C34.8145-7.4707 33.0078-9.22852 33.0078-12.6953L33.0078-51.9531L37.9395-46.4844L40.7227-43.75C42.4805-42.041 44.9219-41.9434 46.6797-43.7012C48.3887-45.4102 48.3398-47.9004 46.582-49.6582L33.8379-62.3535C30.6641-65.5273 27.0508-65.5273 23.8281-62.3535L11.1328-49.6582C9.32617-47.9004 9.32617-45.4102 11.0352-43.7012C12.793-41.9434 15.2344-42.041 16.9922-43.75L19.7754-46.4844L24.6582-51.9043L24.6582-11.9629C24.6582-3.51562 29.1016 0.830078 37.5977 0.830078Z"/>
  </g>
  <g id="Regular-S" transform="matrix(1 0 0 1 1392.5 696)">
   <path d="M77.9297-70.8008L48.0957-70.8008C45.5566-70.8008 44.1406-69.5312 44.1895-67.2363C44.1895-64.9902 45.5566-63.7207 48.0957-63.7207L77.832-63.7207C81.3477-63.7207 83.3496-61.8164 83.3496-58.1543L83.3496-17.2363L78.1738-22.8027L74.9023-26.0254C73.3887-27.4902 71.3379-27.6367 69.8242-26.123C68.3594-24.707 68.4082-22.5098 69.9219-21.0938L82.373-8.64258C85.2539-5.81055 88.4277-5.81055 91.2598-8.64258L103.76-21.0938C105.273-22.5098 105.322-24.707 103.857-26.123C102.344-27.6367 100.293-27.4902 98.7793-26.0254L95.459-22.8027L90.3809-17.2852L90.3809-58.4961C90.3809-66.6992 86.2305-70.8008 77.9297-70.8008ZM36.7676 0.390625L66.5527 0.390625C69.0918 0.390625 70.5566-0.878906 70.5078-3.125C70.459-5.37109 69.0918-6.68945 66.5527-6.68945L36.8652-6.68945C33.3496-6.68945 31.3477-8.54492 31.3477-12.2559L31.3477-53.1738L36.5234-47.6074L39.7949-44.3359C41.3086-42.9199 43.3594-42.7734 44.873-44.2383C46.3379-45.7031 46.2891-47.9004 44.7754-49.3164L32.2754-61.7676C29.4434-64.5996 26.2695-64.5996 23.3887-61.7676L10.9375-49.3164C9.42383-47.9004 9.375-45.7031 10.8398-44.2383C12.3535-42.7734 14.4043-42.9199 15.918-44.3359L19.1895-47.6074L24.3164-53.125L24.3164-11.9141C24.3164-3.71094 28.4668 0.390625 36.7676 0.390625Z"/>
  </g>
  <g id="Light-S" transform="matrix(1 0 0 1 1096.18 696)">
   <path d="M77.6855-70.1172L45.459-70.1172C43.5547-70.1172 42.4316-69.0918 42.4805-67.3828C42.4805-65.6738 43.5547-64.6973 45.459-64.6973L77.5879-64.6973C81.6406-64.6973 83.8867-62.5 83.8867-58.3008L83.8867-16.2598L77.7344-22.8027L73.7305-26.709C72.6074-27.832 70.9961-27.9785 69.8242-26.8066C68.7012-25.6836 68.75-24.0234 69.9219-22.9004L83.1543-9.7168C85.3516-7.51953 87.8418-7.51953 90.0391-9.7168L103.223-22.9004C104.395-24.0234 104.492-25.6836 103.32-26.8066C102.148-27.9785 100.586-27.832 99.4141-26.709L95.459-22.8027L89.3066-16.3086L89.3066-58.5938C89.3066-66.2598 85.4004-70.1172 77.6855-70.1172ZM36.2305-0.292969L68.457-0.292969C70.3613-0.292969 71.4844-1.26953 71.4355-2.97852C71.4355-4.6875 70.3613-5.71289 68.457-5.71289L36.3281-5.71289C32.2754-5.71289 30.0293-7.86133 30.0293-12.0605L30.0293-54.1016L36.1816-47.5586L40.1367-43.6523C41.3086-42.5781 42.9199-42.3828 44.0918-43.5547C45.2148-44.7266 45.166-46.3379 43.9941-47.5098L30.7617-60.6934C28.5645-62.8418 26.0742-62.8418 23.877-60.6934L10.6934-47.5098C9.52148-46.3379 9.42383-44.7266 10.5957-43.5547C11.7676-42.4316 13.3301-42.5293 14.502-43.6523L18.457-47.5586L24.6094-54.0527L24.6094-11.7676C24.6094-4.15039 28.5156-0.292969 36.2305-0.292969Z"/>
  </g>
  <g id="Thin-S" transform="matrix(1 0 0 1 799.977 696)">
   <path d="M77.3926-69.2383L41.9922-69.2383C40.918-69.2383 40.1855-68.5547 40.2344-67.5781C40.2344-66.5527 40.918-65.918 41.9922-65.918L77.2949-65.918C82.0801-65.918 84.6191-63.3789 84.6191-58.5449L84.6191-14.9902L77.0996-22.8027L72.2656-27.5879C71.582-28.2227 70.6055-28.418 69.873-27.6855C69.1406-26.9531 69.2383-25.9766 69.9219-25.293L84.1309-11.1328C85.4492-9.81445 87.0605-9.81445 88.3789-11.1328L102.539-25.293C103.271-25.9766 103.369-26.9531 102.637-27.6855C101.953-28.3691 100.977-28.3203 100.244-27.5879L95.3613-22.8027L87.9395-15.0391L87.9395-58.6914C87.9395-65.625 84.3262-69.2383 77.3926-69.2383ZM35.5469-1.12305L70.9473-1.12305C71.9727-1.12305 72.7051-1.75781 72.7051-2.7832C72.6562-3.75977 71.9727-4.44336 70.9473-4.44336L35.6445-4.44336C30.8105-4.44336 28.2715-6.93359 28.2715-11.8164L28.2715-55.3223L35.791-47.5586L40.625-42.7246C41.3086-42.0898 42.2852-41.8945 43.0176-42.627C43.75-43.3594 43.7012-44.3359 42.9688-45.0684L28.7598-59.2285C27.4414-60.5469 25.8789-60.5469 24.5117-59.2285L10.3516-45.0684C9.61914-44.3359 9.52148-43.3594 10.3027-42.627C10.9863-41.9434 11.9629-42.041 12.6465-42.7246L17.5293-47.5586L25-55.3223L25-11.6211C25-4.6875 28.6133-1.12305 35.5469-1.12305Z"/>
  </g>
  <g id="Ultralight-S" transform="matrix(1 0 0 1 503.51 696)">
   <path d="M77.1973-68.75L40.1855-68.75C39.5508-68.75 39.0625-68.2617 39.0625-67.6758C39.0625-67.041 39.5508-66.5527 40.1855-66.5527L77.0996-66.5527C82.3242-66.5527 85.0098-63.8672 85.0098-58.6426L85.0098-14.3555L76.8066-22.8027L71.4844-28.0762C71.0449-28.4668 70.4102-28.6621 69.9219-28.1738C69.3848-27.6367 69.4824-27.002 69.9707-26.5137L84.6191-11.8652C85.498-10.9863 86.6699-10.9863 87.5488-11.8652L102.197-26.5137C102.686-27.002 102.783-27.6367 102.246-28.1738C101.807-28.6133 101.172-28.5645 100.684-28.0762L95.3613-22.8027L87.207-14.3555L87.207-58.7891C87.207-65.2832 83.7402-68.75 77.1973-68.75ZM35.1562-1.5625L72.2168-1.5625C72.8516-1.5625 73.3398-2.05078 73.3398-2.68555C73.3398-3.27148 72.8516-3.75977 72.2168-3.75977L35.2539-3.75977C30.0781-3.75977 27.3926-6.44531 27.3926-11.6699L27.3926-55.957L35.5957-47.5098L40.918-42.2363C41.3574-41.8457 41.9922-41.6504 42.4805-42.1387C43.0176-42.6758 42.9199-43.3105 42.4316-43.7988L27.7344-58.4961C26.8555-59.375 25.7324-59.375 24.8535-58.4961L10.1562-43.7988C9.66797-43.3105 9.57031-42.6758 10.1074-42.1387C10.5957-41.6992 11.2305-41.748 11.7188-42.2363L17.041-47.5098L25.1953-55.957L25.1953-11.5234C25.1953-5.0293 28.6133-1.5625 35.1562-1.5625Z"/>
  </g>
 </g>
</svg>
