<?xml version="1.0" encoding="UTF-8"?>
<!--Generator: Apple Native CoreSVG 149-->
<!DOCTYPE svg
PUBLIC "-//W3C//DTD SVG 1.1//EN"
       "http://www.w3.org/Graphics/SVG/1.1/DTD/svg11.dtd">
<svg version="1.1" xmlns="http://www.w3.org/2000/svg" xmlns:xlink="http://www.w3.org/1999/xlink" width="3300" height="2200">
 <!--glyph: "uni1001A8.medium", point size: 100.000000, font version: "Version 16.0d12e3", template writer version: "8"-->
 <g id="Notes">
  <rect height="2200" id="artboard" style="fill:white;opacity:1" width="3300" x="0" y="0"/>
  <line id="" style="fill:none;stroke:black;opacity:1;stroke-width:0.5;" x1="263" x2="3036" y1="292" y2="292"/>
  <text style="stroke:none;fill:black;font-family:-apple-system,&quot;SF Pro Display&quot;,&quot;SF Pro Text&quot;,Helvetica,sans-serif;font-weight:bold;" transform="matrix(1 0 0 1 263 322)">Weight/Scale Variations</text>
  <text style="stroke:none;fill:black;font-family:-apple-system,&quot;SF Pro Display&quot;,&quot;SF Pro Text&quot;,Helvetica,sans-serif;text-anchor:middle;" transform="matrix(1 0 0 1 559.711 322)">Ultralight</text>
  <text style="stroke:none;fill:black;font-family:-apple-system,&quot;SF Pro Display&quot;,&quot;SF Pro Text&quot;,Helvetica,sans-serif;text-anchor:middle;" transform="matrix(1 0 0 1 856.422 322)">Thin</text>
  <text style="stroke:none;fill:black;font-family:-apple-system,&quot;SF Pro Display&quot;,&quot;SF Pro Text&quot;,Helvetica,sans-serif;text-anchor:middle;" transform="matrix(1 0 0 1 1153.13 322)">Light</text>
  <text style="stroke:none;fill:black;font-family:-apple-system,&quot;SF Pro Display&quot;,&quot;SF Pro Text&quot;,Helvetica,sans-serif;text-anchor:middle;" transform="matrix(1 0 0 1 1449.84 322)">Regular</text>
  <text style="stroke:none;fill:black;font-family:-apple-system,&quot;SF Pro Display&quot;,&quot;SF Pro Text&quot;,Helvetica,sans-serif;text-anchor:middle;" transform="matrix(1 0 0 1 1746.56 322)">Medium</text>
  <text style="stroke:none;fill:black;font-family:-apple-system,&quot;SF Pro Display&quot;,&quot;SF Pro Text&quot;,Helvetica,sans-serif;text-anchor:middle;" transform="matrix(1 0 0 1 2043.27 322)">Semibold</text>
  <text style="stroke:none;fill:black;font-family:-apple-system,&quot;SF Pro Display&quot;,&quot;SF Pro Text&quot;,Helvetica,sans-serif;text-anchor:middle;" transform="matrix(1 0 0 1 2339.98 322)">Bold</text>
  <text style="stroke:none;fill:black;font-family:-apple-system,&quot;SF Pro Display&quot;,&quot;SF Pro Text&quot;,Helvetica,sans-serif;text-anchor:middle;" transform="matrix(1 0 0 1 2636.69 322)">Heavy</text>
  <text style="stroke:none;fill:black;font-family:-apple-system,&quot;SF Pro Display&quot;,&quot;SF Pro Text&quot;,Helvetica,sans-serif;text-anchor:middle;" transform="matrix(1 0 0 1 2933.4 322)">Black</text>
  <line id="" style="fill:none;stroke:black;opacity:1;stroke-width:0.5;" x1="263" x2="3036" y1="1903" y2="1903"/>
  <g id="" transform="matrix(1 0 0 1 263 1933)">
   <path d="M9.24805 0.830078C13.5547 0.830078 17.1387-2.74414 17.1387-7.05078C17.1387-11.3574 13.5449-14.9316 9.23828-14.9316C4.94141-14.9316 1.36719-11.3574 1.36719-7.05078C1.36719-2.74414 4.95117 0.830078 9.24805 0.830078ZM9.24805-0.654297C5.70312-0.654297 2.87109-3.49609 2.87109-7.05078C2.87109-10.6055 5.69336-13.4473 9.23828-13.4473C12.793-13.4473 15.6348-10.6055 15.6445-7.05078C15.6543-3.49609 12.8027-0.654297 9.24805-0.654297ZM9.22852-3.62305C9.69727-3.62305 9.9707-3.93555 9.9707-4.45312L9.9707-6.31836L12.002-6.31836C12.5-6.31836 12.832-6.57227 12.832-7.04102C12.832-7.51953 12.5195-7.7832 12.002-7.7832L9.9707-7.7832L9.9707-9.81445C9.9707-10.332 9.69727-10.6543 9.22852-10.6543C8.75977-10.6543 8.50586-10.3125 8.50586-9.81445L8.50586-7.7832L6.49414-7.7832C5.97656-7.7832 5.64453-7.51953 5.64453-7.04102C5.64453-6.57227 5.99609-6.31836 6.49414-6.31836L8.50586-6.31836L8.50586-4.45312C8.50586-3.95508 8.75977-3.62305 9.22852-3.62305Z"/>
  </g>
  <g id="" transform="matrix(1 0 0 1 281.506 1933)">
   <path d="M11.709 2.91016C17.1582 2.91016 21.6699-1.61133 21.6699-7.05078C21.6699-12.5 17.1484-17.0117 11.6992-17.0117C6.25977-17.0117 1.74805-12.5 1.74805-7.05078C1.74805-1.61133 6.26953 2.91016 11.709 2.91016ZM11.709 1.25C7.09961 1.25 3.41797-2.44141 3.41797-7.05078C3.41797-11.6602 7.08984-15.3516 11.6992-15.3516C16.3086-15.3516 20-11.6602 20.0098-7.05078C20.0195-2.44141 16.3184 1.25 11.709 1.25ZM11.6797-2.66602C12.207-2.66602 12.5098-3.01758 12.5098-3.59375L12.5098-6.23047L15.3223-6.23047C15.8691-6.23047 16.25-6.51367 16.25-7.03125C16.25-7.55859 15.8887-7.86133 15.3223-7.86133L12.5098-7.86133L12.5098-10.6836C12.5098-11.25 12.207-11.6113 11.6797-11.6113C11.1621-11.6113 10.8789-11.2305 10.8789-10.6836L10.8789-7.86133L8.07617-7.86133C7.50977-7.86133 7.13867-7.55859 7.13867-7.03125C7.13867-6.51367 7.5293-6.23047 8.07617-6.23047L10.8789-6.23047L10.8789-3.59375C10.8789-3.03711 11.1621-2.66602 11.6797-2.66602Z"/>
  </g>
  <g id="" transform="matrix(1 0 0 1 304.924 1933)">
   <path d="M14.9707 5.66406C21.9336 5.66406 27.6953-0.0976562 27.6953-7.05078C27.6953-14.0137 21.9238-19.7754 14.9609-19.7754C8.00781-19.7754 2.25586-14.0137 2.25586-7.05078C2.25586-0.0976562 8.01758 5.66406 14.9707 5.66406ZM14.9707 3.84766C8.93555 3.84766 4.08203-1.01562 4.08203-7.05078C4.08203-13.0957 8.92578-17.9492 14.9609-17.9492C21.0059-17.9492 25.8594-13.0957 25.8691-7.05078C25.8789-1.01562 21.0156 3.84766 14.9707 3.84766ZM14.9414-1.38672C15.5176-1.38672 15.8594-1.77734 15.8594-2.38281L15.8594-6.13281L19.7754-6.13281C20.3711-6.13281 20.7812-6.46484 20.7812-7.02148C20.7812-7.59766 20.3906-7.93945 19.7754-7.93945L15.8594-7.93945L15.8594-11.8652C15.8594-12.4805 15.5176-12.8711 14.9414-12.8711C14.375-12.8711 14.0527-12.4609 14.0527-11.8652L14.0527-7.93945L10.1465-7.93945C9.53125-7.93945 9.13086-7.59766 9.13086-7.02148C9.13086-6.46484 9.55078-6.13281 10.1465-6.13281L14.0527-6.13281L14.0527-2.38281C14.0527-1.79688 14.375-1.38672 14.9414-1.38672Z"/>
  </g>
  <text style="stroke:none;fill:black;font-family:-apple-system,&quot;SF Pro Display&quot;,&quot;SF Pro Text&quot;,Helvetica,sans-serif;font-weight:bold;" transform="matrix(1 0 0 1 263 1953)">Design Variations</text>
  <text style="stroke:none;fill:black;font-family:-apple-system,&quot;SF Pro Display&quot;,&quot;SF Pro Text&quot;,Helvetica,sans-serif;" transform="matrix(1 0 0 1 263 1971)">Symbols are supported in up to nine weights and three scales.</text>
  <text style="stroke:none;fill:black;font-family:-apple-system,&quot;SF Pro Display&quot;,&quot;SF Pro Text&quot;,Helvetica,sans-serif;" transform="matrix(1 0 0 1 263 1989)">For optimal layout with text and other symbols, vertically align</text>
  <text style="stroke:none;fill:black;font-family:-apple-system,&quot;SF Pro Display&quot;,&quot;SF Pro Text&quot;,Helvetica,sans-serif;" transform="matrix(1 0 0 1 263 2007)">symbols with the adjacent text.</text>
  <line id="" style="fill:none;stroke:#00AEEF;stroke-width:0.5;opacity:1.0;" x1="776" x2="776" y1="1919" y2="1933"/>
  <g id="" transform="matrix(1 0 0 1 776 1933)">
   <path d="M3.31055 0.126953C3.82812 0.126953 4.08203-0.0683594 4.26758-0.605469L5.52734-4.0625L11.2891-4.0625L12.5488-0.605469C12.7344-0.0683594 12.9883 0.126953 13.4961 0.126953C14.0137 0.126953 14.3457-0.185547 14.3457-0.673828C14.3457-0.839844 14.3164-0.986328 14.2383-1.20117L9.6582-13.3887C9.43359-13.9941 9.0332-14.2871 8.4082-14.2871C7.80273-14.2871 7.39258-13.9941 7.17773-13.3984L2.59766-1.19141C2.51953-0.976562 2.49023-0.830078 2.49023-0.664062C2.49023-0.175781 2.80273 0.126953 3.31055 0.126953ZM6.00586-5.53711L8.37891-12.1094L8.42773-12.1094L10.8008-5.53711Z"/>
  </g>
  <line id="" style="fill:none;stroke:#00AEEF;stroke-width:0.5;opacity:1.0;" x1="792.836" x2="792.836" y1="1919" y2="1933"/>
  <text style="stroke:none;fill:black;font-family:-apple-system,&quot;SF Pro Display&quot;,&quot;SF Pro Text&quot;,Helvetica,sans-serif;font-weight:bold;" transform="matrix(1 0 0 1 776 1953)">Margins</text>
  <text style="stroke:none;fill:black;font-family:-apple-system,&quot;SF Pro Display&quot;,&quot;SF Pro Text&quot;,Helvetica,sans-serif;" transform="matrix(1 0 0 1 776 1971)">Leading and trailing margins on the left and right side of each symbol</text>
  <text style="stroke:none;fill:black;font-family:-apple-system,&quot;SF Pro Display&quot;,&quot;SF Pro Text&quot;,Helvetica,sans-serif;" transform="matrix(1 0 0 1 776 1989)">can be adjusted by modifying the x-location of the margin guidelines.</text>
  <text style="stroke:none;fill:black;font-family:-apple-system,&quot;SF Pro Display&quot;,&quot;SF Pro Text&quot;,Helvetica,sans-serif;" transform="matrix(1 0 0 1 776 2007)">Modifications are automatically applied proportionally to all</text>
  <text style="stroke:none;fill:black;font-family:-apple-system,&quot;SF Pro Display&quot;,&quot;SF Pro Text&quot;,Helvetica,sans-serif;" transform="matrix(1 0 0 1 776 2025)">scales and weights.</text>
  <g id="" transform="matrix(1 0 0 1 1289 1933)">
   <path d="M2.8418 1.86523L4.54102 3.57422C5.40039 4.44336 6.38672 4.38477 7.31445 3.35938L17.4902-7.85156C17.7539-7.76367 18.0273-7.7832 18.3398-7.8418L19.4043-8.03711L20.0684-7.36328L20.0293-6.80664C19.9902-6.30859 20.1172-5.92773 20.6055-5.44922L21.3672-4.70703C21.8457-4.22852 22.4609-4.19922 22.9297-4.66797L25.8398-7.58789C26.3086-8.05664 26.2891-8.65234 25.8105-9.13086L25.0391-9.89258C24.5605-10.3711 24.1895-10.5273 23.7109-10.4883L23.1348-10.4395L22.4902-11.0742L22.7344-12.1973C22.8613-12.7637 22.7051-13.2031 22.1191-13.7891L19.9219-15.9766C16.582-19.2969 12.1484-19.2188 9.25781-16.3281C8.83789-15.918 8.80859-15.3418 9.04297-14.9512C9.27734-14.5898 9.73633-14.3555 10.3809-14.5215C11.8457-14.8633 13.3691-14.9219 14.7949-13.9844L14.209-12.5293C14.0137-12.0508 13.9844-11.6504 14.1113-11.2891L3.04688-0.898438C2.06055 0.0195312 1.98242 0.996094 2.8418 1.86523ZM10.752-15.957C13.1836-17.7344 16.4746-17.4316 18.7012-15.2051L21.1328-12.793C21.3672-12.5586 21.4062-12.373 21.3379-12.0312L21.0156-10.5469L22.5195-9.0625L23.5059-9.12109C23.7598-9.13086 23.8379-9.11133 24.0332-8.91602L24.6094-8.33984L22.168-5.89844L21.5918-6.47461C21.3965-6.66992 21.3672-6.74805 21.377-7.01172L21.4453-7.98828L19.9512-9.47266L18.4277-9.21875C18.1055-9.15039 17.959-9.17969 17.7148-9.41406L15.7129-11.416C15.459-11.6504 15.4297-11.8164 15.5859-12.1875L16.4648-14.2773C14.9023-15.7324 12.8711-16.3574 10.8398-15.7617C10.6836-15.7227 10.625-15.8496 10.752-15.957ZM5.27344 2.30469L4.10156 1.14258C3.63281 0.683594 3.74023 0.341797 4.14062-0.0195312L14.9512-10.1953L16.416-8.71094L6.42578 2.27539C6.07422 2.67578 5.74219 2.77344 5.27344 2.30469Z"/>
  </g>
  <text style="stroke:none;fill:black;font-family:-apple-system,&quot;SF Pro Display&quot;,&quot;SF Pro Text&quot;,Helvetica,sans-serif;font-weight:bold;" transform="matrix(1 0 0 1 1289 1953)">Exporting</text>
  <text style="stroke:none;fill:black;font-family:-apple-system,&quot;SF Pro Display&quot;,&quot;SF Pro Text&quot;,Helvetica,sans-serif;" transform="matrix(1 0 0 1 1289 1971)">Symbols should be outlined when exporting to ensure the</text>
  <text style="stroke:none;fill:black;font-family:-apple-system,&quot;SF Pro Display&quot;,&quot;SF Pro Text&quot;,Helvetica,sans-serif;" transform="matrix(1 0 0 1 1289 1989)">design is preserved when submitting to Xcode.</text>
  <text id="template-version" style="stroke:none;fill:black;font-family:-apple-system,&quot;SF Pro Display&quot;,&quot;SF Pro Text&quot;,Helvetica,sans-serif;text-anchor:end;" transform="matrix(1 0 0 1 3036 1933)">Template v.2.0</text>
  <text style="stroke:none;fill:black;font-family:-apple-system,&quot;SF Pro Display&quot;,&quot;SF Pro Text&quot;,Helvetica,sans-serif;text-anchor:end;" transform="matrix(1 0 0 1 3036 1951)">Requires Xcode 12 or greater</text>
  <text style="stroke:none;fill:black;font-family:-apple-system,&quot;SF Pro Display&quot;,&quot;SF Pro Text&quot;,Helvetica,sans-serif;text-anchor:end;" transform="matrix(1 0 0 1 3036 1969)">Generated from power</text>
  <text style="stroke:none;fill:black;font-family:-apple-system,&quot;SF Pro Display&quot;,&quot;SF Pro Text&quot;,Helvetica,sans-serif;text-anchor:end;" transform="matrix(1 0 0 1 3036 1987)">Typeset at 100 points</text>
  <text style="stroke:none;fill:black;font-family:-apple-system,&quot;SF Pro Display&quot;,&quot;SF Pro Text&quot;,Helvetica,sans-serif;" transform="matrix(1 0 0 1 263 726)">Small</text>
  <text style="stroke:none;fill:black;font-family:-apple-system,&quot;SF Pro Display&quot;,&quot;SF Pro Text&quot;,Helvetica,sans-serif;" transform="matrix(1 0 0 1 263 1156)">Medium</text>
  <text style="stroke:none;fill:black;font-family:-apple-system,&quot;SF Pro Display&quot;,&quot;SF Pro Text&quot;,Helvetica,sans-serif;" transform="matrix(1 0 0 1 263 1586)">Large</text>
 </g>
 <g id="Guides">
  <g id="H-reference" style="fill:#27AAE1;stroke:none;" transform="matrix(1 0 0 1 339 696)">
   <path d="M0.976562 0L3.66211 0L12.9883-24.4629L45.752-24.4629L55.127 0L57.7637 0L30.6152-70.459L28.125-70.459ZM29.3457-67.1387L29.4434-67.1387L44.873-26.709L13.8672-26.709Z"/>
  </g>
  <line id="Baseline-S" style="fill:none;stroke:#27AAE1;opacity:1;stroke-width:0.5;" x1="263" x2="3036" y1="696" y2="696"/>
  <line id="Capline-S" style="fill:none;stroke:#27AAE1;opacity:1;stroke-width:0.5;" x1="263" x2="3036" y1="625.541" y2="625.541"/>
  <g id="H-reference" style="fill:#27AAE1;stroke:none;" transform="matrix(1 0 0 1 339 1126)">
   <path d="M0.976562 0L3.66211 0L12.9883-24.4629L45.752-24.4629L55.127 0L57.7637 0L30.6152-70.459L28.125-70.459ZM29.3457-67.1387L29.4434-67.1387L44.873-26.709L13.8672-26.709Z"/>
  </g>
  <line id="Baseline-M" style="fill:none;stroke:#27AAE1;opacity:1;stroke-width:0.5;" x1="263" x2="3036" y1="1126" y2="1126"/>
  <line id="Capline-M" style="fill:none;stroke:#27AAE1;opacity:1;stroke-width:0.5;" x1="263" x2="3036" y1="1055.54" y2="1055.54"/>
  <g id="H-reference" style="fill:#27AAE1;stroke:none;" transform="matrix(1 0 0 1 339 1556)">
   <path d="M0.976562 0L3.66211 0L12.9883-24.4629L45.752-24.4629L55.127 0L57.7637 0L30.6152-70.459L28.125-70.459ZM29.3457-67.1387L29.4434-67.1387L44.873-26.709L13.8672-26.709Z"/>
  </g>
  <line id="Baseline-L" style="fill:none;stroke:#27AAE1;opacity:1;stroke-width:0.5;" x1="263" x2="3036" y1="1556" y2="1556"/>
  <line id="Capline-L" style="fill:none;stroke:#27AAE1;opacity:1;stroke-width:0.5;" x1="263" x2="3036" y1="1485.54" y2="1485.54"/>
  <line id="left-margin" style="fill:none;stroke:#00AEEF;stroke-width:0.5;opacity:1.0;" x1="1391.3" x2="1391.3" y1="1030.79" y2="1150.12"/>
  <line id="right-margin" style="fill:none;stroke:#00AEEF;stroke-width:0.5;opacity:1.0;" x1="1508.39" x2="1508.39" y1="1030.79" y2="1150.12"/>
 </g>
 <g id="Symbols">
  <g id="Black-L" transform="matrix(1 0 0 1 2854.05 1556)">
   <path d="M79.3457-32.2754C86.1328-32.2754 90.5762-37.0117 90.5762-44.1895L90.5762-95.6055C90.5762-102.783 86.1328-107.52 79.3457-107.52C72.5586-107.52 68.1152-102.783 68.1152-95.6055L68.1152-44.1895C68.1152-37.0117 72.5586-32.2754 79.3457-32.2754ZM79.3457 32.8613C116.748 32.8613 147.412 2.19727 147.412-35.2051C147.412-53.2227 140.234-69.6777 129.395-81.0059C119.482-91.6016 103.76-79.3457 114.307-67.5293C122.168-59.082 126.953-47.7539 126.953-35.2051C127.002-8.83789 105.713 12.4023 79.3457 12.4023C52.9785 12.4023 31.7383-8.83789 31.7383-35.2051C31.7383-47.8027 36.5723-59.1309 44.3848-67.5293C54.9316-79.3457 39.209-91.6016 29.2969-81.0059C18.4082-69.6777 11.2793-53.2227 11.2793-35.2051C11.2793 2.19727 41.9434 32.8613 79.3457 32.8613Z"/>
  </g>
  <g id="Heavy-L" transform="matrix(1 0 0 1 2558.39 1556)">
   <path d="M78.2715-33.2031C84.082-33.2031 87.8906-37.2559 87.8906-43.3594L87.8906-96.1426C87.8906-102.295 84.082-106.348 78.2715-106.348C72.5098-106.348 68.7012-102.295 68.7012-96.1426L68.7012-43.3594C68.7012-37.2559 72.5098-33.2031 78.2715-33.2031ZM78.2715 31.7871C115.088 31.7871 145.312 1.5625 145.312-35.2051C145.312-53.6621 137.646-70.166 126.514-81.3477C117.822-90.4297 104.395-79.541 113.574-69.4824C122.217-60.6934 127.49-48.584 127.539-35.2051C127.539-7.95898 105.566 14.0137 78.2715 14.0137C51.0254 14.0137 29.0527-7.95898 29.0527-35.2051C29.1016-48.6816 34.375-60.6934 43.0176-69.5312C52.1973-79.5898 38.7207-90.4785 30.0293-81.3477C18.8965-70.166 11.2793-53.6621 11.2793-35.2051C11.2793 1.5625 41.5039 31.7871 78.2715 31.7871Z"/>
  </g>
  <g id="Bold-L" transform="matrix(1 0 0 1 2262.88 1556)">
   <path d="M77.0996-34.1797C81.7871-34.1797 84.8633-37.5 84.8633-42.3828L84.8633-96.8262C84.8633-101.758 81.7871-105.078 77.0996-105.078C72.4121-105.078 69.3359-101.758 69.3359-96.8262L69.3359-42.3828C69.3359-37.5 72.4121-34.1797 77.0996-34.1797ZM77.0996 30.5664C113.232 30.5664 142.92 0.878906 142.92-35.2539C142.92-54.1504 134.717-70.6543 123.34-81.6895C116.016-89.1602 105.078-79.7852 112.744-71.6797C122.266-62.4512 128.125-49.5605 128.174-35.2539C128.174-6.98242 105.371 15.8203 77.0996 15.8203C48.8281 15.8203 26.0742-6.98242 26.0742-35.2539C26.123-49.6582 31.9824-62.5 41.4551-71.7285C49.1211-79.834 38.1836-89.1602 30.9082-81.7383C19.4824-70.7031 11.2793-54.1504 11.2793-35.2539C11.2793 0.878906 41.0156 30.5664 77.0996 30.5664Z"/>
  </g>
  <g id="Semibold-L" transform="matrix(1 0 0 1 1966.97 1556)">
   <path d="M76.2695-34.8633C80.1758-34.8633 82.8125-37.6465 82.8125-41.748L82.8125-97.2656C82.8125-101.416 80.1758-104.15 76.2695-104.15C72.4121-104.15 69.7754-101.416 69.7754-97.2656L69.7754-41.748C69.7754-37.6465 72.4121-34.8633 76.2695-34.8633ZM76.2695 29.7363C111.914 29.7363 141.309 0.390625 141.309-35.2539C141.309-54.4922 132.715-71.0449 121.094-81.9336C114.746-88.2324 105.566-79.9316 112.158-73.1934C122.314-63.6719 128.564-50.2441 128.613-35.2539C128.662-6.25 105.273 17.041 76.2695 17.041C47.3145 17.041 24.0234-6.25 24.0234-35.2539C24.0723-50.3418 30.2734-63.7207 40.4297-73.2422C47.0215-80.0293 37.8418-88.2812 31.4941-81.9824C19.8242-71.0938 11.2793-54.4922 11.2793-35.2539C11.2793 0.390625 40.6738 29.7363 76.2695 29.7363Z"/>
  </g>
  <g id="Medium-L" transform="matrix(1 0 0 1 1670.87 1556)">
   <path d="M75.6836-35.4004C79.0039-35.4004 81.25-37.793 81.25-41.2598L81.25-97.6074C81.25-101.123 79.0039-103.516 75.6836-103.516C72.3633-103.516 70.1172-101.123 70.1172-97.6074L70.1172-41.2598C70.1172-37.793 72.3633-35.4004 75.6836-35.4004ZM75.6836 29.1504C110.938 29.1504 140.088 0 140.088-35.2539C140.088-54.7363 131.201-71.2891 119.434-82.1289C113.77-87.5488 105.957-80.0781 111.719-74.3164C122.363-64.5996 128.906-50.7812 128.906-35.2539C128.955-5.76172 105.176 18.0176 75.6836 18.0176C46.1426 18.0176 22.4609-5.76172 22.4609-35.2539C22.5098-50.8301 29.0527-64.6484 39.5996-74.3652C45.459-80.1758 37.5488-87.5977 31.9336-82.1777C20.1172-71.3867 11.2793-54.7363 11.2793-35.2539C11.2793 0 40.3809 29.1504 75.6836 29.1504Z"/>
  </g>
  <g id="Regular-L" transform="matrix(1 0 0 1 1374.97 1556)">
   <path d="M74.8535-36.084C77.4414-36.084 79.1992-37.9395 79.1992-40.5762L79.1992-98.0469C79.1992-100.732 77.4414-102.637 74.8535-102.637C72.3145-102.637 70.5566-100.732 70.5566-98.0469L70.5566-40.5762C70.5566-37.9395 72.3145-36.084 74.8535-36.084ZM74.8535 28.3203C109.668 28.3203 138.477-0.488281 138.477-35.2539C138.477-55.0781 129.199-71.6797 117.236-82.373C112.549-86.6699 106.445-80.2246 111.182-75.8301C122.412-65.8203 129.297-51.416 129.346-35.2539C129.395-5.07812 105.078 19.2383 74.8535 19.2383C44.6777 19.2383 20.4102-5.07812 20.4102-35.2539C20.459-51.5137 27.3926-65.8691 38.5742-75.8789C43.3594-80.3223 37.207-86.7188 32.4707-82.4219C20.5078-71.7285 11.2793-55.0781 11.2793-35.2539C11.2793-0.488281 40.0879 28.3203 74.8535 28.3203Z"/>
  </g>
  <g id="Light-L" transform="matrix(1 0 0 1 1079.18 1556)">
   <path d="M73.9258-36.3281C75.8789-36.3281 77.2461-37.7441 77.2461-39.7461L77.2461-98.3398C77.2461-100.391 75.8789-101.807 73.9258-101.807C72.0215-101.807 70.6543-100.391 70.6543-98.3398L70.6543-39.7461C70.6543-37.7441 72.0215-36.3281 73.9258-36.3281ZM73.9258 27.3926C108.301 27.3926 136.621-0.927734 136.621-35.2539C136.621-55.7617 126.709-72.1191 115.039-82.373C111.377-85.6445 106.738-80.7129 110.4-77.2949C122.363-66.9922 129.688-52.0996 129.736-35.2539C129.736-4.44336 104.785 20.5078 73.9258 20.5078C43.1152 20.5078 18.2129-4.44336 18.2129-35.2539C18.2617-52.1484 25.5859-67.041 37.4512-77.3438C41.2109-80.7617 36.5234-85.6934 32.8613-82.4219C21.0938-72.2168 11.2793-55.7617 11.2793-35.2539C11.2793-0.927734 39.5996 27.3926 73.9258 27.3926Z"/>
  </g>
  <g id="Thin-L" transform="matrix(1 0 0 1 783.693 1556)">
   <path d="M72.7051-36.6211C73.8281-36.6211 74.707-37.5 74.707-38.623L74.707-98.7793C74.707-99.9023 73.8281-100.781 72.7051-100.781C71.6309-100.781 70.752-99.9023 70.752-98.7793L70.752-38.623C70.752-37.5 71.6309-36.6211 72.7051-36.6211ZM72.7051 26.1719C106.494 26.1719 134.18-1.51367 134.18-35.2539C134.18-56.6406 123.438-72.7539 112.109-82.373C109.863-84.2773 107.129-81.2988 109.424-79.2969C122.266-68.5547 130.176-52.9785 130.176-35.2539C130.176-3.56445 104.443 22.168 72.7051 22.168C41.0156 22.168 15.2832-3.56445 15.2832-35.2539C15.2832-52.9785 23.1934-68.5547 36.0352-79.2969C38.3301-81.2988 35.5469-84.2773 33.3496-82.4219C21.9238-72.8027 11.2793-56.6406 11.2793-35.2539C11.2793-1.51367 38.9648 26.1719 72.7051 26.1719Z"/>
  </g>
  <g id="Ultralight-L" transform="matrix(1 0 0 1 487.616 1556)">
   <path d="M72.1191-36.8164C72.7539-36.8164 73.3887-37.4023 73.3887-38.0371L73.3887-98.9746C73.3887-99.6582 72.7539-100.244 72.1191-100.244C71.4355-100.244 70.8008-99.6582 70.8008-98.9746L70.8008-38.0371C70.8008-37.4023 71.4355-36.8164 72.1191-36.8164ZM72.1191 25.5371C105.566 25.5371 132.91-1.80664 132.91-35.2539C132.91-57.1289 121.777-73.0469 110.596-82.373C109.082-83.5938 107.324-81.5918 108.887-80.3223C122.217-69.3359 130.42-53.418 130.42-35.2539C130.42-3.125 104.248 23.0469 72.1191 23.0469C39.9414 23.0469 13.7695-3.125 13.7695-35.2539C13.7695-53.418 21.9238-69.3359 35.3027-80.3223C36.8652-81.543 35.1074-83.5938 33.5938-82.373C22.3145-73.1445 11.2793-57.1289 11.2793-35.2539C11.2793-1.80664 38.623 25.5371 72.1191 25.5371Z"/>
  </g>
  <g id="Black-M" transform="matrix(1 0 0 1 2870.97 1126)">
   <path d="M62.4023-31.8848C68.6523-31.8848 72.7539-36.2305 72.7539-42.8711L72.7539-81.3965C72.7539-88.0371 68.6523-92.3828 62.4023-92.3828C56.1523-92.3828 52.0508-88.0371 52.0508-81.3965L52.0508-42.8711C52.0508-36.2305 56.1523-31.8848 62.4023-31.8848ZM62.4023 18.457C91.9922 18.457 116.113-5.61523 116.113-35.2051C116.113-48.9746 110.889-61.5234 102.93-70.2637C94.1895-79.8828 79.7363-69.3359 89.209-58.3984C94.5312-52.1973 97.8027-44.0918 97.8027-35.2051C97.8027-15.625 81.9824 0.195312 62.4023 0.195312C42.8711 0.195312 27.002-15.625 27.002-35.2051C27.002-44.0918 30.2734-52.1973 35.6445-58.3984C45.1172-69.3359 30.6152-79.8828 21.875-70.2637C13.9648-61.5234 8.74023-48.9746 8.74023-35.2051C8.74023-5.61523 32.8125 18.457 62.4023 18.457Z"/>
  </g>
  <g id="Heavy-M" transform="matrix(1 0 0 1 2575.19 1126)">
   <path d="M61.5234-32.7637C66.8457-32.7637 70.3613-36.5234 70.3613-42.1387L70.3613-81.9336C70.3613-87.5977 66.8457-91.3086 61.5234-91.3086C56.1523-91.3086 52.6855-87.5977 52.6855-81.9336L52.6855-42.1387C52.6855-36.5234 56.1523-32.7637 61.5234-32.7637ZM61.5234 17.5293C90.5273 17.5293 114.258-6.20117 114.258-35.2051C114.258-49.2676 108.691-61.9141 100.391-70.6055C92.6758-78.9062 80.3223-69.4824 88.5742-60.1562C94.6289-53.6621 98.3398-44.873 98.3398-35.2051C98.3398-14.8438 81.8848 1.61133 61.5234 1.61133C41.1133 1.61133 24.6582-14.8438 24.6582-35.2051C24.6582-44.9219 28.3691-53.6621 34.4238-60.1562C42.6758-69.4824 30.3223-78.9062 22.6074-70.6055C14.3066-61.9629 8.74023-49.2676 8.74023-35.2051C8.74023-6.20117 32.4707 17.5293 61.5234 17.5293Z"/>
  </g>
  <g id="Bold-M" transform="matrix(1 0 0 1 2279.5 1126)">
   <path d="M60.498-33.7891C64.7949-33.7891 67.627-36.8164 67.627-41.3574L67.627-82.5684C67.627-87.1094 64.7949-90.1367 60.498-90.1367C56.2012-90.1367 53.3203-87.1094 53.3203-82.5684L53.3203-41.3574C53.3203-36.8164 56.2012-33.7891 60.498-33.7891ZM60.498 16.5039C88.8672 16.5039 112.207-6.83594 112.207-35.2051C112.207-49.6094 106.201-62.3535 97.5586-70.9961C91.0156-77.7832 81.0059-69.6289 87.8906-62.1094C94.7266-55.2246 98.9258-45.752 98.9258-35.2051C98.9746-13.916 81.7871 3.22266 60.498 3.22266C39.1602 3.22266 22.0703-13.916 22.0703-35.2051C22.0703-45.8008 26.2695-55.2734 33.0566-62.1582C39.9414-69.6289 29.9316-77.832 23.4375-71.0449C14.7461-62.4023 8.74023-49.6094 8.74023-35.2051C8.74023-6.83594 32.0801 16.5039 60.498 16.5039Z"/>
  </g>
  <g id="Semibold-M" transform="matrix(1 0 0 1 1983.5 1126)">
   <path d="M59.7656-34.5215C63.3789-34.5215 65.7715-37.0605 65.7715-40.8203L65.7715-83.0078C65.7715-86.8164 63.3789-89.3066 59.7656-89.3066C56.2012-89.3066 53.8086-86.8164 53.8086-83.0078L53.8086-40.8203C53.8086-37.0605 56.2012-34.5215 59.7656-34.5215ZM59.7656 15.8203C87.7441 15.8203 110.791-7.27539 110.791-35.2539C110.791-49.8047 104.492-62.6953 95.5566-71.2891C89.8926-77.0508 81.4941-69.6777 87.4023-63.4766C94.7754-56.3477 99.3164-46.3379 99.3652-35.2539C99.3652-13.3301 81.6895 4.3457 59.7656 4.3457C37.8418 4.3457 20.2637-13.3301 20.2637-35.2539C20.2637-46.4355 24.8047-56.3477 32.1289-63.5254C38.0859-69.7754 29.6875-77.0508 23.9746-71.3379C15.0391-62.6953 8.74023-49.8047 8.74023-35.2539C8.74023-7.27539 31.7871 15.8203 59.7656 15.8203Z"/>
  </g>
  <g id="Medium-M" transform="matrix(1 0 0 1 1687.3 1126)">
   <path d="M59.2285-35.0586C62.3047-35.0586 64.3066-37.207 64.3066-40.4297L64.3066-83.3008C64.3066-86.5234 62.3047-88.7207 59.2285-88.7207C56.2012-88.7207 54.1504-86.5234 54.1504-83.3008L54.1504-40.4297C54.1504-37.207 56.2012-35.0586 59.2285-35.0586ZM59.2285 15.2344C86.9141 15.2344 109.766-7.61719 109.766-35.2539C109.766-50 103.223-62.8906 94.0918-71.4844C89.0137-76.4648 81.8359-69.7754 87.0605-64.502C94.8242-57.1777 99.6094-46.8262 99.6582-35.2539C99.707-12.8418 81.6406 5.17578 59.2285 5.17578C36.8164 5.17578 18.8965-12.8418 18.8965-35.2539C18.8965-46.875 23.6816-57.2266 31.4453-64.5508C36.6699-69.873 29.4922-76.5137 24.4141-71.5332C15.2344-62.9395 8.74023-50 8.74023-35.2539C8.74023-7.61719 31.5918 15.2344 59.2285 15.2344Z"/>
  </g>
  <g id="Regular-M" transform="matrix(1 0 0 1 1391.3 1126)">
   <path d="M58.5449-35.7422C60.8887-35.7422 62.5-37.4512 62.5-39.8926L62.5-83.7402C62.5-86.2305 60.8887-87.8906 58.5449-87.8906C56.2012-87.8906 54.6387-86.2305 54.6387-83.7402L54.6387-39.8926C54.6387-37.4512 56.2012-35.7422 58.5449-35.7422ZM58.5449 14.5508C85.791 14.5508 108.35-8.05664 108.35-35.2539C108.35-50.2441 101.514-63.2324 92.1387-71.7773C87.8418-75.6836 82.3242-69.873 86.5723-65.8203C94.873-58.252 100-47.4121 100.049-35.2539C100.098-12.207 81.5918 6.25 58.5449 6.25C35.498 6.25 17.0898-12.207 17.0898-35.2539C17.1387-47.5098 22.2656-58.3008 30.5176-65.8691C34.8145-69.9707 29.248-75.7324 24.9512-71.8262C15.5273-63.2812 8.74023-50.2441 8.74023-35.2539C8.74023-8.05664 31.3477 14.5508 58.5449 14.5508Z"/>
  </g>
  <g id="Light-M" transform="matrix(1 0 0 1 1095.42 1126)">
   <path d="M57.7148-35.9863C59.5215-35.9863 60.7422-37.2559 60.7422-39.1113L60.7422-84.0332C60.7422-85.8887 59.5215-87.207 57.7148-87.207C55.957-87.207 54.6875-85.8887 54.6875-84.0332L54.6875-39.1113C54.6875-37.2559 55.957-35.9863 57.7148-35.9863ZM57.7148 13.7207C84.5215 13.7207 106.689-8.44727 106.689-35.2539C106.689-50.8301 99.3164-63.623 90.1367-71.7773C86.8164-74.7559 82.5684-70.2637 85.8887-67.1875C94.8242-59.3262 100.342-47.998 100.391-35.2539C100.391-11.6699 81.3477 7.37305 57.7148 7.37305C34.082 7.37305 15.0879-11.6699 15.0879-35.2539C15.1367-48.0469 20.6055-59.3262 29.541-67.1875C32.9102-70.3125 28.6133-74.8047 25.293-71.8262C16.1133-63.6719 8.74023-50.8301 8.74023-35.2539C8.74023-8.44727 30.9082 13.7207 57.7148 13.7207Z"/>
  </g>
  <g id="Thin-M" transform="matrix(1 0 0 1 799.806 1126)">
   <path d="M56.6406-36.2305C57.666-36.2305 58.4473-37.0605 58.4473-38.0859L58.4473-84.375C58.4473-85.4492 57.666-86.2305 56.6406-86.2305C55.5664-86.2305 54.7852-85.4492 54.7852-84.375L54.7852-38.0859C54.7852-37.0605 55.5664-36.2305 56.6406-36.2305ZM56.6406 12.5977C82.9102 12.5977 104.492-8.98438 104.492-35.2539C104.492-51.6602 96.3867-64.1602 87.5-71.7773C85.498-73.5352 82.9102-70.8008 85.0098-68.9453C94.7754-60.6934 100.781-48.7793 100.781-35.2539C100.781-10.8887 81.0059 8.88672 56.6406 8.88672C32.2266 8.88672 12.4512-10.8887 12.4512-35.2539C12.5-48.8281 18.457-60.7422 28.2227-68.9453C30.3223-70.8008 27.7832-73.5352 25.7324-71.7773C16.7969-64.209 8.74023-51.6602 8.74023-35.2539C8.74023-8.98438 30.3223 12.5977 56.6406 12.5977Z"/>
  </g>
  <g id="Ultralight-M" transform="matrix(1 0 0 1 503.656 1126)">
   <path d="M56.0547-36.377C56.7383-36.377 57.2754-36.9141 57.2754-37.5977L57.2754-84.5703C57.2754-85.2051 56.7383-85.7422 56.0547-85.7422C55.4199-85.7422 54.8828-85.2051 54.8828-84.5703L54.8828-37.5977C54.8828-36.9141 55.4199-36.377 56.0547-36.377ZM56.0547 12.0605C82.0801 12.0605 103.369-9.22852 103.369-35.2539C103.369-52.0508 94.873-64.4531 86.1816-71.7773C84.7656-72.9004 83.1055-71.0449 84.5703-69.873C94.7266-61.4258 100.977-49.1699 100.977-35.2539C100.977-10.498 80.8594 9.66797 56.0547 9.66797C31.2988 9.66797 11.1328-10.498 11.1328-35.2539C11.1328-49.1699 17.3828-61.4258 27.5879-69.873C29.0039-71.0449 27.3438-72.9004 25.9766-71.7773C17.1875-64.502 8.74023-52.0508 8.74023-35.2539C8.74023-9.22852 30.0293 12.0605 56.0547 12.0605Z"/>
  </g>
  <g id="Black-S" transform="matrix(1 0 0 1 2884.57 696)">
   <path d="M48.8281-32.666C53.6621-32.666 56.8359-36.0352 56.8359-41.1621L56.8359-71.4355C56.8359-76.5625 53.6621-79.9316 48.8281-79.9316C43.9941-79.9316 40.8203-76.5625 40.8203-71.4355L40.8203-41.1621C40.8203-36.0352 43.9941-32.666 48.8281-32.666ZM48.8281 6.78711C71.9727 6.78711 90.8203-12.0605 90.8203-35.2051C90.8203-45.9961 86.7188-55.8594 80.4688-62.6953C73.6816-70.166 62.5-61.9629 69.8242-53.5156C74.0723-48.6328 76.6602-42.2363 76.6602-35.2051C76.6602-19.8242 64.209-7.37305 48.8281-7.37305C33.4473-7.37305 20.9961-19.8242 20.9961-35.2051C20.9961-42.2363 23.584-48.6328 27.832-53.5156C35.1562-61.9629 23.9746-70.166 17.1875-62.6953C10.9375-55.8594 6.83594-45.9961 6.83594-35.2051C6.83594-12.0605 25.6836 6.78711 48.8281 6.78711Z"/>
  </g>
  <g id="Heavy-S" transform="matrix(1 0 0 1 2588.47 696)">
   <path d="M48.2422-33.3496C52.3926-33.3496 55.1758-36.2793 55.1758-40.7227L55.1758-71.8262C55.1758-76.2695 52.3926-79.1992 48.2422-79.1992C44.043-79.1992 41.2598-76.2695 41.2598-71.8262L41.2598-40.7227C41.2598-36.2793 44.043-33.3496 48.2422-33.3496ZM48.2422 6.15234C70.9961 6.15234 89.5996-12.4512 89.5996-35.2051C89.5996-46.1426 85.2539-56.1035 78.7598-62.9883C72.6562-69.5312 62.9395-62.0117 69.4336-54.6875C74.1211-49.6094 77.002-42.7734 77.0508-35.2051C77.0508-19.2871 64.1602-6.39648 48.2422-6.39648C32.2754-6.39648 19.4336-19.2871 19.4336-35.2051C19.4336-42.7734 22.3145-49.6094 27.002-54.7363C33.4961-62.0117 23.7793-69.5312 17.7246-62.9883C11.1816-56.1523 6.83594-46.1426 6.83594-35.2051C6.83594-12.4512 25.4395 6.15234 48.2422 6.15234Z"/>
  </g>
  <g id="Bold-S" transform="matrix(1 0 0 1 2292.44 696)">
   <path d="M47.5586-34.082C51.0254-34.082 53.3203-36.5234 53.3203-40.1855L53.3203-72.2656C53.3203-75.9277 51.0254-78.3691 47.5586-78.3691C44.0918-78.3691 41.7969-75.9277 41.7969-72.2656L41.7969-40.1855C41.7969-36.5234 44.0918-34.082 47.5586-34.082ZM47.5586 5.46875C69.873 5.46875 88.2324-12.8906 88.2324-35.2539C88.2324-46.3379 83.6426-56.3965 76.8066-63.2812C71.4844-68.7988 63.4277-62.0605 68.9941-56.0547C74.2188-50.6836 77.4414-43.3594 77.4414-35.2539C77.4414-18.6523 64.1113-5.32227 47.5586-5.32227C30.957-5.32227 17.6758-18.6523 17.6758-35.2539C17.6758-43.4082 20.8984-50.7324 26.0742-56.0547C31.6895-62.1094 23.584-68.7988 18.3105-63.2812C11.4258-56.4453 6.83594-46.3379 6.83594-35.2539C6.83594-12.8906 25.1953 5.46875 47.5586 5.46875Z"/>
  </g>
  <g id="Semibold-S" transform="matrix(1 0 0 1 1996.2 696)">
   <path d="M47.0703-34.6191C50.0488-34.6191 52.002-36.7188 52.002-39.8438L52.002-72.5586C52.002-75.7324 50.0488-77.832 47.0703-77.832C44.0918-77.832 42.1387-75.7324 42.1387-72.5586L42.1387-39.8438C42.1387-36.7188 44.0918-34.6191 47.0703-34.6191ZM47.0703 4.98047C69.0918 4.98047 87.3047-13.1836 87.3047-35.2539C87.3047-46.4844 82.5684-56.5918 75.4395-63.4766C70.7031-68.2617 63.7695-62.1094 68.7012-56.9336C74.2676-51.4648 77.6855-43.75 77.7344-35.2539C77.7344-18.2129 64.0625-4.58984 47.0703-4.58984C30.0781-4.58984 16.4551-18.2129 16.4551-35.2539C16.5039-43.8477 19.9219-51.4648 25.4883-56.9824C30.4199-62.1582 23.4375-68.3105 18.7012-63.5254C11.5723-56.6406 6.83594-46.4844 6.83594-35.2539C6.83594-13.1836 25.0488 4.98047 47.0703 4.98047Z"/>
  </g>
  <g id="Medium-S" transform="matrix(1 0 0 1 1699.83 696)">
   <path d="M46.7285-35.0098C49.3164-35.0098 51.0254-36.8652 51.0254-39.5996L51.0254-72.8027C51.0254-75.5371 49.3164-77.3926 46.7285-77.3926C44.1406-77.3926 42.3828-75.5371 42.3828-72.8027L42.3828-39.5996C42.3828-36.8652 44.1406-35.0098 46.7285-35.0098ZM46.7285 4.63867C68.5547 4.63867 86.6211-13.4277 86.6211-35.2539C86.6211-46.5332 81.6895-56.7383 74.4629-63.6719C70.1172-67.8711 64.0137-62.1094 68.457-57.666C74.3164-52.002 77.8809-44.0918 77.9297-35.2539C77.9785-17.9199 64.0625-4.00391 46.7285-4.00391C29.3945-4.00391 15.5273-17.9199 15.5273-35.2539C15.5762-44.1406 19.1895-52.0508 25-57.666C29.4434-62.207 23.3398-67.9199 18.9941-63.6719C11.7188-56.7871 6.83594-46.5332 6.83594-35.2539C6.83594-13.4277 24.9023 4.63867 46.7285 4.63867Z"/>
  </g>
  <g id="Regular-S" transform="matrix(1 0 0 1 1403.58 696)">
   <path d="M46.2402-35.5469C48.3887-35.5469 49.7559-37.0117 49.7559-39.2578L49.7559-73.0957C49.7559-75.3418 48.3887-76.8555 46.2402-76.8555C44.1406-76.8555 42.7246-75.3418 42.7246-73.0957L42.7246-39.2578C42.7246-37.0117 44.1406-35.5469 46.2402-35.5469ZM46.2402 4.15039C67.7734 4.15039 85.6934-13.7207 85.6934-35.2539C85.6934-46.6797 80.6152-56.9336 73.1445-63.8672C69.3359-67.3828 64.3555-62.1582 68.1641-58.5449C74.3652-52.7344 78.1738-44.4824 78.2227-35.2539C78.2715-17.4805 64.0137-3.27148 46.2402-3.27148C28.5156-3.27148 14.3555-17.4805 14.3555-35.2539C14.4043-44.5801 18.2129-52.7832 24.3652-58.5938C28.2227-62.2559 23.1934-67.4316 19.3848-63.916C11.9141-56.9824 6.83594-46.6797 6.83594-35.2539C6.83594-13.7207 24.7559 4.15039 46.2402 4.15039Z"/>
  </g>
  <g id="Light-S" transform="matrix(1 0 0 1 1107.6 696)">
   <path d="M45.5078-35.7422C47.1191-35.7422 48.2422-36.8652 48.2422-38.5742L48.2422-73.3398C48.2422-75.0488 47.1191-76.2207 45.5078-76.2207C43.8965-76.2207 42.8223-75.0488 42.8223-73.3398L42.8223-38.5742C42.8223-36.8652 43.8965-35.7422 45.5078-35.7422ZM45.5078 3.41797C66.6992 3.41797 84.2285-14.0625 84.2285-35.2539C84.2285-47.2168 78.6621-57.3242 71.3867-63.8672C68.4082-66.5527 64.5996-62.5 67.5781-59.7656C74.3164-53.7109 78.4668-45.0195 78.5156-35.2539C78.5156-16.9922 63.8184-2.29492 45.5078-2.29492C27.2461-2.29492 12.5977-16.9922 12.5977-35.2539C12.5977-45.0684 16.748-53.7109 23.4863-59.7656C26.5137-62.5977 22.6562-66.6016 19.6777-63.916C12.4023-57.373 6.83594-47.2168 6.83594-35.2539C6.83594-14.0625 24.3652 3.41797 45.5078 3.41797Z"/>
  </g>
  <g id="Thin-S" transform="matrix(1 0 0 1 811.867 696)">
   <path d="M44.5801-35.9863C45.5078-35.9863 46.1914-36.7188 46.1914-37.6953L46.1914-73.6816C46.1914-74.6582 45.5078-75.3906 44.5801-75.3906C43.6035-75.3906 42.9199-74.6582 42.9199-73.6816L42.9199-37.6953C42.9199-36.7188 43.6035-35.9863 44.5801-35.9863ZM44.5801 2.49023C65.2832 2.49023 82.2754-14.5508 82.2754-35.2539C82.2754-47.9492 76.0742-57.8125 69.043-63.8672C67.2363-65.4785 64.8926-62.9883 66.748-61.3281C74.2676-54.9316 78.8574-45.7031 78.8574-35.2539C78.8574-16.3086 63.5254-0.927734 44.5801-0.927734C25.5859-0.927734 10.2539-16.3086 10.2539-35.2539C10.2539-45.7031 14.8926-54.9316 22.3633-61.3281C24.2188-62.9883 21.9238-65.4785 20.0684-63.8672C13.0371-57.8613 6.83594-47.9492 6.83594-35.2539C6.83594-14.5508 23.877 2.49023 44.5801 2.49023Z"/>
  </g>
  <g id="Ultralight-S" transform="matrix(1 0 0 1 515.644 696)">
   <path d="M44.043-36.084C44.6777-36.084 45.166-36.5723 45.166-37.207L45.166-73.8281C45.166-74.4629 44.6777-74.9512 44.043-74.9512C43.457-74.9512 42.9688-74.4629 42.9688-73.8281L42.9688-37.207C42.9688-36.5723 43.457-36.084 44.043-36.084ZM44.043 1.95312C64.502 1.95312 81.2988-14.7949 81.2988-35.2539C81.2988-48.291 74.707-58.0566 67.8711-63.8672C66.6016-64.9414 65.0391-63.2324 66.3574-62.1094C74.2188-55.5664 79.0527-46.0449 79.0527-35.2539C79.0527-15.9668 63.3789-0.244141 44.043-0.244141C24.7559-0.244141 9.08203-15.9668 9.08203-35.2539C9.08203-46.0449 13.916-55.5664 21.7773-62.1094C23.0469-63.2324 21.5332-64.9414 20.2637-63.8672C13.3301-58.1055 6.83594-48.291 6.83594-35.2539C6.83594-14.7949 23.584 1.95312 44.043 1.95312Z"/>
  </g>
 </g>
</svg>
