<?xml version="1.0" encoding="UTF-8"?>
<!--Generator: Apple Native CoreSVG 149-->
<!DOCTYPE svg
PUBLIC "-//W3C//DTD SVG 1.1//EN"
       "http://www.w3.org/Graphics/SVG/1.1/DTD/svg11.dtd">
<svg version="1.1" xmlns="http://www.w3.org/2000/svg" xmlns:xlink="http://www.w3.org/1999/xlink" width="3300" height="2200">
 <!--glyph: "uni100329.medium", point size: 100.000000, font version: "Version 16.0d12e3", template writer version: "8"-->
 <g id="Notes">
  <rect height="2200" id="artboard" style="fill:white;opacity:1" width="3300" x="0" y="0"/>
  <line id="" style="fill:none;stroke:black;opacity:1;stroke-width:0.5;" x1="263" x2="3036" y1="292" y2="292"/>
  <text style="stroke:none;fill:black;font-family:-apple-system,&quot;SF Pro Display&quot;,&quot;SF Pro Text&quot;,Helvetica,sans-serif;font-weight:bold;" transform="matrix(1 0 0 1 263 322)">Weight/Scale Variations</text>
  <text style="stroke:none;fill:black;font-family:-apple-system,&quot;SF Pro Display&quot;,&quot;SF Pro Text&quot;,Helvetica,sans-serif;text-anchor:middle;" transform="matrix(1 0 0 1 559.711 322)">Ultralight</text>
  <text style="stroke:none;fill:black;font-family:-apple-system,&quot;SF Pro Display&quot;,&quot;SF Pro Text&quot;,Helvetica,sans-serif;text-anchor:middle;" transform="matrix(1 0 0 1 856.422 322)">Thin</text>
  <text style="stroke:none;fill:black;font-family:-apple-system,&quot;SF Pro Display&quot;,&quot;SF Pro Text&quot;,Helvetica,sans-serif;text-anchor:middle;" transform="matrix(1 0 0 1 1153.13 322)">Light</text>
  <text style="stroke:none;fill:black;font-family:-apple-system,&quot;SF Pro Display&quot;,&quot;SF Pro Text&quot;,Helvetica,sans-serif;text-anchor:middle;" transform="matrix(1 0 0 1 1449.84 322)">Regular</text>
  <text style="stroke:none;fill:black;font-family:-apple-system,&quot;SF Pro Display&quot;,&quot;SF Pro Text&quot;,Helvetica,sans-serif;text-anchor:middle;" transform="matrix(1 0 0 1 1746.56 322)">Medium</text>
  <text style="stroke:none;fill:black;font-family:-apple-system,&quot;SF Pro Display&quot;,&quot;SF Pro Text&quot;,Helvetica,sans-serif;text-anchor:middle;" transform="matrix(1 0 0 1 2043.27 322)">Semibold</text>
  <text style="stroke:none;fill:black;font-family:-apple-system,&quot;SF Pro Display&quot;,&quot;SF Pro Text&quot;,Helvetica,sans-serif;text-anchor:middle;" transform="matrix(1 0 0 1 2339.98 322)">Bold</text>
  <text style="stroke:none;fill:black;font-family:-apple-system,&quot;SF Pro Display&quot;,&quot;SF Pro Text&quot;,Helvetica,sans-serif;text-anchor:middle;" transform="matrix(1 0 0 1 2636.69 322)">Heavy</text>
  <text style="stroke:none;fill:black;font-family:-apple-system,&quot;SF Pro Display&quot;,&quot;SF Pro Text&quot;,Helvetica,sans-serif;text-anchor:middle;" transform="matrix(1 0 0 1 2933.4 322)">Black</text>
  <line id="" style="fill:none;stroke:black;opacity:1;stroke-width:0.5;" x1="263" x2="3036" y1="1903" y2="1903"/>
  <g id="" transform="matrix(1 0 0 1 263 1933)">
   <path d="M9.24805 0.830078C13.5547 0.830078 17.1387-2.74414 17.1387-7.05078C17.1387-11.3574 13.5449-14.9316 9.23828-14.9316C4.94141-14.9316 1.36719-11.3574 1.36719-7.05078C1.36719-2.74414 4.95117 0.830078 9.24805 0.830078ZM9.24805-0.654297C5.70312-0.654297 2.87109-3.49609 2.87109-7.05078C2.87109-10.6055 5.69336-13.4473 9.23828-13.4473C12.793-13.4473 15.6348-10.6055 15.6445-7.05078C15.6543-3.49609 12.8027-0.654297 9.24805-0.654297ZM9.22852-3.62305C9.69727-3.62305 9.9707-3.93555 9.9707-4.45312L9.9707-6.31836L12.002-6.31836C12.5-6.31836 12.832-6.57227 12.832-7.04102C12.832-7.51953 12.5195-7.7832 12.002-7.7832L9.9707-7.7832L9.9707-9.81445C9.9707-10.332 9.69727-10.6543 9.22852-10.6543C8.75977-10.6543 8.50586-10.3125 8.50586-9.81445L8.50586-7.7832L6.49414-7.7832C5.97656-7.7832 5.64453-7.51953 5.64453-7.04102C5.64453-6.57227 5.99609-6.31836 6.49414-6.31836L8.50586-6.31836L8.50586-4.45312C8.50586-3.95508 8.75977-3.62305 9.22852-3.62305Z"/>
  </g>
  <g id="" transform="matrix(1 0 0 1 281.506 1933)">
   <path d="M11.709 2.91016C17.1582 2.91016 21.6699-1.61133 21.6699-7.05078C21.6699-12.5 17.1484-17.0117 11.6992-17.0117C6.25977-17.0117 1.74805-12.5 1.74805-7.05078C1.74805-1.61133 6.26953 2.91016 11.709 2.91016ZM11.709 1.25C7.09961 1.25 3.41797-2.44141 3.41797-7.05078C3.41797-11.6602 7.08984-15.3516 11.6992-15.3516C16.3086-15.3516 20-11.6602 20.0098-7.05078C20.0195-2.44141 16.3184 1.25 11.709 1.25ZM11.6797-2.66602C12.207-2.66602 12.5098-3.01758 12.5098-3.59375L12.5098-6.23047L15.3223-6.23047C15.8691-6.23047 16.25-6.51367 16.25-7.03125C16.25-7.55859 15.8887-7.86133 15.3223-7.86133L12.5098-7.86133L12.5098-10.6836C12.5098-11.25 12.207-11.6113 11.6797-11.6113C11.1621-11.6113 10.8789-11.2305 10.8789-10.6836L10.8789-7.86133L8.07617-7.86133C7.50977-7.86133 7.13867-7.55859 7.13867-7.03125C7.13867-6.51367 7.5293-6.23047 8.07617-6.23047L10.8789-6.23047L10.8789-3.59375C10.8789-3.03711 11.1621-2.66602 11.6797-2.66602Z"/>
  </g>
  <g id="" transform="matrix(1 0 0 1 304.924 1933)">
   <path d="M14.9707 5.66406C21.9336 5.66406 27.6953-0.0976562 27.6953-7.05078C27.6953-14.0137 21.9238-19.7754 14.9609-19.7754C8.00781-19.7754 2.25586-14.0137 2.25586-7.05078C2.25586-0.0976562 8.01758 5.66406 14.9707 5.66406ZM14.9707 3.84766C8.93555 3.84766 4.08203-1.01562 4.08203-7.05078C4.08203-13.0957 8.92578-17.9492 14.9609-17.9492C21.0059-17.9492 25.8594-13.0957 25.8691-7.05078C25.8789-1.01562 21.0156 3.84766 14.9707 3.84766ZM14.9414-1.38672C15.5176-1.38672 15.8594-1.77734 15.8594-2.38281L15.8594-6.13281L19.7754-6.13281C20.3711-6.13281 20.7812-6.46484 20.7812-7.02148C20.7812-7.59766 20.3906-7.93945 19.7754-7.93945L15.8594-7.93945L15.8594-11.8652C15.8594-12.4805 15.5176-12.8711 14.9414-12.8711C14.375-12.8711 14.0527-12.4609 14.0527-11.8652L14.0527-7.93945L10.1465-7.93945C9.53125-7.93945 9.13086-7.59766 9.13086-7.02148C9.13086-6.46484 9.55078-6.13281 10.1465-6.13281L14.0527-6.13281L14.0527-2.38281C14.0527-1.79688 14.375-1.38672 14.9414-1.38672Z"/>
  </g>
  <text style="stroke:none;fill:black;font-family:-apple-system,&quot;SF Pro Display&quot;,&quot;SF Pro Text&quot;,Helvetica,sans-serif;font-weight:bold;" transform="matrix(1 0 0 1 263 1953)">Design Variations</text>
  <text style="stroke:none;fill:black;font-family:-apple-system,&quot;SF Pro Display&quot;,&quot;SF Pro Text&quot;,Helvetica,sans-serif;" transform="matrix(1 0 0 1 263 1971)">Symbols are supported in up to nine weights and three scales.</text>
  <text style="stroke:none;fill:black;font-family:-apple-system,&quot;SF Pro Display&quot;,&quot;SF Pro Text&quot;,Helvetica,sans-serif;" transform="matrix(1 0 0 1 263 1989)">For optimal layout with text and other symbols, vertically align</text>
  <text style="stroke:none;fill:black;font-family:-apple-system,&quot;SF Pro Display&quot;,&quot;SF Pro Text&quot;,Helvetica,sans-serif;" transform="matrix(1 0 0 1 263 2007)">symbols with the adjacent text.</text>
  <line id="" style="fill:none;stroke:#00AEEF;stroke-width:0.5;opacity:1.0;" x1="776" x2="776" y1="1919" y2="1933"/>
  <g id="" transform="matrix(1 0 0 1 776 1933)">
   <path d="M3.31055 0.126953C3.82812 0.126953 4.08203-0.0683594 4.26758-0.605469L5.52734-4.0625L11.2891-4.0625L12.5488-0.605469C12.7344-0.0683594 12.9883 0.126953 13.4961 0.126953C14.0137 0.126953 14.3457-0.185547 14.3457-0.673828C14.3457-0.839844 14.3164-0.986328 14.2383-1.20117L9.6582-13.3887C9.43359-13.9941 9.0332-14.2871 8.4082-14.2871C7.80273-14.2871 7.39258-13.9941 7.17773-13.3984L2.59766-1.19141C2.51953-0.976562 2.49023-0.830078 2.49023-0.664062C2.49023-0.175781 2.80273 0.126953 3.31055 0.126953ZM6.00586-5.53711L8.37891-12.1094L8.42773-12.1094L10.8008-5.53711Z"/>
  </g>
  <line id="" style="fill:none;stroke:#00AEEF;stroke-width:0.5;opacity:1.0;" x1="792.836" x2="792.836" y1="1919" y2="1933"/>
  <text style="stroke:none;fill:black;font-family:-apple-system,&quot;SF Pro Display&quot;,&quot;SF Pro Text&quot;,Helvetica,sans-serif;font-weight:bold;" transform="matrix(1 0 0 1 776 1953)">Margins</text>
  <text style="stroke:none;fill:black;font-family:-apple-system,&quot;SF Pro Display&quot;,&quot;SF Pro Text&quot;,Helvetica,sans-serif;" transform="matrix(1 0 0 1 776 1971)">Leading and trailing margins on the left and right side of each symbol</text>
  <text style="stroke:none;fill:black;font-family:-apple-system,&quot;SF Pro Display&quot;,&quot;SF Pro Text&quot;,Helvetica,sans-serif;" transform="matrix(1 0 0 1 776 1989)">can be adjusted by modifying the x-location of the margin guidelines.</text>
  <text style="stroke:none;fill:black;font-family:-apple-system,&quot;SF Pro Display&quot;,&quot;SF Pro Text&quot;,Helvetica,sans-serif;" transform="matrix(1 0 0 1 776 2007)">Modifications are automatically applied proportionally to all</text>
  <text style="stroke:none;fill:black;font-family:-apple-system,&quot;SF Pro Display&quot;,&quot;SF Pro Text&quot;,Helvetica,sans-serif;" transform="matrix(1 0 0 1 776 2025)">scales and weights.</text>
  <g id="" transform="matrix(1 0 0 1 1289 1933)">
   <path d="M2.8418 1.86523L4.54102 3.57422C5.40039 4.44336 6.38672 4.38477 7.31445 3.35938L17.4902-7.85156C17.7539-7.76367 18.0273-7.7832 18.3398-7.8418L19.4043-8.03711L20.0684-7.36328L20.0293-6.80664C19.9902-6.30859 20.1172-5.92773 20.6055-5.44922L21.3672-4.70703C21.8457-4.22852 22.4609-4.19922 22.9297-4.66797L25.8398-7.58789C26.3086-8.05664 26.2891-8.65234 25.8105-9.13086L25.0391-9.89258C24.5605-10.3711 24.1895-10.5273 23.7109-10.4883L23.1348-10.4395L22.4902-11.0742L22.7344-12.1973C22.8613-12.7637 22.7051-13.2031 22.1191-13.7891L19.9219-15.9766C16.582-19.2969 12.1484-19.2188 9.25781-16.3281C8.83789-15.918 8.80859-15.3418 9.04297-14.9512C9.27734-14.5898 9.73633-14.3555 10.3809-14.5215C11.8457-14.8633 13.3691-14.9219 14.7949-13.9844L14.209-12.5293C14.0137-12.0508 13.9844-11.6504 14.1113-11.2891L3.04688-0.898438C2.06055 0.0195312 1.98242 0.996094 2.8418 1.86523ZM10.752-15.957C13.1836-17.7344 16.4746-17.4316 18.7012-15.2051L21.1328-12.793C21.3672-12.5586 21.4062-12.373 21.3379-12.0312L21.0156-10.5469L22.5195-9.0625L23.5059-9.12109C23.7598-9.13086 23.8379-9.11133 24.0332-8.91602L24.6094-8.33984L22.168-5.89844L21.5918-6.47461C21.3965-6.66992 21.3672-6.74805 21.377-7.01172L21.4453-7.98828L19.9512-9.47266L18.4277-9.21875C18.1055-9.15039 17.959-9.17969 17.7148-9.41406L15.7129-11.416C15.459-11.6504 15.4297-11.8164 15.5859-12.1875L16.4648-14.2773C14.9023-15.7324 12.8711-16.3574 10.8398-15.7617C10.6836-15.7227 10.625-15.8496 10.752-15.957ZM5.27344 2.30469L4.10156 1.14258C3.63281 0.683594 3.74023 0.341797 4.14062-0.0195312L14.9512-10.1953L16.416-8.71094L6.42578 2.27539C6.07422 2.67578 5.74219 2.77344 5.27344 2.30469Z"/>
  </g>
  <text style="stroke:none;fill:black;font-family:-apple-system,&quot;SF Pro Display&quot;,&quot;SF Pro Text&quot;,Helvetica,sans-serif;font-weight:bold;" transform="matrix(1 0 0 1 1289 1953)">Exporting</text>
  <text style="stroke:none;fill:black;font-family:-apple-system,&quot;SF Pro Display&quot;,&quot;SF Pro Text&quot;,Helvetica,sans-serif;" transform="matrix(1 0 0 1 1289 1971)">Symbols should be outlined when exporting to ensure the</text>
  <text style="stroke:none;fill:black;font-family:-apple-system,&quot;SF Pro Display&quot;,&quot;SF Pro Text&quot;,Helvetica,sans-serif;" transform="matrix(1 0 0 1 1289 1989)">design is preserved when submitting to Xcode.</text>
  <text id="template-version" style="stroke:none;fill:black;font-family:-apple-system,&quot;SF Pro Display&quot;,&quot;SF Pro Text&quot;,Helvetica,sans-serif;text-anchor:end;" transform="matrix(1 0 0 1 3036 1933)">Template v.2.0</text>
  <text style="stroke:none;fill:black;font-family:-apple-system,&quot;SF Pro Display&quot;,&quot;SF Pro Text&quot;,Helvetica,sans-serif;text-anchor:end;" transform="matrix(1 0 0 1 3036 1951)">Requires Xcode 12 or greater</text>
  <text style="stroke:none;fill:black;font-family:-apple-system,&quot;SF Pro Display&quot;,&quot;SF Pro Text&quot;,Helvetica,sans-serif;text-anchor:end;" transform="matrix(1 0 0 1 3036 1969)">Generated from bubble.right.fill</text>
  <text style="stroke:none;fill:black;font-family:-apple-system,&quot;SF Pro Display&quot;,&quot;SF Pro Text&quot;,Helvetica,sans-serif;text-anchor:end;" transform="matrix(1 0 0 1 3036 1987)">Typeset at 100 points</text>
  <text style="stroke:none;fill:black;font-family:-apple-system,&quot;SF Pro Display&quot;,&quot;SF Pro Text&quot;,Helvetica,sans-serif;" transform="matrix(1 0 0 1 263 726)">Small</text>
  <text style="stroke:none;fill:black;font-family:-apple-system,&quot;SF Pro Display&quot;,&quot;SF Pro Text&quot;,Helvetica,sans-serif;" transform="matrix(1 0 0 1 263 1156)">Medium</text>
  <text style="stroke:none;fill:black;font-family:-apple-system,&quot;SF Pro Display&quot;,&quot;SF Pro Text&quot;,Helvetica,sans-serif;" transform="matrix(1 0 0 1 263 1586)">Large</text>
 </g>
 <g id="Guides">
  <g id="H-reference" style="fill:#27AAE1;stroke:none;" transform="matrix(1 0 0 1 339 696)">
   <path d="M0.976562 0L3.66211 0L12.9883-24.4629L45.752-24.4629L55.127 0L57.7637 0L30.6152-70.459L28.125-70.459ZM29.3457-67.1387L29.4434-67.1387L44.873-26.709L13.8672-26.709Z"/>
  </g>
  <line id="Baseline-S" style="fill:none;stroke:#27AAE1;opacity:1;stroke-width:0.5;" x1="263" x2="3036" y1="696" y2="696"/>
  <line id="Capline-S" style="fill:none;stroke:#27AAE1;opacity:1;stroke-width:0.5;" x1="263" x2="3036" y1="625.541" y2="625.541"/>
  <g id="H-reference" style="fill:#27AAE1;stroke:none;" transform="matrix(1 0 0 1 339 1126)">
   <path d="M0.976562 0L3.66211 0L12.9883-24.4629L45.752-24.4629L55.127 0L57.7637 0L30.6152-70.459L28.125-70.459ZM29.3457-67.1387L29.4434-67.1387L44.873-26.709L13.8672-26.709Z"/>
  </g>
  <line id="Baseline-M" style="fill:none;stroke:#27AAE1;opacity:1;stroke-width:0.5;" x1="263" x2="3036" y1="1126" y2="1126"/>
  <line id="Capline-M" style="fill:none;stroke:#27AAE1;opacity:1;stroke-width:0.5;" x1="263" x2="3036" y1="1055.54" y2="1055.54"/>
  <g id="H-reference" style="fill:#27AAE1;stroke:none;" transform="matrix(1 0 0 1 339 1556)">
   <path d="M0.976562 0L3.66211 0L12.9883-24.4629L45.752-24.4629L55.127 0L57.7637 0L30.6152-70.459L28.125-70.459ZM29.3457-67.1387L29.4434-67.1387L44.873-26.709L13.8672-26.709Z"/>
  </g>
  <line id="Baseline-L" style="fill:none;stroke:#27AAE1;opacity:1;stroke-width:0.5;" x1="263" x2="3036" y1="1556" y2="1556"/>
  <line id="Capline-L" style="fill:none;stroke:#27AAE1;opacity:1;stroke-width:0.5;" x1="263" x2="3036" y1="1485.54" y2="1485.54"/>
  <line id="left-margin" style="fill:none;stroke:#00AEEF;stroke-width:0.5;opacity:1.0;" x1="1385.68" x2="1385.68" y1="1030.79" y2="1150.12"/>
  <line id="right-margin" style="fill:none;stroke:#00AEEF;stroke-width:0.5;opacity:1.0;" x1="1514" x2="1514" y1="1030.79" y2="1150.12"/>
 </g>
 <g id="Symbols">
  <g id="Black-L" transform="matrix(1 0 0 1 2847.07 1556)">
   <path d="M117.529 37.3047C122.168 37.3047 125 34.1797 125 29.1016L125 11.084L131.494 11.084C147.607 11.084 156.592 2.29492 156.592-13.5742L156.592-70.1172C156.543-86.6211 146.973-96.0449 129.639-96.0449L42.9688-96.0449C25.4395-96.0449 16.0645-86.6211 16.0645-70.1172L16.0645-13.5742C16.0645 2.83203 25.4395 11.084 42.9688 11.084L83.252 11.084L107.764 32.6172C111.67 36.084 114.307 37.3047 117.529 37.3047Z"/>
  </g>
  <g id="Heavy-L" transform="matrix(1 0 0 1 2551.22 1556)">
   <path d="M116.65 36.377C120.947 36.377 123.535 33.4473 123.535 28.7109L123.535 10.6445L130.029 10.6445C145.752 10.6445 154.883 1.66016 154.883-13.9648L154.883-70.0684C154.834-86.2305 145.264-95.5078 128.662-95.5078L42.2852-95.5078C25.3906-95.5078 16.0645-86.1816 16.0645-70.0684L16.0645-13.9648C16.0645 2.05078 25.3906 10.6445 42.2852 10.6445L83.6426 10.6445L107.764 31.9824C111.328 35.1562 113.721 36.377 116.65 36.377Z"/>
  </g>
  <g id="Bold-L" transform="matrix(1 0 0 1 2255.46 1556)">
   <path d="M115.723 35.3027C119.58 35.3027 121.924 32.6172 121.924 28.3691L121.924 10.1562L128.418 10.1562C143.652 10.1562 152.979 0.927734 152.979-14.4043L152.979-70.0684C152.93-85.791 143.311-94.9707 127.49-94.9707L41.5039-94.9707C25.3418-94.9707 16.0645-85.7422 16.0645-70.0684L16.0645-14.4043C16.0645 1.17188 25.3418 10.1562 41.5039 10.1562L84.0332 10.1562L107.715 31.2012C110.889 34.1309 113.037 35.3027 115.723 35.3027Z"/>
  </g>
  <g id="Semibold-L" transform="matrix(1 0 0 1 1959.4 1556)">
   <path d="M115.039 34.5703C118.652 34.5703 120.801 32.0312 120.801 28.0762L120.801 9.86328L127.295 9.86328C142.236 9.86328 151.66 0.439453 151.66-14.7461L151.66-70.0684C151.66-85.4492 141.992-94.5312 126.709-94.5312L41.0156-94.5312C25.293-94.5312 16.0645-85.4004 16.0645-70.0684L16.0645-14.7461C16.0645 0.537109 25.293 9.86328 41.0156 9.86328L84.3262 9.86328L107.666 30.7129C110.645 33.3984 112.549 34.5703 115.039 34.5703Z"/>
  </g>
  <g id="Medium-L" transform="matrix(1 0 0 1 1663.21 1556)">
   <path d="M114.551 33.9844C117.92 33.9844 119.971 31.5918 119.971 27.8809L119.971 9.61914L126.465 9.61914C141.113 9.61914 150.635 0.0488281 150.635-14.9414L150.635-70.0684C150.635-85.2051 141.016-94.2383 126.123-94.2383L40.5762-94.2383C25.2441-94.2383 16.0645-85.1562 16.0645-70.0684L16.0645-14.9414C16.0645 0.0976562 25.2441 9.61914 40.5762 9.61914L84.5215 9.61914L107.666 30.3223C110.4 32.8613 112.207 33.9844 114.551 33.9844Z"/>
  </g>
  <g id="Regular-L" transform="matrix(1 0 0 1 1367.13 1556)">
   <path d="M113.916 33.252C116.992 33.252 118.848 31.0059 118.848 27.5879L118.848 9.27734L125.342 9.27734C139.697 9.27734 149.365-0.439453 149.365-15.2832L149.365-70.0684C149.365-84.9121 139.697-93.8477 125.342-93.8477L40.0879-93.8477C25.1953-93.8477 16.0645-84.8633 16.0645-70.0684L16.0645-15.2832C16.0645-0.488281 25.1953 9.27734 40.0879 9.27734L84.8145 9.27734L107.617 29.834C110.156 32.1289 111.719 33.252 113.916 33.252Z"/>
  </g>
  <g id="Light-L" transform="matrix(1 0 0 1 1070.54 1556)">
   <path d="M115.918 31.7871C118.359 31.7871 119.873 29.9805 119.873 27.2461L119.873 8.93555L125.635 8.93555C139.795 8.93555 149.121-0.439453 149.121-14.8926L149.121-69.873C149.121-84.375 139.795-93.2617 125.635-93.2617L39.5996-93.2617C25.0977-93.2617 16.0645-84.2773 16.0645-69.873L16.0645-14.8926C16.0645-0.537109 25.0977 8.93555 39.5996 8.93555L88.0859 8.93555L110.938 29.1016C112.842 30.8105 114.16 31.7871 115.918 31.7871Z"/>
  </g>
  <g id="Thin-L" transform="matrix(1 0 0 1 773.976 1556)">
   <path d="M118.555 29.834C120.117 29.834 121.289 28.6133 121.289 26.709L121.289 8.49609L125.977 8.49609C139.893 8.49609 148.828-0.439453 148.828-14.4043L148.828-69.6777C148.828-83.6426 139.893-92.4805 125.977-92.4805L38.916-92.4805C24.9512-92.4805 16.0645-83.4961 16.0645-69.6777L16.0645-14.4043C16.0645-0.585938 24.9512 8.49609 38.916 8.49609L92.3828 8.49609L115.283 28.1738C116.357 29.1016 117.334 29.834 118.555 29.834Z"/>
  </g>
  <g id="Ultralight-L" transform="matrix(1 0 0 1 477.338 1556)">
   <path d="M119.873 28.8086C121.045 28.8086 122.021 27.9297 122.021 26.4648L122.021 8.30078L126.172 8.30078C139.941 8.30078 148.682-0.439453 148.682-14.1602L148.682-69.5312C148.682-83.252 139.941-92.0898 126.172-92.0898L38.5742-92.0898C24.8535-92.0898 16.0645-83.1055 16.0645-69.5312L16.0645-14.1602C16.0645-0.634766 24.8535 8.30078 38.5742 8.30078L94.5801 8.30078L117.48 27.7344C118.213 28.2227 118.994 28.8086 119.873 28.8086Z"/>
  </g>
  <g id="Black-M" transform="matrix(1 0 0 1 2865.38 1126)">
   <path d="M93.2617 21.4844C97.0215 21.4844 99.4141 18.9941 99.4141 14.8926L99.4141 1.02539L104.004 1.02539C116.943 1.02539 123.584-5.27344 123.584-17.6758L123.584-62.1582C123.486-75.293 116.211-82.7148 102.002-82.7148L33.9355-82.7148C19.7266-82.7148 12.4512-75.293 12.4512-62.1582L12.4512-17.6758C12.4512-4.6875 19.7266 1.02539 33.9355 1.02539L65.7715 1.02539L85.3516 17.8711C88.4766 20.6055 90.7227 21.4844 93.2617 21.4844Z"/>
  </g>
  <g id="Heavy-M" transform="matrix(1 0 0 1 2569.6 1126)">
   <path d="M91.8457 20.8496C95.3613 20.8496 97.5586 18.457 97.5586 14.5996L97.5586 0.683594L102.344 0.683594C114.893 0.683594 121.729-6.00586 121.729-18.2129L121.729-62.207C121.68-75 114.355-82.3242 100.83-82.3242L33.3496-82.3242C19.7266-82.3242 12.4512-75 12.4512-62.207L12.4512-18.2129C12.4512-5.56641 19.7266 0.683594 33.3496 0.683594L65.332 0.683594L84.4238 17.334C87.3535 19.9219 89.4043 20.8496 91.8457 20.8496Z"/>
  </g>
  <g id="Bold-M" transform="matrix(1 0 0 1 2273.89 1126)">
   <path d="M90.2344 20.0684C93.457 20.0684 95.459 17.8711 95.459 14.2578L95.459 0.244141L100.488 0.244141C112.598 0.244141 119.727-6.78711 119.727-18.8477L119.727-62.2559C119.678-74.6582 112.207-81.8848 99.5117-81.8848L32.666-81.8848C19.6777-81.8848 12.4512-74.6582 12.4512-62.2559L12.4512-18.8477C12.4512-6.49414 19.6777 0.244141 32.666 0.244141L64.8438 0.244141L83.4473 16.748C86.1328 19.1895 87.9395 20.0684 90.2344 20.0684Z"/>
  </g>
  <g id="Semibold-M" transform="matrix(1 0 0 1 1977.89 1126)">
   <path d="M89.1113 19.5801C92.1875 19.5801 93.9941 17.4316 93.9941 14.0625L93.9941-0.0488281L99.2188-0.0488281C110.986-0.0488281 118.311-7.32422 118.311-19.2383L118.311-62.2559C118.311-74.4629 110.791-81.543 98.584-81.543L32.1777-81.543C19.6289-81.543 12.4512-74.4141 12.4512-62.2559L12.4512-19.2383C12.4512-7.17773 19.6289-0.0488281 32.1777-0.0488281L64.502-0.0488281L82.7637 16.3086C85.3027 18.6523 86.9629 19.5801 89.1113 19.5801Z"/>
  </g>
  <g id="Medium-M" transform="matrix(1 0 0 1 1681.71 1126)">
   <path d="M88.2324 19.1895C91.2109 19.1895 92.9199 17.1387 92.9199 13.916L92.9199-0.244141L98.2422-0.244141C109.814-0.244141 117.236-7.71484 117.236-19.5801L117.236-62.3047C117.236-74.2676 109.668-81.2988 97.9004-81.2988L31.8359-81.2988C19.6289-81.2988 12.4512-74.2676 12.4512-62.3047L12.4512-19.5801C12.4512-7.66602 19.6289-0.244141 31.8359-0.244141L64.209-0.244141L82.2266 16.0156C84.668 18.2129 86.1816 19.1895 88.2324 19.1895Z"/>
  </g>
  <g id="Regular-M" transform="matrix(1 0 0 1 1385.68 1126)">
   <path d="M87.1582 18.7012C89.8926 18.7012 91.5039 16.6992 91.5039 13.6719L91.5039-0.537109L96.9727-0.537109C108.252-0.537109 115.869-8.25195 115.869-19.9707L115.869-62.3047C115.869-74.0723 108.252-81.0059 96.9727-81.0059L31.3477-81.0059C19.5801-81.0059 12.4512-74.0234 12.4512-62.3047L12.4512-19.9707C12.4512-8.30078 19.5801-0.537109 31.3477-0.537109L63.8672-0.537109L81.543 15.5762C83.8379 17.7246 85.2051 18.7012 87.1582 18.7012Z"/>
  </g>
  <g id="Light-M" transform="matrix(1 0 0 1 1089.07 1126)">
   <path d="M88.916 17.3828C91.1133 17.3828 92.4316 15.7715 92.4316 13.3301L92.4316-0.830078L97.2168-0.830078C108.301-0.830078 115.674-8.25195 115.674-19.6289L115.674-62.1582C115.674-73.584 108.301-80.4688 97.2168-80.4688L30.9082-80.4688C19.4824-80.4688 12.4512-73.4863 12.4512-62.1582L12.4512-19.6289C12.4512-8.34961 19.4824-0.830078 30.9082-0.830078L66.7969-0.830078L84.4727 14.9414C86.2305 16.5527 87.4023 17.3828 88.916 17.3828Z"/>
  </g>
  <g id="Thin-M" transform="matrix(1 0 0 1 792.482 1126)">
   <path d="M91.3086 15.625C92.7246 15.625 93.7012 14.5508 93.7012 12.8906L93.7012-1.2207L97.5586-1.2207C108.398-1.2207 115.43-8.25195 115.43-19.1895L115.43-61.9629C115.43-72.9004 108.398-79.7852 97.5586-79.7852L30.3223-79.7852C19.3848-79.7852 12.4512-72.8027 12.4512-61.9629L12.4512-19.1895C12.4512-8.39844 19.3848-1.2207 30.3223-1.2207L70.6543-1.2207L88.3789 14.1113C89.4043 14.9902 90.2344 15.625 91.3086 15.625Z"/>
  </g>
  <g id="Ultralight-M" transform="matrix(1 0 0 1 495.844 1126)">
   <path d="M92.5293 14.6973C93.5547 14.6973 94.3359 13.916 94.3359 12.6465L94.3359-1.41602L97.7051-1.41602C108.447-1.41602 115.283-8.25195 115.283-18.9941L115.283-61.8652C115.283-72.5586 108.447-79.4434 97.7051-79.4434L29.9805-79.4434C19.2871-79.4434 12.4512-72.4609 12.4512-61.8652L12.4512-18.9941C12.4512-8.39844 19.2871-1.41602 29.9805-1.41602L72.6074-1.41602L90.3809 13.6719C91.0645 14.209 91.6992 14.6973 92.5293 14.6973Z"/>
  </g>
  <g id="Black-S" transform="matrix(1 0 0 1 2880.18 696)">
   <path d="M72.9492 9.17969C75.8789 9.17969 77.7344 7.22656 77.7344 4.00391L77.7344-6.83594L81.3477-6.83594C91.4551-6.83594 96.6797-11.8164 96.6797-21.5332L96.6797-56.3477C96.6309-66.6016 90.918-72.4121 79.834-72.4121L26.5625-72.4121C15.4785-72.4121 9.76562-66.6016 9.76562-56.3477L9.76562-21.5332C9.76562-11.377 15.4785-6.83594 26.5625-6.83594L51.4648-6.83594L66.748 6.34766C69.1895 8.49609 70.9473 9.17969 72.9492 9.17969Z"/>
  </g>
  <g id="Heavy-S" transform="matrix(1 0 0 1 2584.15 696)">
   <path d="M71.6309 8.83789C74.4629 8.83789 76.2207 6.93359 76.2207 3.80859L76.2207-7.08008L80.0781-7.08008C89.8926-7.08008 95.3125-12.3535 95.3125-21.9727L95.3125-56.3965C95.2637-66.4551 89.4531-72.168 78.9062-72.168L26.123-72.168C15.4785-72.168 9.76562-66.4551 9.76562-56.3965L9.76562-21.9727C9.76562-12.0117 15.4785-7.08008 26.123-7.08008L50.7812-7.08008L65.7227 6.00586C68.0664 8.10547 69.7266 8.83789 71.6309 8.83789Z"/>
  </g>
  <g id="Bold-S" transform="matrix(1 0 0 1 2288.2 696)">
   <path d="M70.166 8.39844C72.8516 8.39844 74.5117 6.5918 74.5117 3.61328L74.5117-7.37305L78.6133-7.37305C88.1348-7.37305 93.7988-12.9883 93.7988-22.4609L93.7988-56.4453C93.75-66.2598 87.8418-71.875 77.832-71.875L25.6836-71.875C15.4297-71.875 9.76562-66.2598 9.76562-56.4453L9.76562-22.4609C9.76562-12.7441 15.4297-7.37305 25.6836-7.37305L50.0488-7.37305L64.5996 5.61523C66.8457 7.66602 68.3105 8.39844 70.166 8.39844Z"/>
  </g>
  <g id="Semibold-S" transform="matrix(1 0 0 1 1992.02 696)">
   <path d="M69.1895 8.1543C71.7773 8.1543 73.291 6.34766 73.291 3.51562L73.291-7.56836L77.5879-7.56836C86.9141-7.56836 92.7246-13.3789 92.7246-22.8516L92.7246-56.4453C92.7246-66.1133 86.7188-71.6797 77.1484-71.6797L25.3418-71.6797C15.4297-71.6797 9.76562-66.1133 9.76562-56.4453L9.76562-22.8516C9.76562-13.2324 15.4297-7.56836 25.3418-7.56836L49.5605-7.56836L63.8184 5.37109C66.0156 7.32422 67.3828 8.1543 69.1895 8.1543Z"/>
  </g>
  <g id="Medium-S" transform="matrix(1 0 0 1 1695.7 696)">
   <path d="M68.4082 7.91016C70.9473 7.91016 72.4121 6.15234 72.4121 3.41797L72.4121-7.71484L76.8555-7.71484C85.9863-7.71484 91.9434-13.7207 91.9434-23.0957L91.9434-56.4941C91.9434-66.0156 85.8887-71.5332 76.5625-71.5332L25.0977-71.5332C15.4297-71.5332 9.76562-66.0156 9.76562-56.4941L9.76562-23.0957C9.76562-13.623 15.4297-7.71484 25.0977-7.71484L49.1699-7.71484L63.2324 5.12695C65.3809 7.12891 66.6504 7.91016 68.4082 7.91016Z"/>
  </g>
  <g id="Regular-S" transform="matrix(1 0 0 1 1399.53 696)">
   <path d="M67.4316 7.66602C69.873 7.66602 71.2402 5.9082 71.2402 3.27148L71.2402-7.91016L75.8789-7.91016C84.7656-7.91016 90.8691-14.1113 90.8691-23.4375L90.8691-56.543C90.8691-65.8691 84.7656-71.3379 75.8789-71.3379L24.8047-71.3379C15.4297-71.3379 9.76562-65.8691 9.76562-56.543L9.76562-23.4375C9.76562-14.1113 15.4297-7.91016 24.8047-7.91016L48.6328-7.91016L62.4512 4.88281C64.5508 6.78711 65.7227 7.66602 67.4316 7.66602Z"/>
  </g>
  <g id="Light-S" transform="matrix(1 0 0 1 1102.89 696)">
   <path d="M68.9941 6.49414C70.9473 6.49414 72.0703 5.07812 72.0703 2.97852L72.0703-8.1543L76.0742-8.1543C84.8145-8.1543 90.7227-14.1113 90.7227-23.1445L90.7227-56.3965C90.7227-65.4297 84.8145-70.8984 76.0742-70.8984L24.3652-70.8984C15.332-70.8984 9.76562-65.4297 9.76562-56.3965L9.76562-23.1445C9.76562-14.1602 15.332-8.1543 24.3652-8.1543L51.2207-8.1543L65.0879 4.3457C66.6504 5.76172 67.627 6.49414 68.9941 6.49414Z"/>
  </g>
  <g id="Thin-S" transform="matrix(1 0 0 1 806.3 696)">
   <path d="M71.0938 4.93164C72.3633 4.93164 73.1934 4.00391 73.1934 2.53906L73.1934-8.49609L76.3672-8.49609C84.9121-8.49609 90.4785-14.1113 90.4785-22.7539L90.4785-56.2012C90.4785-64.8926 84.9121-70.2637 76.3672-70.2637L23.877-70.2637C15.2344-70.2637 9.76562-64.7949 9.76562-56.2012L9.76562-22.7539C9.76562-14.1602 15.2344-8.49609 23.877-8.49609L54.6387-8.49609L68.5059 3.61328C69.4824 4.44336 70.166 4.93164 71.0938 4.93164Z"/>
  </g>
  <g id="Ultralight-S" transform="matrix(1 0 0 1 509.638 696)">
   <path d="M72.168 4.15039C73.0957 4.15039 73.7305 3.4668 73.7305 2.34375L73.7305-8.69141L76.5137-8.69141C84.9609-8.69141 90.3809-14.1113 90.3809-22.5586L90.3809-56.1035C90.3809-64.5508 84.9609-69.9219 76.5137-69.9219L23.584-69.9219C15.1367-69.9219 9.76562-64.4531 9.76562-56.1035L9.76562-22.5586C9.76562-14.209 15.1367-8.69141 23.584-8.69141L56.3965-8.69141L70.3125 3.22266C70.8984 3.71094 71.4844 4.15039 72.168 4.15039Z"/>
  </g>
 </g>
</svg>
