<?xml version="1.0" encoding="UTF-8"?>
<!--Generator: Apple Native CoreSVG 149-->
<!DOCTYPE svg
PUBLIC "-//W3C//DTD SVG 1.1//EN"
       "http://www.w3.org/Graphics/SVG/1.1/DTD/svg11.dtd">
<svg version="1.1" xmlns="http://www.w3.org/2000/svg" xmlns:xlink="http://www.w3.org/1999/xlink" width="3300" height="2200">
 <!--glyph: "uni100328.medium", point size: 100.000000, font version: "Version 16.0d12e3", template writer version: "8"-->
 <g id="Notes">
  <rect height="2200" id="artboard" style="fill:white;opacity:1" width="3300" x="0" y="0"/>
  <line id="" style="fill:none;stroke:black;opacity:1;stroke-width:0.5;" x1="263" x2="3036" y1="292" y2="292"/>
  <text style="stroke:none;fill:black;font-family:-apple-system,&quot;SF Pro Display&quot;,&quot;SF Pro Text&quot;,Helvetica,sans-serif;font-weight:bold;" transform="matrix(1 0 0 1 263 322)">Weight/Scale Variations</text>
  <text style="stroke:none;fill:black;font-family:-apple-system,&quot;SF Pro Display&quot;,&quot;SF Pro Text&quot;,Helvetica,sans-serif;text-anchor:middle;" transform="matrix(1 0 0 1 559.711 322)">Ultralight</text>
  <text style="stroke:none;fill:black;font-family:-apple-system,&quot;SF Pro Display&quot;,&quot;SF Pro Text&quot;,Helvetica,sans-serif;text-anchor:middle;" transform="matrix(1 0 0 1 856.422 322)">Thin</text>
  <text style="stroke:none;fill:black;font-family:-apple-system,&quot;SF Pro Display&quot;,&quot;SF Pro Text&quot;,Helvetica,sans-serif;text-anchor:middle;" transform="matrix(1 0 0 1 1153.13 322)">Light</text>
  <text style="stroke:none;fill:black;font-family:-apple-system,&quot;SF Pro Display&quot;,&quot;SF Pro Text&quot;,Helvetica,sans-serif;text-anchor:middle;" transform="matrix(1 0 0 1 1449.84 322)">Regular</text>
  <text style="stroke:none;fill:black;font-family:-apple-system,&quot;SF Pro Display&quot;,&quot;SF Pro Text&quot;,Helvetica,sans-serif;text-anchor:middle;" transform="matrix(1 0 0 1 1746.56 322)">Medium</text>
  <text style="stroke:none;fill:black;font-family:-apple-system,&quot;SF Pro Display&quot;,&quot;SF Pro Text&quot;,Helvetica,sans-serif;text-anchor:middle;" transform="matrix(1 0 0 1 2043.27 322)">Semibold</text>
  <text style="stroke:none;fill:black;font-family:-apple-system,&quot;SF Pro Display&quot;,&quot;SF Pro Text&quot;,Helvetica,sans-serif;text-anchor:middle;" transform="matrix(1 0 0 1 2339.98 322)">Bold</text>
  <text style="stroke:none;fill:black;font-family:-apple-system,&quot;SF Pro Display&quot;,&quot;SF Pro Text&quot;,Helvetica,sans-serif;text-anchor:middle;" transform="matrix(1 0 0 1 2636.69 322)">Heavy</text>
  <text style="stroke:none;fill:black;font-family:-apple-system,&quot;SF Pro Display&quot;,&quot;SF Pro Text&quot;,Helvetica,sans-serif;text-anchor:middle;" transform="matrix(1 0 0 1 2933.4 322)">Black</text>
  <line id="" style="fill:none;stroke:black;opacity:1;stroke-width:0.5;" x1="263" x2="3036" y1="1903" y2="1903"/>
  <g id="" transform="matrix(1 0 0 1 263 1933)">
   <path d="M9.24805 0.830078C13.5547 0.830078 17.1387-2.74414 17.1387-7.05078C17.1387-11.3574 13.5449-14.9316 9.23828-14.9316C4.94141-14.9316 1.36719-11.3574 1.36719-7.05078C1.36719-2.74414 4.95117 0.830078 9.24805 0.830078ZM9.24805-0.654297C5.70312-0.654297 2.87109-3.49609 2.87109-7.05078C2.87109-10.6055 5.69336-13.4473 9.23828-13.4473C12.793-13.4473 15.6348-10.6055 15.6445-7.05078C15.6543-3.49609 12.8027-0.654297 9.24805-0.654297ZM9.22852-3.62305C9.69727-3.62305 9.9707-3.93555 9.9707-4.45312L9.9707-6.31836L12.002-6.31836C12.5-6.31836 12.832-6.57227 12.832-7.04102C12.832-7.51953 12.5195-7.7832 12.002-7.7832L9.9707-7.7832L9.9707-9.81445C9.9707-10.332 9.69727-10.6543 9.22852-10.6543C8.75977-10.6543 8.50586-10.3125 8.50586-9.81445L8.50586-7.7832L6.49414-7.7832C5.97656-7.7832 5.64453-7.51953 5.64453-7.04102C5.64453-6.57227 5.99609-6.31836 6.49414-6.31836L8.50586-6.31836L8.50586-4.45312C8.50586-3.95508 8.75977-3.62305 9.22852-3.62305Z"/>
  </g>
  <g id="" transform="matrix(1 0 0 1 281.506 1933)">
   <path d="M11.709 2.91016C17.1582 2.91016 21.6699-1.61133 21.6699-7.05078C21.6699-12.5 17.1484-17.0117 11.6992-17.0117C6.25977-17.0117 1.74805-12.5 1.74805-7.05078C1.74805-1.61133 6.26953 2.91016 11.709 2.91016ZM11.709 1.25C7.09961 1.25 3.41797-2.44141 3.41797-7.05078C3.41797-11.6602 7.08984-15.3516 11.6992-15.3516C16.3086-15.3516 20-11.6602 20.0098-7.05078C20.0195-2.44141 16.3184 1.25 11.709 1.25ZM11.6797-2.66602C12.207-2.66602 12.5098-3.01758 12.5098-3.59375L12.5098-6.23047L15.3223-6.23047C15.8691-6.23047 16.25-6.51367 16.25-7.03125C16.25-7.55859 15.8887-7.86133 15.3223-7.86133L12.5098-7.86133L12.5098-10.6836C12.5098-11.25 12.207-11.6113 11.6797-11.6113C11.1621-11.6113 10.8789-11.2305 10.8789-10.6836L10.8789-7.86133L8.07617-7.86133C7.50977-7.86133 7.13867-7.55859 7.13867-7.03125C7.13867-6.51367 7.5293-6.23047 8.07617-6.23047L10.8789-6.23047L10.8789-3.59375C10.8789-3.03711 11.1621-2.66602 11.6797-2.66602Z"/>
  </g>
  <g id="" transform="matrix(1 0 0 1 304.924 1933)">
   <path d="M14.9707 5.66406C21.9336 5.66406 27.6953-0.0976562 27.6953-7.05078C27.6953-14.0137 21.9238-19.7754 14.9609-19.7754C8.00781-19.7754 2.25586-14.0137 2.25586-7.05078C2.25586-0.0976562 8.01758 5.66406 14.9707 5.66406ZM14.9707 3.84766C8.93555 3.84766 4.08203-1.01562 4.08203-7.05078C4.08203-13.0957 8.92578-17.9492 14.9609-17.9492C21.0059-17.9492 25.8594-13.0957 25.8691-7.05078C25.8789-1.01562 21.0156 3.84766 14.9707 3.84766ZM14.9414-1.38672C15.5176-1.38672 15.8594-1.77734 15.8594-2.38281L15.8594-6.13281L19.7754-6.13281C20.3711-6.13281 20.7812-6.46484 20.7812-7.02148C20.7812-7.59766 20.3906-7.93945 19.7754-7.93945L15.8594-7.93945L15.8594-11.8652C15.8594-12.4805 15.5176-12.8711 14.9414-12.8711C14.375-12.8711 14.0527-12.4609 14.0527-11.8652L14.0527-7.93945L10.1465-7.93945C9.53125-7.93945 9.13086-7.59766 9.13086-7.02148C9.13086-6.46484 9.55078-6.13281 10.1465-6.13281L14.0527-6.13281L14.0527-2.38281C14.0527-1.79688 14.375-1.38672 14.9414-1.38672Z"/>
  </g>
  <text style="stroke:none;fill:black;font-family:-apple-system,&quot;SF Pro Display&quot;,&quot;SF Pro Text&quot;,Helvetica,sans-serif;font-weight:bold;" transform="matrix(1 0 0 1 263 1953)">Design Variations</text>
  <text style="stroke:none;fill:black;font-family:-apple-system,&quot;SF Pro Display&quot;,&quot;SF Pro Text&quot;,Helvetica,sans-serif;" transform="matrix(1 0 0 1 263 1971)">Symbols are supported in up to nine weights and three scales.</text>
  <text style="stroke:none;fill:black;font-family:-apple-system,&quot;SF Pro Display&quot;,&quot;SF Pro Text&quot;,Helvetica,sans-serif;" transform="matrix(1 0 0 1 263 1989)">For optimal layout with text and other symbols, vertically align</text>
  <text style="stroke:none;fill:black;font-family:-apple-system,&quot;SF Pro Display&quot;,&quot;SF Pro Text&quot;,Helvetica,sans-serif;" transform="matrix(1 0 0 1 263 2007)">symbols with the adjacent text.</text>
  <line id="" style="fill:none;stroke:#00AEEF;stroke-width:0.5;opacity:1.0;" x1="776" x2="776" y1="1919" y2="1933"/>
  <g id="" transform="matrix(1 0 0 1 776 1933)">
   <path d="M3.31055 0.126953C3.82812 0.126953 4.08203-0.0683594 4.26758-0.605469L5.52734-4.0625L11.2891-4.0625L12.5488-0.605469C12.7344-0.0683594 12.9883 0.126953 13.4961 0.126953C14.0137 0.126953 14.3457-0.185547 14.3457-0.673828C14.3457-0.839844 14.3164-0.986328 14.2383-1.20117L9.6582-13.3887C9.43359-13.9941 9.0332-14.2871 8.4082-14.2871C7.80273-14.2871 7.39258-13.9941 7.17773-13.3984L2.59766-1.19141C2.51953-0.976562 2.49023-0.830078 2.49023-0.664062C2.49023-0.175781 2.80273 0.126953 3.31055 0.126953ZM6.00586-5.53711L8.37891-12.1094L8.42773-12.1094L10.8008-5.53711Z"/>
  </g>
  <line id="" style="fill:none;stroke:#00AEEF;stroke-width:0.5;opacity:1.0;" x1="792.836" x2="792.836" y1="1919" y2="1933"/>
  <text style="stroke:none;fill:black;font-family:-apple-system,&quot;SF Pro Display&quot;,&quot;SF Pro Text&quot;,Helvetica,sans-serif;font-weight:bold;" transform="matrix(1 0 0 1 776 1953)">Margins</text>
  <text style="stroke:none;fill:black;font-family:-apple-system,&quot;SF Pro Display&quot;,&quot;SF Pro Text&quot;,Helvetica,sans-serif;" transform="matrix(1 0 0 1 776 1971)">Leading and trailing margins on the left and right side of each symbol</text>
  <text style="stroke:none;fill:black;font-family:-apple-system,&quot;SF Pro Display&quot;,&quot;SF Pro Text&quot;,Helvetica,sans-serif;" transform="matrix(1 0 0 1 776 1989)">can be adjusted by modifying the x-location of the margin guidelines.</text>
  <text style="stroke:none;fill:black;font-family:-apple-system,&quot;SF Pro Display&quot;,&quot;SF Pro Text&quot;,Helvetica,sans-serif;" transform="matrix(1 0 0 1 776 2007)">Modifications are automatically applied proportionally to all</text>
  <text style="stroke:none;fill:black;font-family:-apple-system,&quot;SF Pro Display&quot;,&quot;SF Pro Text&quot;,Helvetica,sans-serif;" transform="matrix(1 0 0 1 776 2025)">scales and weights.</text>
  <g id="" transform="matrix(1 0 0 1 1289 1933)">
   <path d="M2.8418 1.86523L4.54102 3.57422C5.40039 4.44336 6.38672 4.38477 7.31445 3.35938L17.4902-7.85156C17.7539-7.76367 18.0273-7.7832 18.3398-7.8418L19.4043-8.03711L20.0684-7.36328L20.0293-6.80664C19.9902-6.30859 20.1172-5.92773 20.6055-5.44922L21.3672-4.70703C21.8457-4.22852 22.4609-4.19922 22.9297-4.66797L25.8398-7.58789C26.3086-8.05664 26.2891-8.65234 25.8105-9.13086L25.0391-9.89258C24.5605-10.3711 24.1895-10.5273 23.7109-10.4883L23.1348-10.4395L22.4902-11.0742L22.7344-12.1973C22.8613-12.7637 22.7051-13.2031 22.1191-13.7891L19.9219-15.9766C16.582-19.2969 12.1484-19.2188 9.25781-16.3281C8.83789-15.918 8.80859-15.3418 9.04297-14.9512C9.27734-14.5898 9.73633-14.3555 10.3809-14.5215C11.8457-14.8633 13.3691-14.9219 14.7949-13.9844L14.209-12.5293C14.0137-12.0508 13.9844-11.6504 14.1113-11.2891L3.04688-0.898438C2.06055 0.0195312 1.98242 0.996094 2.8418 1.86523ZM10.752-15.957C13.1836-17.7344 16.4746-17.4316 18.7012-15.2051L21.1328-12.793C21.3672-12.5586 21.4062-12.373 21.3379-12.0312L21.0156-10.5469L22.5195-9.0625L23.5059-9.12109C23.7598-9.13086 23.8379-9.11133 24.0332-8.91602L24.6094-8.33984L22.168-5.89844L21.5918-6.47461C21.3965-6.66992 21.3672-6.74805 21.377-7.01172L21.4453-7.98828L19.9512-9.47266L18.4277-9.21875C18.1055-9.15039 17.959-9.17969 17.7148-9.41406L15.7129-11.416C15.459-11.6504 15.4297-11.8164 15.5859-12.1875L16.4648-14.2773C14.9023-15.7324 12.8711-16.3574 10.8398-15.7617C10.6836-15.7227 10.625-15.8496 10.752-15.957ZM5.27344 2.30469L4.10156 1.14258C3.63281 0.683594 3.74023 0.341797 4.14062-0.0195312L14.9512-10.1953L16.416-8.71094L6.42578 2.27539C6.07422 2.67578 5.74219 2.77344 5.27344 2.30469Z"/>
  </g>
  <text style="stroke:none;fill:black;font-family:-apple-system,&quot;SF Pro Display&quot;,&quot;SF Pro Text&quot;,Helvetica,sans-serif;font-weight:bold;" transform="matrix(1 0 0 1 1289 1953)">Exporting</text>
  <text style="stroke:none;fill:black;font-family:-apple-system,&quot;SF Pro Display&quot;,&quot;SF Pro Text&quot;,Helvetica,sans-serif;" transform="matrix(1 0 0 1 1289 1971)">Symbols should be outlined when exporting to ensure the</text>
  <text style="stroke:none;fill:black;font-family:-apple-system,&quot;SF Pro Display&quot;,&quot;SF Pro Text&quot;,Helvetica,sans-serif;" transform="matrix(1 0 0 1 1289 1989)">design is preserved when submitting to Xcode.</text>
  <text id="template-version" style="stroke:none;fill:black;font-family:-apple-system,&quot;SF Pro Display&quot;,&quot;SF Pro Text&quot;,Helvetica,sans-serif;text-anchor:end;" transform="matrix(1 0 0 1 3036 1933)">Template v.2.0</text>
  <text style="stroke:none;fill:black;font-family:-apple-system,&quot;SF Pro Display&quot;,&quot;SF Pro Text&quot;,Helvetica,sans-serif;text-anchor:end;" transform="matrix(1 0 0 1 3036 1951)">Requires Xcode 12 or greater</text>
  <text style="stroke:none;fill:black;font-family:-apple-system,&quot;SF Pro Display&quot;,&quot;SF Pro Text&quot;,Helvetica,sans-serif;text-anchor:end;" transform="matrix(1 0 0 1 3036 1969)">Generated from bubble.right</text>
  <text style="stroke:none;fill:black;font-family:-apple-system,&quot;SF Pro Display&quot;,&quot;SF Pro Text&quot;,Helvetica,sans-serif;text-anchor:end;" transform="matrix(1 0 0 1 3036 1987)">Typeset at 100 points</text>
  <text style="stroke:none;fill:black;font-family:-apple-system,&quot;SF Pro Display&quot;,&quot;SF Pro Text&quot;,Helvetica,sans-serif;" transform="matrix(1 0 0 1 263 726)">Small</text>
  <text style="stroke:none;fill:black;font-family:-apple-system,&quot;SF Pro Display&quot;,&quot;SF Pro Text&quot;,Helvetica,sans-serif;" transform="matrix(1 0 0 1 263 1156)">Medium</text>
  <text style="stroke:none;fill:black;font-family:-apple-system,&quot;SF Pro Display&quot;,&quot;SF Pro Text&quot;,Helvetica,sans-serif;" transform="matrix(1 0 0 1 263 1586)">Large</text>
 </g>
 <g id="Guides">
  <g id="H-reference" style="fill:#27AAE1;stroke:none;" transform="matrix(1 0 0 1 339 696)">
   <path d="M0.976562 0L3.66211 0L12.9883-24.4629L45.752-24.4629L55.127 0L57.7637 0L30.6152-70.459L28.125-70.459ZM29.3457-67.1387L29.4434-67.1387L44.873-26.709L13.8672-26.709Z"/>
  </g>
  <line id="Baseline-S" style="fill:none;stroke:#27AAE1;opacity:1;stroke-width:0.5;" x1="263" x2="3036" y1="696" y2="696"/>
  <line id="Capline-S" style="fill:none;stroke:#27AAE1;opacity:1;stroke-width:0.5;" x1="263" x2="3036" y1="625.541" y2="625.541"/>
  <g id="H-reference" style="fill:#27AAE1;stroke:none;" transform="matrix(1 0 0 1 339 1126)">
   <path d="M0.976562 0L3.66211 0L12.9883-24.4629L45.752-24.4629L55.127 0L57.7637 0L30.6152-70.459L28.125-70.459ZM29.3457-67.1387L29.4434-67.1387L44.873-26.709L13.8672-26.709Z"/>
  </g>
  <line id="Baseline-M" style="fill:none;stroke:#27AAE1;opacity:1;stroke-width:0.5;" x1="263" x2="3036" y1="1126" y2="1126"/>
  <line id="Capline-M" style="fill:none;stroke:#27AAE1;opacity:1;stroke-width:0.5;" x1="263" x2="3036" y1="1055.54" y2="1055.54"/>
  <g id="H-reference" style="fill:#27AAE1;stroke:none;" transform="matrix(1 0 0 1 339 1556)">
   <path d="M0.976562 0L3.66211 0L12.9883-24.4629L45.752-24.4629L55.127 0L57.7637 0L30.6152-70.459L28.125-70.459ZM29.3457-67.1387L29.4434-67.1387L44.873-26.709L13.8672-26.709Z"/>
  </g>
  <line id="Baseline-L" style="fill:none;stroke:#27AAE1;opacity:1;stroke-width:0.5;" x1="263" x2="3036" y1="1556" y2="1556"/>
  <line id="Capline-L" style="fill:none;stroke:#27AAE1;opacity:1;stroke-width:0.5;" x1="263" x2="3036" y1="1485.54" y2="1485.54"/>
  <line id="left-margin" style="fill:none;stroke:#00AEEF;stroke-width:0.5;opacity:1.0;" x1="1383.58" x2="1383.58" y1="1030.79" y2="1150.12"/>
  <line id="right-margin" style="fill:none;stroke:#00AEEF;stroke-width:0.5;opacity:1.0;" x1="1516.1" x2="1516.1" y1="1030.79" y2="1150.12"/>
 </g>
 <g id="Symbols">
  <g id="Black-L" transform="matrix(1 0 0 1 2846.24 1556)">
   <path d="M114.6 38.5742C122.07 38.5742 126.66 33.5938 126.66 25.3906L126.66 12.8418L127.588 12.8418C144.531 12.8418 158.252 0.195312 158.252-19.5801L158.252-70.1172C158.252-89.8926 145.703-102.539 125.83-102.539L48.4863-102.539C28.6133-102.539 16.0645-89.8926 16.0645-70.1172L16.0645-19.5801C16.0645 0.195312 28.6133 12.8418 48.4863 12.8418L78.0273 12.8418L98.9746 31.1035C105.273 36.5234 109.521 38.5742 114.6 38.5742ZM109.766 16.2598L90.4785-2.7832C86.8164-6.34766 84.7168-7.37305 79.7852-7.37305L50-7.37305C40.8203-7.37305 36.3281-11.8652 36.3281-21.0938L36.3281-68.6035C36.3281-77.832 40.8203-82.2754 50-82.2754L124.316-82.2754C133.496-82.2754 138.037-77.832 138.037-68.6035L138.037-21.0938C138.037-11.8652 133.496-7.37305 124.316-7.37305L116.455-7.37305C112.305-7.37305 109.766-5.56641 109.766-0.732422Z"/>
  </g>
  <g id="Heavy-L" transform="matrix(1 0 0 1 2550.07 1556)">
   <path d="M115.039 37.2559C121.631 37.2559 125.635 32.8125 125.635 25.5371L125.635 12.0117L127.246 12.0117C144.385 12.0117 157.178 0 157.178-19.2383L157.178-69.6289C157.178-88.8672 145.264-100.879 125.879-100.879L47.3145-100.879C27.9785-100.879 16.0645-88.8184 16.0645-69.6289L16.0645-19.2383C16.0645-0.0488281 27.9785 12.0117 47.3145 12.0117L80.127 12.0117L101.318 30.5176C106.836 35.3516 110.547 37.2559 115.039 37.2559ZM110.84 17.8711L91.2598-1.31836C87.9395-4.58984 85.9863-5.46875 81.4453-5.46875L48.4863-5.46875C38.5742-5.46875 33.5938-10.498 33.5938-20.4102L33.5938-68.4082C33.5938-78.3691 38.5742-83.3496 48.4863-83.3496L124.707-83.3496C134.717-83.3496 139.648-78.3691 139.648-68.4082L139.648-20.4102C139.648-10.498 134.717-5.46875 124.707-5.46875L116.943-5.46875C113.037-5.46875 110.84-3.80859 110.84 0.585938Z"/>
  </g>
  <g id="Bold-L" transform="matrix(1 0 0 1 2253.97 1556)">
   <path d="M115.576 35.791C121.143 35.791 124.512 31.9336 124.512 25.7324L124.512 11.084L126.855 11.084C144.141 11.084 155.957-0.244141 155.957-18.8965L155.957-69.043C155.957-87.6953 144.727-99.0234 125.977-99.0234L46.0449-99.0234C27.2461-99.0234 16.0645-87.6465 16.0645-69.043L16.0645-18.8965C16.0645-0.292969 27.2461 11.084 46.0449 11.084L82.4219 11.084L103.906 29.9316C108.594 34.0332 111.67 35.791 115.576 35.791ZM112.061 19.6777L92.1387 0.292969C89.209-2.58789 87.3535-3.36914 83.3496-3.36914L46.8262-3.36914C35.9863-3.36914 30.5176-8.93555 30.5176-19.6777L30.5176-68.2617C30.5176-78.9551 35.9863-84.5703 46.8262-84.5703L125.195-84.5703C136.035-84.5703 141.504-78.9551 141.504-68.2617L141.504-19.6777C141.504-8.93555 136.035-3.36914 125.195-3.36914L117.432-3.36914C113.867-3.36914 112.061-1.9043 112.061 2.00195Z"/>
  </g>
  <g id="Semibold-L" transform="matrix(1 0 0 1 1957.7 1556)">
   <path d="M115.918 34.7656C120.801 34.7656 123.779 31.3477 123.779 25.8789L123.779 10.4492L126.562 10.4492C143.994 10.4492 155.078-0.390625 155.078-18.6035L155.078-68.6523C155.078-86.8652 144.385-97.7539 126.025-97.7539L45.166-97.7539C26.7578-97.7539 16.0645-86.8164 16.0645-68.6523L16.0645-18.6035C16.0645-0.439453 26.7578 10.4492 45.166 10.4492L83.9844 10.4492L105.664 29.4922C109.814 33.1055 112.451 34.7656 115.918 34.7656ZM112.891 20.9473L92.7246 1.41602C90.0879-1.2207 88.3301-1.9043 84.668-1.9043L45.6543-1.9043C34.2285-1.9043 28.418-7.91016 28.418-19.1406L28.418-68.1152C28.418-79.3945 34.2285-85.4004 45.6543-85.4004L125.488-85.4004C136.963-85.4004 142.773-79.3945 142.773-68.1152L142.773-19.1406C142.773-7.91016 136.963-1.9043 125.488-1.9043L117.773-1.9043C114.453-1.9043 112.891-0.537109 112.891 3.02734Z"/>
  </g>
  <g id="Medium-L" transform="matrix(1 0 0 1 1661.3 1556)">
   <path d="M116.162 33.9844C120.557 33.9844 123.193 30.9082 123.193 25.9766L123.193 9.96094L126.367 9.96094C143.896 9.96094 154.443-0.537109 154.443-18.457L154.443-68.3594C154.443-86.2793 144.092-96.7773 126.025-96.7773L44.4824-96.7773C26.3672-96.7773 16.0645-86.2305 16.0645-68.3594L16.0645-18.457C16.0645-0.585938 26.3672 9.96094 44.4824 9.96094L85.2051 9.96094L107.031 29.1504C110.742 32.4219 113.037 33.9844 116.162 33.9844ZM113.525 21.9238L93.2129 2.24609C90.7715-0.195312 89.0625-0.78125 85.6445-0.78125L44.7754-0.78125C32.9102-0.78125 26.8066-7.08008 26.8066-18.75L26.8066-68.0176C26.8066-79.6875 32.9102-86.0352 44.7754-86.0352L125.732-86.0352C137.695-86.0352 143.701-79.6875 143.701-68.0176L143.701-18.75C143.701-7.08008 137.695-0.78125 125.732-0.78125L118.066-0.78125C114.893-0.78125 113.525 0.488281 113.525 3.75977Z"/>
  </g>
  <g id="Regular-L" transform="matrix(1 0 0 1 1365.01 1556)">
   <path d="M116.504 32.959C120.215 32.959 122.412 30.2734 122.412 26.123L122.412 9.32617L126.074 9.32617C143.75 9.32617 153.613-0.683594 153.613-18.1641L153.613-67.9688C153.613-85.4492 143.75-95.5078 126.074-95.5078L43.6035-95.5078C25.8789-95.5078 16.0645-85.4004 16.0645-67.9688L16.0645-18.1641C16.0645-0.78125 25.8789 9.32617 43.6035 9.32617L86.7676 9.32617L108.789 28.7109C111.963 31.543 113.818 32.959 116.504 32.959ZM114.307 23.1445L93.7988 3.36914C91.6016 1.17188 90.0391 0.683594 86.9141 0.683594L43.6523 0.683594C31.1523 0.683594 24.707-6.05469 24.707-18.2617L24.707-67.9199C24.707-80.127 31.1523-86.8652 43.6523-86.8652L126.025-86.8652C138.623-86.8652 144.971-80.127 144.971-67.9199L144.971-18.2617C144.971-6.05469 138.623 0.683594 126.025 0.683594L118.408 0.683594C115.43 0.683594 114.307 1.80664 114.307 4.78516Z"/>
  </g>
  <g id="Light-L" transform="matrix(1 0 0 1 1069.2 1556)">
   <path d="M116.943 31.5918C119.775 31.5918 121.533 29.541 121.533 26.3184L121.533 8.98438L126.074 8.98438C142.334 8.98438 151.807-0.585938 151.807-16.6992L151.807-68.6035C151.807-84.7168 142.334-94.2871 126.074-94.2871L41.7969-94.2871C25.5371-94.2871 16.0645-84.6191 16.0645-68.6035L16.0645-16.6992C16.0645-0.683594 25.5371 8.98438 41.7969 8.98438L88.6719 8.98438L111.035 28.418C113.379 30.4688 114.844 31.5918 116.943 31.5918ZM115.332 24.1211L94.2871 4.63867C92.334 2.7832 91.0645 2.34375 88.5254 2.34375L41.8945 2.34375C29.7363 2.34375 22.7051-4.73633 22.7051-16.8457L22.7051-68.5059C22.7051-80.5664 29.7363-87.6953 41.8945-87.6953L125.977-87.6953C138.33-87.6953 145.166-80.5664 145.166-68.5059L145.166-16.8457C145.166-4.73633 138.33 2.34375 125.977 2.34375L118.457 2.34375C116.211 2.34375 115.332 3.27148 115.332 5.51758Z"/>
  </g>
  <g id="Thin-L" transform="matrix(1 0 0 1 773.683 1556)">
   <path d="M117.48 29.7852C119.141 29.7852 120.361 28.5156 120.361 26.5137L120.361 8.54492L126.074 8.54492C140.43 8.54492 149.414-0.488281 149.414-14.7949L149.414-69.3848C149.414-83.6914 140.43-92.7246 126.074-92.7246L39.3555-92.7246C25.0488-92.7246 16.0645-83.5449 16.0645-69.3848L16.0645-14.7949C16.0645-0.634766 25.0488 8.54492 39.3555 8.54492L91.2109 8.54492L114.014 28.0273C115.234 29.0527 116.211 29.7852 117.48 29.7852ZM116.65 25.4395L94.873 6.34766C93.3105 4.93164 92.4316 4.58984 90.625 4.58984L39.502 4.58984C27.832 4.58984 19.9707-2.97852 19.9707-14.9414L19.9707-69.2383C19.9707-81.2012 27.832-88.7695 39.502-88.7695L125.928-88.7695C137.939-88.7695 145.459-81.2012 145.459-69.2383L145.459-14.9414C145.459-2.97852 137.939 4.58984 125.928 4.58984L118.555 4.58984C117.188 4.58984 116.65 5.17578 116.65 6.54297Z"/>
  </g>
  <g id="Ultralight-L" transform="matrix(1 0 0 1 477.607 1556)">
   <path d="M117.773 28.8574C118.848 28.8574 119.775 28.0273 119.775 26.6113L119.775 8.30078L126.074 8.30078C139.453 8.30078 148.145-0.439453 148.145-13.8184L148.145-69.8242C148.145-83.2031 139.453-91.8945 126.074-91.8945L38.1348-91.8945C24.8047-91.8945 16.0645-83.0078 16.0645-69.8242L16.0645-13.8184C16.0645-0.585938 24.8047 8.30078 38.1348 8.30078L92.5293 8.30078L115.576 27.832C116.162 28.3203 116.943 28.8574 117.773 28.8574ZM117.334 26.0742L95.166 7.22656C93.8477 6.05469 93.1152 5.71289 91.6992 5.71289L38.3301 5.71289C26.8555 5.71289 18.6035-2.09961 18.6035-13.9648L18.6035-69.6289C18.6035-81.4941 26.8555-89.3555 38.3301-89.3555L125.928-89.3555C137.744-89.3555 145.605-81.4941 145.605-69.6289L145.605-13.9648C145.605-2.09961 137.744 5.71289 125.928 5.71289L118.604 5.71289C117.725 5.71289 117.334 6.15234 117.334 7.03125Z"/>
  </g>
  <g id="Black-M" transform="matrix(1 0 0 1 2865.58 1126)">
   <path d="M88.4766 23.0469C94.9219 23.0469 99.0234 18.75 99.0234 11.5723L99.0234 2.97852L99.3652 2.97852C111.523 2.97852 123.193-7.42188 123.193-22.7539L123.193-63.2812C123.193-78.6133 112.793-89.0137 97.4609-89.0137L38.1836-89.0137C22.8516-89.0137 12.4512-78.6133 12.4512-63.2812L12.4512-22.7539C12.4512-7.42188 22.8516 2.97852 38.1836 2.97852L58.7402 2.97852L74.8047 16.748C80.2246 21.4355 84.0332 23.0469 88.4766 23.0469ZM84.1797 2.97852L69.2871-11.377C66.1621-14.4043 64.502-15.332 60.4004-15.332L39.8438-15.332C33.9355-15.332 30.7617-18.2617 30.7617-24.4141L30.7617-61.6211C30.7617-67.7734 33.9355-70.7031 39.8438-70.7031L95.8008-70.7031C101.66-70.7031 104.883-67.7734 104.883-61.6211L104.883-24.4141C104.883-18.2617 101.66-15.332 95.8008-15.332L89.6973-15.332C86.4258-15.332 84.1797-13.8184 84.1797-9.81445Z"/>
  </g>
  <g id="Heavy-M" transform="matrix(1 0 0 1 2569.23 1126)">
   <path d="M88.8184 21.9238C94.5801 21.9238 98.1445 18.1152 98.1445 11.7676L98.1445 2.14844L98.9746 2.14844C111.67 2.14844 122.461-7.71484 122.461-22.8027L122.461-62.5488C122.461-77.6367 112.646-87.5 97.5098-87.5L37.4023-87.5C22.2656-87.5 12.4512-77.6367 12.4512-62.5488L12.4512-22.8027C12.4512-7.71484 22.2656 2.14844 37.4023 2.14844L60.498 2.14844L76.7578 16.2109C81.543 20.4102 84.9121 21.9238 88.8184 21.9238ZM85.1074 4.54102L70.0195-10.1074C67.1875-12.8418 65.625-13.6719 61.8164-13.6719L38.6719-13.6719C31.8359-13.6719 28.2715-17.1387 28.2715-24.0723L28.2715-61.2793C28.2715-68.2129 31.8359-71.6797 38.6719-71.6797L96.2402-71.6797C103.076-71.6797 106.641-68.2129 106.641-61.2793L106.641-24.0723C106.641-17.1387 103.076-13.6719 96.2402-13.6719L90.1855-13.6719C87.0605-13.6719 85.1074-12.3047 85.1074-8.59375Z"/>
  </g>
  <g id="Bold-M" transform="matrix(1 0 0 1 2272.94 1126)">
   <path d="M89.2578 20.7031C94.1895 20.7031 97.2168 17.3828 97.2168 11.9141L97.2168 1.2207L98.5352 1.2207C111.865 1.2207 121.631-7.95898 121.631-22.8027L121.631-61.7676C121.631-76.6113 112.5-85.791 97.5586-85.791L36.4746-85.791C21.582-85.791 12.4512-76.5625 12.4512-61.7676L12.4512-22.8027C12.4512-8.00781 21.582 1.2207 36.4746 1.2207L62.4512 1.2207L78.9062 15.625C83.1055 19.2871 85.8398 20.7031 89.2578 20.7031ZM86.084 6.20117L70.8496-8.69141C68.3594-11.1816 66.8457-11.8652 63.4277-11.8652L37.3535-11.8652C29.4922-11.8652 25.5371-15.8203 25.5371-23.6328L25.5371-60.9375C25.5371-68.75 29.4922-72.7539 37.3535-72.7539L96.7285-72.7539C104.639-72.7539 108.545-68.75 108.545-60.9375L108.545-23.6328C108.545-15.8203 104.639-11.8652 96.7285-11.8652L90.7227-11.8652C87.7441-11.8652 86.084-10.5957 86.084-7.22656Z"/>
  </g>
  <g id="Semibold-M" transform="matrix(1 0 0 1 1976.52 1126)">
   <path d="M89.5508 19.873C93.8965 19.873 96.5332 16.8457 96.5332 12.0117L96.5332 0.585938L98.2422 0.585938C112.012 0.585938 121.045-8.1543 121.045-22.8027L121.045-61.2305C121.045-75.8789 112.402-84.668 97.6074-84.668L35.8887-84.668C21.0938-84.668 12.4512-75.8301 12.4512-61.2305L12.4512-22.8027C12.4512-8.20312 21.0938 0.585938 35.8887 0.585938L63.7695 0.585938L80.4199 15.2344C84.1309 18.5059 86.4746 19.873 89.5508 19.873ZM86.8164 7.42188L71.4355-7.71484C69.1895-10.0098 67.6758-10.5469 64.5508-10.5469L36.4258-10.5469C27.832-10.5469 23.6328-14.9414 23.6328-23.3887L23.6328-60.6934C23.6328-69.1406 27.832-73.4863 36.4258-73.4863L97.0703-73.4863C105.713-73.4863 109.863-69.1406 109.863-60.6934L109.863-23.3887C109.863-14.9414 105.713-10.5469 97.0703-10.5469L91.0645-10.5469C88.2324-10.5469 86.8164-9.42383 86.8164-6.29883Z"/>
  </g>
  <g id="Medium-M" transform="matrix(1 0 0 1 1680.03 1126)">
   <path d="M89.7461 19.2383C93.7012 19.2383 96.0449 16.4551 96.0449 12.1094L96.0449 0.146484L97.998 0.146484C112.109 0.146484 120.605-8.30078 120.605-22.8516L120.605-60.791C120.605-75.293 112.354-83.7891 97.6562-83.7891L35.4004-83.7891C20.752-83.7891 12.4512-75.293 12.4512-60.791L12.4512-22.8516C12.4512-8.34961 20.752 0.146484 35.4004 0.146484L64.7949 0.146484L81.543 14.8926C84.9121 17.8711 86.9629 19.2383 89.7461 19.2383ZM87.3535 8.30078L71.875-6.98242C69.7754-9.13086 68.3594-9.61914 65.3809-9.61914L35.7422-9.61914C26.6113-9.61914 22.168-14.2578 22.168-23.1445L22.168-60.498C22.168-69.3848 26.6113-74.0234 35.7422-74.0234L97.3633-74.0234C106.543-74.0234 110.889-69.3848 110.889-60.498L110.889-23.1445C110.889-14.2578 106.543-9.61914 97.3633-9.61914L91.3574-9.61914C88.5742-9.61914 87.3535-8.49609 87.3535-5.61523Z"/>
  </g>
  <g id="Regular-M" transform="matrix(1 0 0 1 1383.58 1126)">
   <path d="M90.0391 18.4082C93.457 18.4082 95.3613 15.9668 95.3613 12.207L95.3613-0.488281L97.7051-0.488281C112.256-0.488281 120.068-8.49609 120.068-22.8516L120.068-60.2539C120.068-74.6094 112.256-82.6172 97.7051-82.6172L34.8145-82.6172C20.2637-82.6172 12.4512-74.5605 12.4512-60.2539L12.4512-22.8516C12.4512-8.54492 20.2637-0.488281 34.8145-0.488281L66.1621-0.488281L83.0078 14.502C85.9863 17.1387 87.6465 18.4082 90.0391 18.4082ZM88.0371 9.47266L72.4121-6.05469C70.5566-7.95898 69.1895-8.34961 66.4551-8.34961L34.8145-8.34961C25-8.34961 20.3125-13.3789 20.3125-22.9004L20.3125-60.2539C20.3125-69.7754 25-74.7559 34.8145-74.7559L97.7051-74.7559C107.568-74.7559 112.207-69.7754 112.207-60.2539L112.207-22.9004C112.207-13.3789 107.568-8.34961 97.7051-8.34961L91.6992-8.34961C89.0625-8.34961 88.0371-7.32422 88.0371-4.6875Z"/>
  </g>
  <g id="Light-M" transform="matrix(1 0 0 1 1087.68 1126)">
   <path d="M90.4297 17.1875C93.0176 17.1875 94.5801 15.2832 94.5801 12.3535L94.5801-0.830078L97.7051-0.830078C110.938-0.830078 118.457-8.44727 118.457-21.5332L118.457-60.791C118.457-73.9258 110.938-81.543 97.7051-81.543L33.2031-81.543C19.9707-81.543 12.4512-73.877 12.4512-60.791L12.4512-21.5332C12.4512-8.49609 19.9707-0.830078 33.2031-0.830078L67.8711-0.830078L85.0586 14.2578C87.207 16.1621 88.5742 17.1875 90.4297 17.1875ZM88.916 10.3516L72.8516-4.88281C71.2402-6.49414 70.1172-6.83594 67.8711-6.83594L33.252-6.83594C23.6816-6.83594 18.5059-12.207 18.5059-21.582L18.5059-60.7422C18.5059-70.166 23.6816-75.4883 33.252-75.4883L97.6562-75.4883C107.324-75.4883 112.402-70.166 112.402-60.7422L112.402-21.582C112.402-12.207 107.324-6.83594 97.6562-6.83594L91.7969-6.83594C89.6973-6.83594 88.916-6.05469 88.916-4.00391Z"/>
  </g>
  <g id="Thin-M" transform="matrix(1 0 0 1 792.042 1126)">
   <path d="M90.918 15.5273C92.4805 15.5273 93.5547 14.4043 93.5547 12.5977L93.5547-1.2207L97.7051-1.2207C109.229-1.2207 116.309-8.34961 116.309-19.8242L116.309-61.5234C116.309-72.998 109.229-80.127 97.7051-80.127L31.0547-80.127C19.5312-80.127 12.4512-72.9004 12.4512-61.5234L12.4512-19.8242C12.4512-8.44727 19.5312-1.2207 31.0547-1.2207L70.166-1.2207L87.7441 13.8672C88.8672 14.8926 89.7949 15.5273 90.918 15.5273ZM90.0879 11.4746L73.3887-3.36914C72.1191-4.58984 71.3379-4.83398 69.7754-4.83398L31.1523-4.83398C21.9727-4.83398 16.0645-10.6445 16.0645-19.9219L16.0645-61.4258C16.0645-70.7031 21.9727-76.5137 31.1523-76.5137L97.6074-76.5137C106.982-76.5137 112.646-70.7031 112.646-61.4258L112.646-19.9219C112.646-10.6445 106.982-4.83398 97.6074-4.83398L91.8945-4.83398C90.625-4.83398 90.0879-4.3457 90.0879-3.07617Z"/>
  </g>
  <g id="Ultralight-M" transform="matrix(1 0 0 1 495.893 1126)">
   <path d="M91.2109 14.6973C92.1875 14.6973 92.9688 13.916 92.9688 12.6953L92.9688-1.41602L97.7051-1.41602C108.35-1.41602 115.186-8.25195 115.186-18.9453L115.186-61.9141C115.186-72.5586 108.35-79.3945 97.7051-79.3945L29.9316-79.3945C19.2871-79.3945 12.4512-72.4121 12.4512-61.9141L12.4512-18.9453C12.4512-8.39844 19.2871-1.41602 29.9316-1.41602L71.3379-1.41602L89.1113 13.7207C89.7461 14.2578 90.4297 14.6973 91.2109 14.6973ZM90.7227 12.1094L73.6816-2.58789C72.5586-3.56445 71.9727-3.80859 70.752-3.80859L30.0781-3.80859C21.0938-3.80859 14.8438-9.81445 14.8438-19.043L14.8438-61.7676C14.8438-70.9961 21.0938-77.002 30.0781-77.002L97.6074-77.002C106.787-77.002 112.793-70.9961 112.793-61.7676L112.793-19.043C112.793-9.81445 106.787-3.80859 97.6074-3.80859L91.8945-3.80859C91.0645-3.80859 90.7227-3.4668 90.7227-2.63672Z"/>
  </g>
  <g id="Black-S" transform="matrix(1 0 0 1 2880.28 696)">
   <path d="M69.3359 10.3516C74.3652 10.3516 77.5391 7.03125 77.5391 1.46484L77.5391-5.37109L77.832-5.37109C87.4023-5.37109 96.4844-13.4766 96.4844-25.4883L96.4844-57.1289C96.4844-69.1406 88.3789-77.2461 76.3672-77.2461L29.8828-77.2461C17.8711-77.2461 9.76562-69.1406 9.76562-57.1289L9.76562-25.4883C9.76562-13.4766 17.8711-5.37109 29.8828-5.37109L46.1426-5.37109L58.7402 5.46875C62.9395 9.08203 65.918 10.3516 69.3359 10.3516ZM66.0156-5.17578L54.3457-16.4551C51.9043-18.7988 50.6348-19.5312 47.4121-19.5312L31.1523-19.5312C26.4648-19.5312 23.9258-21.875 23.9258-26.7578L23.9258-55.8594C23.9258-60.7422 26.4648-63.0859 31.1523-63.0859L75.0977-63.0859C79.7852-63.0859 82.3242-60.7422 82.3242-55.8594L82.3242-26.7578C82.3242-21.875 79.7852-19.5312 75.0977-19.5312L70.3125-19.5312C67.7734-19.5312 66.0156-18.3594 66.0156-15.2344Z"/>
  </g>
  <g id="Heavy-S" transform="matrix(1 0 0 1 2583.76 696)">
   <path d="M69.5801 9.66797C74.1211 9.66797 76.9531 6.5918 76.9531 1.5625L76.9531-5.95703L77.5391-5.95703C87.6953-5.95703 96.0938-13.6719 96.0938-25.6348L96.0938-56.543C96.0938-68.5059 88.4277-76.2207 76.416-76.2207L29.4434-76.2207C17.4316-76.2207 9.76562-68.5059 9.76562-56.543L9.76562-25.6348C9.76562-13.6719 17.4316-5.95703 29.4434-5.95703L47.2656-5.95703L60.0098 5.07812C63.8184 8.39844 66.4551 9.66797 69.5801 9.66797ZM66.6016-4.10156L54.8828-15.625C52.6367-17.8223 51.3672-18.457 48.3398-18.457L30.4199-18.457C25-18.457 22.2656-21.0938 22.2656-26.6113L22.2656-55.5664C22.2656-61.0352 25-63.7207 30.4199-63.7207L75.4395-63.7207C80.8594-63.7207 83.6426-61.0352 83.6426-55.5664L83.6426-26.6113C83.6426-21.0938 80.8594-18.457 75.4395-18.457L70.6543-18.457C68.1641-18.457 66.6016-17.334 66.6016-14.3555Z"/>
  </g>
  <g id="Bold-S" transform="matrix(1 0 0 1 2287.27 696)">
   <path d="M69.873 8.88672C73.877 8.88672 76.3184 6.10352 76.3184 1.66016L76.3184-6.64062L77.1973-6.64062C87.9883-6.64062 95.6543-13.916 95.6543-25.8301L95.6543-55.8594C95.6543-67.7734 88.4766-75.0488 76.4648-75.0488L28.9551-75.0488C16.9434-75.0488 9.76562-67.7734 9.76562-55.8594L9.76562-25.8301C9.76562-13.916 16.9434-6.64062 28.9551-6.64062L48.584-6.64062L61.4258 4.6875C64.8438 7.66602 67.041 8.88672 69.873 8.88672ZM67.2852-2.92969L55.4688-14.6973C53.4668-16.6992 52.1973-17.2363 49.4141-17.2363L29.5898-17.2363C23.3398-17.2363 20.3613-20.2637 20.3613-26.4648L20.3613-55.2246C20.3613-61.4258 23.3398-64.4531 29.5898-64.4531L75.8301-64.4531C82.1289-64.4531 85.0586-61.4258 85.0586-55.2246L85.0586-26.4648C85.0586-20.2637 82.1289-17.2363 75.8301-17.2363L71.0938-17.2363C68.6035-17.2363 67.2852-16.1621 67.2852-13.4277Z"/>
  </g>
  <g id="Semibold-S" transform="matrix(1 0 0 1 1990.7 696)">
   <path d="M70.0195 8.30078C73.7305 8.30078 75.8789 5.81055 75.8789 1.75781L75.8789-7.08008L76.9531-7.08008C88.1836-7.08008 95.3613-14.0625 95.3613-25.9277L95.3613-55.3711C95.3613-67.2852 88.5254-74.2676 76.5137-74.2676L28.6621-74.2676C16.6504-74.2676 9.76562-67.2852 9.76562-55.3711L9.76562-25.9277C9.76562-14.0625 16.6504-7.08008 28.6621-7.08008L49.4629-7.08008L62.4023 4.39453C65.5273 7.12891 67.4805 8.30078 70.0195 8.30078ZM67.7246-2.09961L55.8594-14.0137C54.0039-15.918 52.7832-16.3574 50.1465-16.3574L29.0527-16.3574C22.2168-16.3574 19.0918-19.6777 19.0918-26.3672L19.0918-54.9805C19.0918-61.6699 22.2168-64.9414 29.0527-64.9414L76.0742-64.9414C82.959-64.9414 86.084-61.6699 86.084-54.9805L86.084-26.3672C86.084-19.6777 82.959-16.3574 76.0742-16.3574L71.3379-16.3574C68.8965-16.3574 67.7246-15.3809 67.7246-12.7441Z"/>
  </g>
  <g id="Medium-S" transform="matrix(1 0 0 1 1694.09 696)">
   <path d="M70.166 7.91016C73.584 7.91016 75.5371 5.56641 75.5371 1.80664L75.5371-7.42188L76.8066-7.42188C88.3789-7.42188 95.166-14.209 95.166-26.0254L95.166-55.0293C95.166-66.8945 88.5254-73.6816 76.5137-73.6816L28.418-73.6816C16.4062-73.6816 9.76562-66.8945 9.76562-55.0293L9.76562-26.0254C9.76562-14.209 16.4062-7.42188 28.418-7.42188L50.1465-7.42188L63.1348 4.15039C66.0645 6.73828 67.7734 7.91016 70.166 7.91016ZM68.1152-1.46484L56.1523-13.5254C54.4434-15.332 53.1738-15.7227 50.6836-15.7227L28.6133-15.7227C21.3379-15.7227 18.0664-19.2383 18.0664-26.2695L18.0664-54.7852C18.0664-61.8164 21.3379-65.332 28.6133-65.332L76.3184-65.332C83.5938-65.332 86.8164-61.8164 86.8164-54.7852L86.8164-26.2695C86.8164-19.2383 83.5938-15.7227 76.3184-15.7227L71.582-15.7227C69.1406-15.7227 68.1152-14.7949 68.1152-12.2559Z"/>
  </g>
  <g id="Regular-S" transform="matrix(1 0 0 1 1397.53 696)">
   <path d="M70.3613 7.37305C73.4375 7.37305 75.0977 5.22461 75.0977 1.85547L75.0977-7.86133L76.5625-7.86133C88.5742-7.86133 94.873-14.3555 94.873-26.1719L94.873-54.5898C94.873-66.4062 88.5742-72.9004 76.5625-72.9004L28.0762-72.9004C16.0645-72.9004 9.76562-66.4062 9.76562-54.5898L9.76562-26.1719C9.76562-14.3555 16.0645-7.86133 28.0762-7.86133L50.9766-7.86133L64.0625 3.85742C66.748 6.25 68.2129 7.37305 70.3613 7.37305ZM68.5547-0.634766L56.543-12.8906C54.9805-14.5508 53.7598-14.8926 51.416-14.8926L28.0762-14.8926C20.2148-14.8926 16.7969-18.6523 16.7969-26.1719L16.7969-54.5898C16.7969-62.0605 20.2148-65.8203 28.0762-65.8203L76.5625-65.8203C84.4238-65.8203 87.8418-62.0605 87.8418-54.5898L87.8418-26.1719C87.8418-18.6523 84.4238-14.8926 76.5625-14.8926L71.8262-14.8926C69.4336-14.8926 68.5547-14.0137 68.5547-11.6211Z"/>
  </g>
  <g id="Light-S" transform="matrix(1 0 0 1 1101.55 696)">
   <path d="M70.7031 6.29883C73.0469 6.29883 74.4141 4.63867 74.4141 2.00195L74.4141-8.1543L76.5625-8.1543C87.4023-8.1543 93.4082-14.2578 93.4082-25L93.4082-55.0781C93.4082-65.8203 87.4023-71.9238 76.5625-71.9238L26.6113-71.9238C15.7715-71.9238 9.76562-65.7715 9.76562-55.0781L9.76562-25C9.76562-14.3066 15.7715-8.1543 26.6113-8.1543L52.5391-8.1543L65.8691 3.61328C67.8711 5.41992 69.043 6.29883 70.7031 6.29883ZM69.3359 0.146484L56.9336-11.9141C55.5664-13.2812 54.5898-13.5742 52.6367-13.5742L26.6602-13.5742C19.043-13.5742 15.1855-17.627 15.1855-25.0488L15.1855-55.0293C15.1855-62.4512 19.043-66.5039 26.6602-66.5039L76.5137-66.5039C84.1797-66.5039 87.9883-62.4512 87.9883-55.0293L87.9883-25.0488C87.9883-17.627 84.1797-13.5742 76.5137-13.5742L71.875-13.5742C70.0195-13.5742 69.3359-12.8418 69.3359-11.0352Z"/>
  </g>
  <g id="Thin-S" transform="matrix(1 0 0 1 805.763 696)">
   <path d="M71.1426 4.88281C72.5586 4.88281 73.4863 3.80859 73.4863 2.19727L73.4863-8.49609L76.5625-8.49609C85.9375-8.49609 91.5527-14.1602 91.5527-23.4863L91.5527-55.7129C91.5527-64.9902 85.9375-70.6543 76.5625-70.6543L24.7559-70.6543C15.3809-70.6543 9.76562-64.9414 9.76562-55.7129L9.76562-23.4863C9.76562-14.2578 15.3809-8.49609 24.7559-8.49609L54.541-8.49609L68.2129 3.32031C69.3359 4.29688 70.1172 4.88281 71.1426 4.88281ZM70.3613 1.17188L57.4219-10.5469C56.3477-11.5723 55.6641-11.8164 54.2969-11.8164L24.8047-11.8164C17.5781-11.8164 13.0859-16.2598 13.0859-23.5352L13.0859-55.6152C13.0859-62.9395 17.5781-67.3828 24.8047-67.3828L76.5137-67.3828C83.8867-67.3828 88.2324-62.9395 88.2324-55.6152L88.2324-23.5352C88.2324-16.2598 83.8867-11.8164 76.5137-11.8164L71.9727-11.8164C70.8496-11.8164 70.3613-11.377 70.3613-10.2051Z"/>
  </g>
  <g id="Ultralight-S" transform="matrix(1 0 0 1 509.54 696)">
   <path d="M71.3867 4.10156C72.3145 4.10156 72.998 3.41797 72.998 2.29492L72.998-8.69141L76.5625-8.69141C85.1562-8.69141 90.5762-14.1113 90.5762-22.7051L90.5762-56.0059C90.5762-64.5996 85.1562-70.0195 76.5625-70.0195L23.7793-70.0195C15.1855-70.0195 9.76562-64.502 9.76562-56.0059L9.76562-22.7051C9.76562-14.209 15.1855-8.69141 23.7793-8.69141L55.5664-8.69141L69.4336 3.17383C70.0684 3.71094 70.6543 4.10156 71.3867 4.10156ZM70.8984 1.70898L57.666-9.86328C56.7383-10.6934 56.2012-10.8887 55.1758-10.8887L23.8281-10.8887C16.7969-10.8887 11.9629-15.5273 11.9629-22.8027L11.9629-55.957C11.9629-63.1836 16.7969-67.8223 23.8281-67.8223L76.4648-67.8223C83.7402-67.8223 88.3301-63.1836 88.3301-55.957L88.3301-22.8027C88.3301-15.5273 83.7402-10.8887 76.4648-10.8887L72.0215-10.8887C71.2402-10.8887 70.8984-10.5957 70.8984-9.81445Z"/>
  </g>
 </g>
</svg>
